<mxfile host="app.diagrams.net" modified="2020-11-24T12:25:21.530Z" agent="5.0 (Windows NT 10.0; Win64; x64) AppleWebKit/537.36 (KHTML, like Gecko) Chrome/86.0.4240.193 Safari/537.36 Edg/86.0.622.68" etag="oETtbG7yrMwB719F5YYO" version="13.10.2" type="github">
  <diagram id="xvts6asv44kf7kMuaCmC" name="Page-1">
    <mxGraphModel dx="1564" dy="842" grid="0" gridSize="10" guides="1" tooltips="1" connect="1" arrows="1" fold="1" page="1" pageScale="1" pageWidth="1100" pageHeight="850" math="0" shadow="0">
      <root>
        <mxCell id="0" />
        <mxCell id="2" value="Layer 0" parent="0" />
        <mxCell id="6" value="&lt;div style=&#39;width: 56.125px;height:auto;word-break: break-word;&#39;&gt;&lt;div align=&quot;center&quot;&gt;&lt;span style=&quot;font-size:14px;font-weight:bold;font-family:Arial;text-decoration:none; line-height: 0;&quot;&gt;&lt;span style=&quot;text-decoration:none; line-height: normal;&quot;&gt;Switch&lt;/span&gt;&lt;/span&gt;&lt;/div&gt;&lt;/div&gt;" style="shape=mxgraph.networks.router;shadow=0;strokeWidth=1;opacity=100.0;html=1;nl2Br=0;verticalLabelPosition=bottom;verticalAlign=top;align=center;spacingLeft=2.0;spacingRight=0;gliffyId=16;" parent="2" vertex="1">
          <mxGeometry x="30" y="328" width="119" height="41" as="geometry" />
        </mxCell>
        <mxCell id="3" value="&lt;div style=&quot;width: 757.0px;height:auto;word-break: break-word;&quot;&gt;&lt;div&gt;&lt;span style=&quot;font-size: 24px; font-family: Helvetica; line-height: normal;&quot;&gt;VOYAGER Insertion and Extraction automation network architecture&lt;/span&gt;&lt;/div&gt;&lt;/div&gt;" style="text;html=1;nl2Br=0;html=1;nl2Br=0;verticalAlign=middle;align=center;spacingLeft=0.0;spacingRight=0;whiteSpace=wrap;gliffyId=0;fontStyle=0;" parent="2" vertex="1">
          <mxGeometry x="30" y="30" width="760" height="48" as="geometry" />
        </mxCell>
        <mxCell id="4" style="shape=filledEdge;strokeWidth=3;fillColor=none;startArrow=none;startFill=0;startSize=6;endArrow=none;endFill=0;endSize=6;gliffyId=1;edgeStyle=orthogonalEdgeStyle;" parent="2" edge="1">
          <mxGeometry width="1003" height="5" relative="1" as="geometry">
            <mxPoint x="25" y="73" as="sourcePoint" />
            <mxPoint x="1028.012451171875" y="73" as="targetPoint" />
          </mxGeometry>
        </mxCell>
        <mxCell id="5" value="&lt;div style=&#39;width: 57.6562px;height:auto;word-break: break-word;&#39;&gt;&lt;div align=&quot;center&quot;&gt;&lt;span style=&quot;font-size:14px;font-weight:bold;font-family:Arial;text-decoration:none; line-height: 0;&quot;&gt;&lt;span style=&quot;text-decoration:none; line-height: normal;&quot;&gt;Laptop&lt;/span&gt;&lt;/span&gt;&lt;/div&gt;&lt;/div&gt;" style="shape=mxgraph.networks.laptop;shadow=0;strokeWidth=1;opacity=100.0;html=1;nl2Br=0;verticalLabelPosition=bottom;verticalAlign=top;align=center;spacingLeft=2.0;spacingRight=0;gliffyId=13;" parent="2" vertex="1">
          <mxGeometry x="390" y="135.5" width="126" height="75" as="geometry" />
        </mxCell>
        <mxCell id="7" value="&lt;div style=&quot;width: 392.0px ; height: auto ; word-break: break-word&quot;&gt;&lt;div align=&quot;left&quot;&gt;&lt;span style=&quot;font-size: 14px ; font-weight: bold ; color: #595959 ; font-family: &amp;#34;arial&amp;#34; ; text-decoration: none ; line-height: 0&quot;&gt;&lt;span style=&quot;text-decoration: none ; line-height: 0&quot;&gt;&lt;span style=&quot;font-size: 12px ; line-height: normal&quot;&gt;VOYAGER Insertion and Extraction test software&lt;/span&gt;&lt;br&gt;&lt;/span&gt;&lt;/span&gt;&lt;/div&gt;&lt;div align=&quot;left&quot;&gt;&lt;span style=&quot;font-size: 10px ; font-weight: bold ; color: #595959 ; font-family: &amp;#34;arial&amp;#34; ; text-decoration: none ; line-height: 0&quot;&gt;&lt;span style=&quot;text-decoration: none ; line-height: 0&quot;&gt;&lt;span style=&quot;text-decoration: none ; line-height: normal&quot;&gt;&amp;nbsp;&lt;/span&gt;&lt;/span&gt;&lt;/span&gt;&lt;/div&gt;&lt;/div&gt;" style="shape=mxgraph.mockup.containers.window;mainText=;shadow=0;strokeWidth=2;opacity=100.0;html=1;nl2Br=0;verticalAlign=top;align=left;spacingLeft=2.5;spacingRight=0;spacingTop=-5.0;spacingBottom=2;whiteSpace=wrap;gliffyId=58;" parent="2" vertex="1">
          <mxGeometry x="630" y="87.5" width="400" height="181" as="geometry" />
        </mxCell>
        <mxCell id="8" value="&lt;div style=&#39;width: 44.5px;height:auto;word-break: break-word;&#39;&gt;&lt;div align=&quot;center&quot;&gt;&lt;span style=&quot;font-size:12px;font-weight:bold;color:#595959;font-family:Arial; line-height: normal;&quot;&gt;Start&lt;/span&gt;&lt;/div&gt;&lt;/div&gt;" style="shape=rect;arcSize=15;absoluteArcSize=1;shadow=0;strokeWidth=2;gradientDirection=north;opacity=100.0;html=1;nl2Br=0;verticalAlign=middle;align=center;spacingLeft=1.25;spacingRight=0;whiteSpace=wrap;gliffyId=63;" parent="2" vertex="1">
          <mxGeometry x="850" y="133" width="50" height="17" as="geometry" />
        </mxCell>
        <mxCell id="9" value="&lt;div style=&#39;width: 44.402596px;height:auto;word-break: break-word;&#39;&gt;&lt;div align=&quot;center&quot;&gt;&lt;span style=&quot;font-size:13px;color:#666666;font-family:Helvetica; line-height: normal;&quot;&gt;folder&lt;/span&gt;&lt;/div&gt;&lt;/div&gt;" style="shape=rect;shadow=0;strokeWidth=2;opacity=100.0;html=1;nl2Br=0;verticalAlign=middle;align=center;spacingLeft=1.2987013;spacingRight=0;whiteSpace=wrap;gliffyId=79;" parent="2" vertex="1">
          <mxGeometry x="850" y="163" width="50" height="15" as="geometry" />
        </mxCell>
        <mxCell id="10" style="shape=rect;shadow=0;strokeWidth=2;opacity=100.0;gliffyId=86;" parent="2" vertex="1">
          <mxGeometry x="910" y="163" width="110" height="15" as="geometry" />
        </mxCell>
        <mxCell id="11" value="&lt;div style=&#39;width: 118.406px;height:auto;word-break: break-word;&#39;&gt;&lt;div align=&quot;center&quot;&gt;&lt;span style=&quot;font-size:14px;font-family:Arial; line-height: 0;&quot;&gt;&lt;span style=&quot; line-height: normal;&quot;&gt;data visualization&lt;/span&gt;&lt;/span&gt;&lt;/div&gt;&lt;/div&gt;" style="shape=rect;shadow=0;strokeWidth=2;opacity=100.0;html=1;nl2Br=0;verticalLabelPosition=top;verticalAlign=bottom;align=center;spacingLeft=2.0;spacingRight=0;gliffyId=94;" parent="2" vertex="1">
          <mxGeometry x="646" y="150.5" width="194" height="100" as="geometry" />
        </mxCell>
        <mxCell id="12" value="&lt;div style=&#39;width: 115.073px;height:auto;word-break: break-word;&#39;&gt;&lt;div align=&quot;left&quot;&gt;&lt;span style=&quot;font-size:13px;color:#555555;font-family:Helvetica; line-height: normal;&quot;&gt;Connection status&lt;/span&gt;&lt;/div&gt;&lt;/div&gt;" style="shape=rect;shadow=0;strokeWidth=2;opacity=100.0;html=1;nl2Br=0;verticalLabelPosition=top;verticalAlign=bottom;align=left;spacingLeft=2.0;spacingRight=0;gliffyId=96;" parent="2" vertex="1">
          <mxGeometry x="850" y="220.5" width="170" height="30" as="geometry" />
        </mxCell>
        <mxCell id="13" value="&lt;div style=&#39;width: 67.7917px;height:auto;word-break: break-word;&#39;&gt;&lt;div align=&quot;center&quot;&gt;&lt;span style=&quot;font-size:14px;font-weight:bold;font-family:Arial;text-decoration:none; line-height: 0;&quot;&gt;&lt;span style=&quot;text-decoration:none; line-height: normal;&quot;&gt;Ethernet&lt;/span&gt;&lt;/span&gt;&lt;/div&gt;&lt;/div&gt;" style="shape=mxgraph.networks.hub;shadow=0;strokeWidth=1;opacity=100.0;html=1;nl2Br=0;verticalLabelPosition=bottom;verticalAlign=top;align=center;spacingLeft=2.0;spacingRight=0;gliffyId=100;" parent="2" vertex="1">
          <mxGeometry x="210" y="160" width="103" height="36" as="geometry" />
        </mxCell>
        <mxCell id="14" style="shape=filledEdge;strokeWidth=2;fillColor=none;startArrow=none;startFill=0;startSize=6;endArrow=none;endFill=0;endSize=6;gliffyId=105;exitX=1.0;exitY=0.5;exitPerimeter=0;entryX=0.15;entryY=0.5;entryPerimeter=0;edgeStyle=orthogonalEdgeStyle;entryDx=0;entryDy=0;" parent="2" source="13" target="5" edge="1">
          <mxGeometry width="100" height="100" relative="1" as="geometry">
            <Array as="points">
              <mxPoint x="409" y="178" />
            </Array>
          </mxGeometry>
        </mxCell>
        <mxCell id="15" style="shape=filledEdge;strokeWidth=2;fillColor=none;startArrow=none;startFill=0;startSize=6;endArrow=none;endFill=0;endSize=6;gliffyId=106;entryX=0.0;entryY=0.5;entryPerimeter=0;edgeStyle=orthogonalEdgeStyle;" parent="2" target="13" edge="1">
          <mxGeometry width="100" height="100" relative="1" as="geometry">
            <mxPoint x="150" y="347" as="sourcePoint" />
            <Array as="points">
              <mxPoint x="165" y="347" />
              <mxPoint x="165" y="178" />
            </Array>
          </mxGeometry>
        </mxCell>
        <mxCell id="16" style="shape=filledEdge;strokeWidth=2;fillColor=none;startArrow=none;startFill=0;startSize=6;endArrow=none;endFill=0;endSize=6;gliffyId=113;exitX=0.85;exitY=0.5;exitPerimeter=0;entryX=0.0;entryY=0.5;entryPerimeter=0;edgeStyle=orthogonalEdgeStyle;exitDx=0;exitDy=0;" parent="2" source="5" target="7" edge="1">
          <mxGeometry width="100" height="100" relative="1" as="geometry">
            <Array as="points">
              <mxPoint x="630" y="173" />
            </Array>
          </mxGeometry>
        </mxCell>
        <mxCell id="17" value="&lt;div style=&#39;width: 130.3915px;height:auto;word-break: break-word;&#39;&gt;&lt;div align=&quot;center&quot;&gt;&lt;span style=&quot;font-size:12px;font-family:Arial; line-height: 0;&quot;&gt;&lt;span style=&quot; line-height: 0;&quot;&gt;&lt;span style=&quot;font-size:14px;font-weight:bold; line-height: normal;&quot;&gt;Port&lt;/span&gt;&lt;br /&gt;&lt;/span&gt;&lt;/span&gt;&lt;/div&gt;&lt;/div&gt;" style="text;html=1;nl2Br=0;html=1;nl2Br=0;verticalAlign=middle;align=center;spacingLeft=0.0;spacingRight=0;whiteSpace=wrap;gliffyId=115;" parent="2" vertex="1">
          <mxGeometry x="635.6957397460938" y="268.5" width="133.39149475097656" height="16" as="geometry" />
        </mxCell>
        <mxCell id="18" value="&lt;div style=&#39;width: 67.7917px;height:auto;word-break: break-word;&#39;&gt;&lt;div align=&quot;center&quot;&gt;&lt;span style=&quot;font-size:14px;font-weight:bold;font-family:Arial;text-decoration:none; line-height: 0;&quot;&gt;&lt;span style=&quot;text-decoration:none; line-height: normal;&quot;&gt;Ethernet&lt;/span&gt;&lt;/span&gt;&lt;/div&gt;&lt;/div&gt;" style="shape=mxgraph.networks.hub;shadow=0;strokeWidth=1;opacity=100.0;html=1;nl2Br=0;verticalLabelPosition=bottom;verticalAlign=top;align=center;spacingLeft=2.0;spacingRight=0;gliffyId=120;" parent="2" vertex="1">
          <mxGeometry x="210" y="379" width="103" height="36" as="geometry" />
        </mxCell>
        <mxCell id="19" style="shape=filledEdge;strokeWidth=2;fillColor=none;startArrow=none;startFill=0;startSize=6;endArrow=none;endFill=0;endSize=6;gliffyId=124;entryX=0.0;entryY=0.5;entryPerimeter=0;edgeStyle=orthogonalEdgeStyle;exitX=0.995;exitY=0.446;exitDx=0;exitDy=0;exitPerimeter=0;" parent="2" source="6" target="18" edge="1">
          <mxGeometry width="100" height="100" relative="1" as="geometry">
            <Array as="points">
              <mxPoint x="186" y="346" />
              <mxPoint x="186" y="397" />
            </Array>
            <mxPoint x="149" y="348" as="sourcePoint" />
          </mxGeometry>
        </mxCell>
        <mxCell id="20" value="&lt;div style=&#39;width: 67.7917px;height:auto;word-break: break-word;&#39;&gt;&lt;div align=&quot;center&quot;&gt;&lt;span style=&quot;font-size:14px;font-weight:bold;font-family:Arial;text-decoration:none; line-height: 0;&quot;&gt;&lt;span style=&quot;text-decoration:none; line-height: normal;&quot;&gt;Ethernet&lt;/span&gt;&lt;/span&gt;&lt;/div&gt;&lt;/div&gt;" style="shape=mxgraph.networks.hub;shadow=0;strokeWidth=1;opacity=100.0;html=1;nl2Br=0;verticalLabelPosition=bottom;verticalAlign=top;align=center;spacingLeft=2.0;spacingRight=0;gliffyId=125;" parent="2" vertex="1">
          <mxGeometry x="210" y="540" width="103" height="36" as="geometry" />
        </mxCell>
        <mxCell id="21" style="shape=filledEdge;strokeWidth=2;fillColor=none;startArrow=none;startFill=0;startSize=6;endArrow=none;endFill=0;endSize=6;gliffyId=127;entryX=1.1102230246251565E-16;entryY=0.2928932309150696;entryPerimeter=0;edgeStyle=orthogonalEdgeStyle;" parent="2" target="20" edge="1">
          <mxGeometry width="100" height="100" relative="1" as="geometry">
            <Array as="points">
              <mxPoint x="165" y="347" />
              <mxPoint x="165" y="551" />
            </Array>
            <mxPoint x="151" y="347" as="sourcePoint" />
          </mxGeometry>
        </mxCell>
        <mxCell id="22" style="shape=image;image=data:image/png,iVBORw0KGgoAAAANSUhEUgAAAWcAAAGeCAYAAABIJcBcAAAAAXNSR0IArs4c6QAAAARnQU1BAACxjwv8YQUAAAAJcEhZcwAADsMAAA7DAcdvqGQAAAAhdEVYdENyZWF0aW9uIFRpbWUAMjAyMDoxMToxMiAxNTo0NjowMkCKqoIAAGTXSURBVHhe7b0JeBzXde9Zhca+7xsXEMQOEGtjJQG1RAIkLG6STFi27Fh+mYzeN+97mTfJy/a9TXHsLI53W3Zs2fESO5lkovdNkmd7lMhxwtiRJduSrcWyJGqjVlLcFxAbgZ7/v1DFNMHurqruqu7q7vP7eHgL1VW3bm3nnjr33nMVQRAEQRAEQRAEQRAEQRAEQRAEQRAEQRAEQRAEQRAEQRAEQRAEQRAEQRAEQRAEQRAEQRAEQRAEQRAEQRAEQRAEQRAEQRAEQRAEQRAEQRAEQRAEQRAEQRAEQRAEQRAEIVPZ2THdqC8KgiAIyaZUKf4okrOQy5B5Xa6EyMKGv/k7t70EuQB5u0Qp+N3ehrYpLAuCIAjxUKkU/RGSi5AlyFXIagzC/VYgzIOK+8326u3vQKoxPj5eoC8KgiAI4egob+5F8jSEVjIV6TLkqqqqQScEeVFZU1EvQmhVn6hRin8r0O6vxrIgCIJgsLNjZwnT3tr2PUiolK9ZyeEUrFPC/CGGoj65b2iqAaky7Z8uYyoIgpCx9Nb2bq9UCv8bFs9B6Dd2zEq2IziuoaTPVSkFv4tUEAQhc6lRiz+NJGlKOVRQhjWWA0LL/QRESFFUPRUEwT6vQOjnzYVizNHWeIhgMGg0Pp6GbOEqiJAiZOmpIAj2OAmhfzffi4qZoFzZSFi2mtrc0q9wFdcLqYEoZ0GwwUB1awAJu8VVQPnRYvZpP3gUlC+L5Xx7+eJ78eeZ9bWCIAhpxFBDz14kHBSSdN9yLIJys8Hw/Hhb/6Z7lXvFMBMEIfWpUoo+iMQTjX7xCMpPBX2RChqpIAhCanJk/EiB3neZitmxPsvMy46EyyNWQX6aBQ0RPIw0EAiCOXRlsOEvLv9yMBhkN7dQxcy/Cd/DcO9i6Dq6ITRBOeJ2Seg9OTi6sFJbIQiCkGK8DVkOtTztCvanIr42iq+lpn0WqYGhmM2EsEsch4M7MvoQ+y9XqMWfQSoIgpAazA5M1jTmlHwEi1SEa+GUm5lwP4ihlE+11nSyQTEeNEU9uKXvIFIOEaerZSXcsa0I9mWlsdhT13rwgP9AIZYFQRC8zcGx3XVIGLIzJusU+9Gy1SxliNOEWtTsHsfASvGUk+4NQRCElOAUJCarlPtBLrTXt18L6ekGvzo7m8e0Sin+FBK6O3hc20qa+9Xmln0NqSAIgqd5DrIUTpFFkunpacMKXSrzlX2emSQQwyfNgPyxKmha38cggkcwbqogCP8GrVBbo//0nhhUjK9DWrkuSdDNwfClPpTfcq8Ovfx0wxTzT64TkouMEhKE63kZkh2LYt6xue09SONRzIYfOR6qqtSibyBd1ctlCV2RZw9v7bhjfY0gCIJH2D++m6PmaDXbGgWI7ekSeA1iiXv891wXKGmkcXDP2Na+d9b6yr5e6yv92mjzwNxwo9Yjw1DUsShtDjKx5TPH9tI4KAiCJzkOsdWnGduvVOeV2mpM89f13IyEfZbZG4SuBHbX06ay0oXuEf7N39hd7lKVYr0/8t2Bu/MP+AMMZWo7Dgi253Ff3Nu9VwanCILgCWiZ2lJm2Jb9hGlpW7Zqb9o+dDsSzTqHmDbccRtdqLANq9bK8dSJ5v79SKngLTcQclsIj2PXUhcEQXCe0eZOKjJbPTSw/XKtr4yzoJgqsvesW7KcxopWcjx9kqlsaXVbhf2sLX8NYFsqZ1rropwFQfAE7Ndsx2qmJWspPvJEYxcDJ9GFEfNovlBhPszvgH/XVqRR6W3o9CPhaELLx8a2y8Obet7J/QVBEJLGeOsAA+jbijqHbWnBmjLR2GsoZkdDjTI/PV9T9NGOls8P2zHv81Od6zN5C4IgJIWGnOKPIrH76R/VL3vPgQOFu5r62fDnuGI2BPle80PPzc1F6/rHcrIctiqf4U2975jVRyEKgiAklH1DmnVI94Qtl0ZDTsV9SM38svQxO+LKiCTMH0K3RTRYTnats+u2sdw9UBAEwQ04J6AlxYXtaDUvHhnfH20mEfWXpw81IrXVUyJW0Y8TraJQq5UCu18HmmuD+0IEQRASDpUPu7ZZ9sfW5pZ+Vd8vLLpitqzw4xUeB0Lr2UyRWnZtYDvmKV3qkogM3xYEewpoddum5geQUoGF5aEffP+/Iol75hSr6McpODg6tW19TXiqlPyvILE6pJvXRBSzIAjJ4cjMwWYklt0P+rZmSovR4RJiNRuC49FHzO6AEfFv6ZxBYulcuQ2ElrYo6CQhlrOQ0fh8Pr4D0EfmEdyCgMn6X1HJhiRaqbH8BeuL4XnstWcfQmI5GBIQxZxERDkLGc2JN98aQWJVCVlVzslSalaOa6X8BqKck4goZyGTUZ9+6mkOEnH6PfCyUrOlnGf6ZqL6sQX3EOUsZDLBM8H5OX3ZEfaPj0frYuc2TlvOQhIR5SykM3850jlSpS9HwtHP/AUOkk4e4oZII0Q5C+kIZzNhP+NbKgvzc7U1Eaj2Ff0VEksKmq2G+mJEvvfEI2/oi17FlgLP8V2104AoOIgoZyFdUAc3d88iZTc2DgJhz4Xi0+cvtCCNSFt754NI0qUHA8tmVj5551MEuVFCOsBJVS/+9PVn/gZpEQxcTs7K7mzZubn5ZdP+6TJuFI7a2uqfIXG6BwPzS4ZvN+oxb+maaEJi550Pfuen/8TZYQRBECyhWYjj67OKcKAEp1a6YWAF1nEI8pnJ1skapJFgXk4PQmHAo2QMQokaX9rf1HUbEksTCmA7CbqfZMRyFlKRFyAXH3np8b9EymHSOZAbnmWs47DmPDVvMX99jSNkjW3re5e+HJaBTV13IblqZ/breNAHx6zu7NjZu74mLOrLr77CmbXtDClnvkKSEOUseB59slJlpLnvABL6lLdACqB86b4we4az1oJ5ZtafHSWU9dLrLx1CGjHPysKyJ5EwmFKiGtPWytWCbzz83MNv6X+HI3g2uHAnUjvvPMsvCloQhBsZbNwxgYRxhdn7gi4FW+4CbG82ASt/sx2Ifv/wnu3c2QTL0e5iFeYP4byEZhUQ5xK0M1WVFjL0lsFb6KcWkoBYzoKnuFe5N2tu5NZ6LKqB7tEjP33z6e9imX+zoS8PYjfSmxWrmb5Vplbx/egnj/w2UrO8OZs3laeb0Lq1Uv5iiF2r+cyVFZUVoiAImc7w1oGdSNj7grGEY56p2hDsb9qA11vf/g4klmfexrZUuGYWuQED1rsyGwryvVrmK/6mdpTosJx25hDUGgNnJ2drAoEAe70IgpBpcO67d+/UgtOre4en6BOli4E9DxxxByCfJTMXxO5+bci1LRcEtrXiSlB27xjj5Kr0kzuqoJEf3Q60zE0Za+nhdbUzCwqvP90ggiBkKOpE28hNSN+EUNGE7RIXjyA/KjH6q80Uqa2ZS7gtZF7vOxwVXUGze13c58f9IVSe2sSuZpQpOb+PxHJXQQq2XTo8tZeNroIgZAqwlHPfG7h9MxbVQzv3vhcpLVbHLOVwgrzNXBvqWFsfu5lZdm1QsP1KuZL/Ze7PTCzA3hQxnS+3h7BC4LlE7c+8AbuVjubSgFg9J0EQ0gB113b/JFLGn3DFUg4nOMZKg6/sc0jDKpx7772XDWX8zVavDQq2j0WR0Q9NtwiVLYUK0RA2xIX+TeE2SwVK0f1ILR+ru2obu/zZrXB4LJk7UBAyAPXI7iObqAD/43vu6cTfVMquWsobhceCRFU4s6MBWvNvQ2z5hrH91arsEgZPsszOjp2NBUrex7BIXzQrBFrTFFrFoULFT7nQWt3JPt6WFOY9/ntyZge0UZGWGwENwfbLpeszdYtyFoQ0Rn3vvtsbkDI+g9H7IqHDmik4JpVzVAv3nrl7jPgbthoGKdielQ1nv44FrUyjvaOb2xt6dnXVd9000TXRtKvbv1X/LVYlacudQeH2EFr1giCkKSot5V9ft5SN3hcJV8qhguNH7V1xb+Bebd6/ciX/T5Da7lmBfZZGt/X8EvNKNjV5Jf83ErtfAKzAFodbhqUhUBDSEPWuPXdsb/CV0L9L90VSLOVwwnJA6EaIqKDfN/O+IiT8PRbrea25bvP3kcZqQTtFTP2qsY/haxYEIY3QLGW9YY0vuOZThqyFUwTJEpRneWxrzzuRRsJQ3OzaZ7lfcKhgP5670f84VpeEXdRDgzvZVzym/tTYR3P75CuFvxUtvKogCKmF2pBTRlcA3RfsfeEJSzmcsGwQ+mIjYoyIq1Dz/xSJbUVHwX48zmLZuovEVXqru26qVPLZi4MNiLavPfahYl7qqG1hzw5BEFKcSJZywnpgxCooo6WRfdP+XWyQs+3eMIT7QXhdrrkKAt0BxgiJG70nhrJ/fWRjXL1f9H3t9JsWBMGLHB7bt21TbsV9WExa74t4hOXVy25KoeL7BBKeY8zuGezL4zGPyxVK4aeRxsVQQ89eWMq0yKmUY7KWDcG+rEDm+7b31SIVBCFFobVJYYOT5r6AeN5SDico90q1Uvh5pKYWdJGS+wUkMfmfQwV5UBHyui1UqEVfGWzsOYhly/TXte1HwiHgVMgxW8qGYH8OdlnqqGq1VQ4hcSSqwUJIbR6HbIMUQrLxctsN2+kp9BlKqCh5PlRUZlApFuO8447Qps9aYowC5LJx/NDljfA95TX3OXXtUQxWruxZwrgfggeReM5COAwrmULFtANSCuF0UCmtmAnOgc+9b3RLJ/slmxooI50jrUgWdIUWFzg2oZLlLC6MT81ptjiNVjThdtzeScVM144oZg8jylm4gaa86o8goVXFUXW0GDWlDEmb54Xn9KPXnmWPDNPQmLfeeSsrKFZOV5xQ0OFAeUhWJNE3iwuUfU0vP3usVGorI8BJD/TF/6CngiAkmsOBw+VIDEv5NCSlfcpWhecHsdR7gz1T/Nv97AOshf4Ml5+XBWXWzjVfyf8MUjPU3W1aTxBelxPtVS2HxzePF2i/CILgPgzfyXRbYd0nkVxrbAr3cqer4HxZCS3s2q7FsogKJwZgWqIUsF8xK7CUqLxQTu0cW9cb/0wroontE7X5isKeKvxyYuUVtW+4IAgOcXfgbvoxCV9UzRKEpL2lHEn0c2efZjvQHULl5emuhCgfe3bMt1S0zCK1g3ZuEFrcrLRDXR1CApCLnUHog0aUV04+M42EAw/4ApbgJU47n7IdeO5I+BVhDLs2ZWzHWB8SfuprDYX052o/eATDv1yWXcwgSEWb+4Z+sP6LJdhYGPpMsJfKpQd3PFhjfD0IguAAIZYyYcxibfACJCMt5UiC67FSpub+GVJLhFiS9NOzoou7/3G8wuPr5eA9jmUeQCrmG1xbXAc5N7R1iCFgBUGIB8OnfFPHGOMmsPeFIwMY0ll4faCgv4GUmPpnQ8lRcjlyLylKmsfTj7uQp+RzJKLlsodYw/Qth21zwHrDvWHrmgiCEMIB/wEOriB8kei+0IZZQ0QpWxBcJyo5BnK6FgjJKiOdI1VIaEnTh+3qdWe+ev48DisFfhURywr0UMfOEn2RFnNU/zl+X6nILv06UlHQCUB8zmmEYQGdu3BiDxKjnzK7f2W0T9kuuE5UyHmQhSuvnKrWVlrkx8/+mJUh9ylsqWg6jFSbbED3S6/qvmBNsN4SoftAmAeFFchioZJ/f09DD7+MWCEbMTKoSE2Z3j5dduzN41NYZEVSwGdE+yECvC7nrl58T7lS8Mf6KkEQonFk/IjRB5UWzSmIWMoOiH4NWcHFRXvZ9t1IqLSN+QKZJ4X3SXOBRBAeX4vHAeG+bLCkhXuuTKn4g31D+5zw/zJvyz1OsC3LxXMQ69llxJJKYYxP7jdPvTKDxLCUOaBEi38BkfsbB7yGSHIgVJCWe3JspH+T/weBpv4WLHKmFVq4lIKeho5DhUrOl7BMZUd/riGaMs5X8r9UopR8fKpnqh1/c99iSMnYjt2dwyNDH//7x//+LfxtixA3DV0vrBxsDcnXn6ns3vrWI+trBEHYCC0XiviUXRZeV8jKSHPvXUhT1mKc7tZiVKvlvoI/RxpzoyX3g7BCEVxEPk1SkImtvXt++OpTf4lFNubQEsI7I1aymwQBElaAa6VK6RcvKhf/k/ZDakFrmdZ33JEFcTl4LTgtli2fvGAdeaFTB81SrleL74Ni/jaWKyDS0Jc4qJy1dEFZodsh1eBI0GuNw9qa+OAzR+NADDyXkJfa+6jvmzrYjPQE5MqJ4OV/j1SUcgKBlajFX26p3fwupAUrysLvaD94nP7Kzr1IjAEyWjxqp54ZPR8qeSp9wQWk1vMmofeFo7wYrlLcFwlGV8qGO4MNgqnwCc9nh2Vmrx3X3V64Rst9NR13NZY1P/TgCw9KgCQh7fk5hNNByYi+JAivt37dF32K+jmkSn9TwAir6klGG3oMK5mVCC3lhEQXxHGMiksQ0hb1rj37tyNll7iMjhKXTOE1h7D3y5nOrZ2ejyNRpZR8GAktVlbkSXlmcExeL/kKF9KPrTlVfMEM32BGxVP2kuDaUzEvTnQNNiH1BNP+6bJypZizkbwOYbdJ+nhZgfPLigNStG6U4c4nUcLjQ+Z3dZvHxBaElODw8N4tSBgPQfopJ1F43fXrv5in5HwIqWcY3DzI+QvZGGw8I6HimecFZaEbSBoHHUQ+RZKDcd35MHPkl2PzxAn2CAaDVMyUS8M9w4M/+flPXtN+8BYsUz2eEWN0n+fQG09ZYTA8LZW1ECeiEBLMFl/VB5EYQ62L+MKJYk48UCZEc2Ps8u9qQ1rtUcWslCm5n0XiuYD+oejPcFa5kvtF/qmtFOJCLqLLMHzntx77ljHUlX7DGgj7h+J5FqWcDHSlTLncWdFy4NlzL/5Q+8HbMI5GNSvz9T+9h155iPXsEKIcXOanP3uUAxbY2EcFXYeXKxciA0iSAJUHhMpjsa1+++1Iq1JEMRP2HGHoUVYqnkR/pml4sLFSDL84EQXhMLOts4wDbPDqG6unfhMph83mednqSXd0pUbFfGZP50jTsRMvfUf7IbVglznPujZ0qFNCQ9gqfr+fkf0Em4hydpifvPDIbyDh6Cx2zK+H0FIWv3KS0K1lKual2dEAw3bW/+N6QPxUhM/TssetZypkWs/sXXKht7H70PJbV27ib4I9RGE4y1OnlfP/BSlHk+XjOWUMDLnGSUJXYpRLfQ3d+4qzalJVKV+jRMn7OBIqaK83DvIrsfCpN5954Kk3f8FAXXTrnStS8v64b1M3Jx/QCPQHyjd8bQo64heKH17DD0DovmAnfCplJ6J+CTGiKy7KcveWjvc889pzf6f9kCZMtPXv/+GxJ/4nnrOUUWr6PWEjYWi/8oVSpeQreVk5r59aO8seKUKaQeUYKhE5PHWYgz5Mt7NLd0M3lfI/Q9hveRkvTdiO+iLuC64/X3p+UhuTnaYr9D8ndWRgPIKyU0Fz4Arv1Xy5Uvyx0dbRzVhWAutxTDIeR5VUAmB5g1Nt46PHj7+w79Xl0/8Of3MQBz+h+CkVTvHyQTAsKS7zgTi/vWjT/S/Nv8Ep5LnOEQ6O7a77X49+7xdYZEBz6ZGRQEKsZfYfZwOsY/fVa8z0zdQ+9ORD/4pFGgUp356h3ztWqlpPGsgbkD6I4EUOHDhQeHDsYB0WNYX7/tnbWrbmVdHfZjS2scalojVuqiGGn9GQjb9zH2PSTM7k8PLO7f5bkRqKfaNyjwWG+eSEnClr2aSK4BobFhjv51t7RvZUIc0U+HWQNrFYcC7X7mWlWnIfUmWkcyST7ud1OKGInIZlCu7u3DXzvWf/9fNY5owf9K3ROqYvV7OQQdzWQoi1xYfCSJfrfZVf2ty8/a9+8sJPfoq/Y8G4rgxMIz5oF8C948us3b9KX+GXhgYGP7KiZF85+thR9inPJGgEsJtm2jxj+ntpGFasgLZBhGQQOrX/Zl/lHyI1Bm1cC50JWWPt6pYwf/04PB4/rc70b9qxH6nG7OgsA97bQa1Wiv4IKa18iTTnoOB68j7RwpqvUEp+F2km8yYkLds5cF68z/xC5teyMrl1koaakAjm5ua02n5i6+AeJK9ADHeFppDD3bBEiV4GKmlaJmfqldJ7kcYKu3CJgo5TcA2NypOVNpVSxrN/UlNYfEbTNqIhzk1zQxYo6u8jzRiS6dYwjs14E9pkpRDPRWfTP7EMxcBhqXXTO6cb8yvzz3/rW9diZliBwY44j5uMlooB/T4YivklSD9EAOVK3ifOK0v/MZ2fLdx/42upkH9yXbqTTEXIFlkqt1qINrTZa4qZsEwQ9rzIxZ+VkKXvPvzdnx9/7EW/toF1uO8lPGRUMIJFqJT1a7Zck1PyUaQlgUBgTPtR0IBi/nUkno67ES98B5Gw8uHXLBvc056EW85TLQOHv//iz76JRUauSsk4xoayCHSM9Rx97tHjXKX9YA2xoC2iKxtea362Pww5CBHC8wKE/fjTOlSA/kxQ0j7yXcJu4lBdF62dN6GY/wppAR6glH2IWHYkeVDMzyO1OySYFvRFXcELYcC1obXMT9jF3k3tWvS4ubm527QfhUi0Vir5X0aaUOtZv1eWRN8lLvDu0YKmLJQqeR/L5K52TkDrnKKNnoOkVcMFzodK5MrI5h23H9o53Yhlq9CClkbCDYJrwkpLG4hQoZTeiVSwyK0jAQZGSkjjII7B+8TGe94r9jE3hK5KCstB4bLxm9bYHy4/OzI9Pa0dv7aogsPyoVvuTdsvBbd5FsIblLaKCOdGa4UPHgOi24ENjKKgIbgOmqsIcrlSKflPSAWbTPZqPTfY7cyVZwr5Gm4m3qcLbdXbOXjLMj11nQeQcOCXIz2ysD8No0tempDXSVytcW4ZGLkLSTNEC5uprUxDcG68jjy/qvrski9pKy0AS7sbySI++RL6Keol9E9evqh80U70buqcPqtc4rB6wSbFm4qvtJVveycWF/Rr6gj6PaJCppV8qUAp+iTSsmOn7cXE/vnJZ7+FpKy7sXsOqWawxVNOXafkP3fsGMcTCDZgF7klo5bLFME58yE+Ne33M76DFejy4Sdf2vZTjSQ8ZwivF0dSCg4x3j3Odg1HninmAVne0djyLqRuQEuaFXPMZdX3PzPSNEK3jhCN+lzNeuRLl3EKh6Kfu9WoaFTOdIfwU8/VUZBeEpwrLSYqkBOVWWUMYCU4C9t44vLvcn9ILO46WxQpRdQXPE5M+oL7QWjVK/eK/zkiVDTsv5zxYTN5DSCndnbsLEFqyszABD/10v664RwNa/lc96Z2Lei6vFDOMu2fLhvd1nsYizE/T9iXipkjdhOC7o9mA2JMFQr3gzCMqhAGdZ9/8j1IY64B001wHaiE7Ey3z8/7tLx2PC8IPz9pLb8KEVyCcWCOTM5ylveYlDP2o6K7NLZjjFEhE4YeUZAVQqwKenlmdKo5EAiwD7Sgo25Wy/4AKT8tEqpceDxd+EBFEmObhCs+HHOxIaf0Y0hNmekb5iCLhF9Dt4XnA7Hj6hHiYPe6UmVXTdtKjvtAEmYxhzI3N5er+8tjUtDcR99X2ABbX+PycVkVHMdQxnzhqcx4bN4UWp78tKFwmcL1Rn9LiiPdeKwKjwNZbMgt/W2kZtAtlDb9n3EePHfDWn7eRiOpED+2GwSxvabcAt3WGtbu8d9jjHLlc0tR/E3+Wxt8lR8f3dpvRHQ0ftN+t8K+oakGJDEZKdiH77dqBFXLWHhz/Ju7R7HoukJB/oZC5svOG3euylf+idGO0VuwbIb2cBycOti8q234DixTefPhZV6uK2r9GBf3jQWixqX9tSPXQqeyEklp6xnl5zlrvuWu2uZpTuSJZSEBVCg57Ipo633E9poRwf2tsr9/9yYkHCHLd4n7Uqgced+Z8m/+Rjkz1TlEpWsVNmja1inY52pVdvFfIrVcGaQlt637iE5AXG3IQv6G9UWl+rq/2T+DlMR7A9gKTeualjUfKNcUIvJeqc8t5fBaK7h+Td0SlNuwlvliMgyskHj4PNu1mnnPTN1Ot43cZgyX5ra8x9wv4rH4my7c7sq0fxen1jJFt95tNxBiex5Ls555rKmeqS0ZObt3va/0I0hc68uMvA3r62xfQ88+pG6gWdVVSjE71tNijfqwxSPIlw/NUxArsCJKKfcGyssXQ7OWIUIS6K5tOYTEVsWO7fme8evXDLwnBR9GGtN7gu15HL4DHBlrFVYAsRyHz+FCqZJ/P1KiZkSvoLnuudzxrb3TWKQ167giY54QXlzWnC9DEoE6tKmfLhLOwsLzctx/jjx5XpYaLN49rcXpoFWfED9+PIIyMqgNX1a+SK9PDkyyp4CQHPj82rU2ed+sQsUc8zOJfTUruia3hK4HK9BIiel42E87FmSxXCn46sHRGY5W1gh0B+on+mZq+/pmOEF02uHK7B7Ik7XeQqVayslclQP+A9VME8mRqYO8iVSMjlvRyI+VjqXudb986x2MGbAYLh+vCMpnvADnZkcD2tT2QlJh5W/5meW2EBojUV2EA7WddCXadjNEEuTDZ4aKNyr9TZ2MSkhrO+b3kPtCDGuaFRHPd75Ayf1i/6bOa1PRpQu8kbY/N8wE+fGGXdqxacCYDTvZMIiMG+e5sLWw4jeP/FsDYCR4DWz7DxMhLBNEs0ogHKoveANbjcnYlveQ/mOz983RRn/kxednif2SmbkJdIM49gWJvHhsQ2FT8V/oamhnSFov6JzYOTK+ny20MfWhjCTIy3jRvearVO+cva0FqaNuDuYFsToHHmd98JTvGeUxrBC7sawF97HlasS2i9Pd0RvpBurb34HE8bYl5MnnaHGgoZ2jGSOih+KNy3qOJswXYljVrNxo0R/vqtrOuU1TA7oYNueUfgKLjvUkQF7GhdFm2I0R1nihYrBx3cbfrcDt6YZw1IJGXleGtvXsRRqVsZb+m5HYsobcEpYBwkqU5UlUW4BgD8vPKbeD0A1i9k4wOJFjxkmoMF8Ivw7NsFXpxCo8BoRl4nPOY77VWdl63XtKf/VIp9ZTzVPwJjrWSIV8NMVcl1/5BaS22bl1kOER+cnDm0uh0ggnxu/nqxVtJCOxo6TVO2+5ZkE78oAgHz4A5yd3jPUhjYZaqxZ+BmlSrWccX7OWK335X2SZIILH6N/SSSVi2cLFtlcrlcI/QRrxflarpZy30bVuncibOoAVitkzxfc44QYKjqlZ9/rxWZHRqj5bppSw14p3ODKjNZQ59nmDvGgxW/q8PzJ+pOCOwVvZQKZONWtKmZUEP3V48XiDrQi35T6XqxVrQ6pD4MPD+QId+7xiXlsKqn7vvbPvLcVyRH5p+gA/O1kxJDxqHY7J62ZYEZz1WvAoI0072HhmWZFy26HGHgYcikbc0e3MBPnznTJTzjSuEq6cDcGx2SMpVI9Qd/GdONNT1eqJuS0d8zUjH77whs/SqiXGhifWXppSDpevFcG+vMDGxbUVhGey238EiSMKGnnwJltpjOHvCX84cTzjIYzH5SQkDr5Plt8LbLsU6BiLOmoVuN6dE/kvHTRvGEyqcg4nLA/EeEdoXVOfXMxXcj7bXdMyi2X3Yb/mse072IPCEasZ+WiNf4xCFQgErMyQor5jYJyzqsSllDcK8jKU9Bl9PL+VSoLbONKNEHmwNubnkhUcbbGOJjgOr4vmW67yaW0MQmpgS5FiWysWK40ht5XzykTbACNaRsNzynmjsHwQKmu+O1TWF4uUHA7Ucx1aT3HfJOTBE7CqkAx4bDdHImqKqFbRRjya4uREmsiDx2aDY8SX5D2BA9WbcsrZ79v1Id04hlFhGSPGrFRYgjewNWAD23pFOV+tyy37BtJoZfG8ct4oLC+E7xL1Hd1DD2+p6rA8CbSd4YwcSePEi8oCWwodefvETC0SWoyMZubaHIS4kMw7723l4v+F9DltZRS+8+OjJ2/uGX4/Fnku8cJ7wIk5I9J+s//s1NTUH2ORc67xpjuOPk9cqBuDoRuJK8cTXCFl79Xq2qoT75KngF7JgjByH2N7FEK256ytsJJxjjsD++iXinukGvLgy8/hpabowcKpmBPWSwHH4gOyWKMWfRCpGayoHGlBRh5LTUVVv8tMo7GpoOIrSBy1YpAfz5n3hVYU+1QLqYutNiFsu7SvP3qkRJAQt4Z/UzfbcqKRcpZzqKDsy9DSRk8xS1iynP/lhz/6DSROxEddGWzsulNfjsoDP3iQFmwhTsw1i3kjOBavR86p4PxvDG3pmlpfGxV+qjhiPR+fP/O/6csRaW1u/X+QOGZh0FpGQsW8WO0rZ+CnhM58IThLhZL7TSRUBJbJzcs1+xpOhEUbfOyNZx7Ql9OV4Oaihn/Slx2Fvqy4ai3uD2GDRcSHgfGhJ+p7RrBI69p1/2okwbHpB7bkegFxt2Zzf4jV0XZXwuVhV5CPppR3tQ+5NauykGAGNnXZGsmHbVfqcso+r+0cgQql8HNIXPt6Rd7UC/xqMyPVLWf25LCFqeU8vLkzgCQHB7Djnw4HbwIVHgsalvsfu3/lhyd+/jdYLMHxjFkWEg6OTWu9rNZXzKDlUS2LidY+tjLHa13wGLnri6bQ7UyLNyZ03zIrH/qWX/nX5x+nNS6kAXV11T9Dwvtr9fnIWg2usY99xGd8a13zXyNZjueZs4CV98fMwvc6EfVeTIy2jvLGPQuJq+bE/rz4V/ZN7WuINn3Mu3fv5me1I35cJwTlWNxaWPWbLFsU+NDEXWbsv7CrfZiWjxn0Ado+FveBaNZypVLMUV9KoP+wzE6Sfth6FrHtwkxf1D7G6vCWbsaIpnXr+CAo5LncU9PMQWUR2Ts8tQWJ5WHpXhOWGzLfv7mNcYmcYbJ1gI1ytuPDbhTsT0vNymAPHiupw5RDBWWhMuOsJNFqbf5mqwtTOMH+Kw05ZRxKGxF94k7bx8L2fDj4cp0faNTicAvpi63Pf2y7UqkUfYHxIrS9I+O4WwH58f2isRGVal8hXS+e0Qt2hWWHvNVa3Op4nHMn/M2L+8e1+cYiskUtZ1cx1o4JH6IcSVAWrcbbP7lnO9JIqPVq8WeROvF1YfqgArujwDRr+cjeg63cWUh77A5E4XNHazuqAQIFzhlF6ApzREEzHz2/iLANqm9zH2dA8pResCMoN89z0VGrOYS4akzuCzG7+cS1yFfxCMq0XOMr/RTSiOUfbx6gNRpXV0Psb4wWjHqd6lRrUQGxjfHwsyHiGETIDNgd0u6XldYgF2kap5BRvDTUaAXGa6zRYOAxTRvBy5TCuA2fZArKznN1LfxBXP5U7qvnEbVmhniyNZZlglw2s54hVILxPrSLk22aoo/IRNvgTUgiVgT4jeVdaa3d/I9IRSlnGH317YzpYGs0LbanwrU0/gDQiIpJQWMfo+umnZ4L/BLwnF6wKij70pa8GtPQwOGw0gMjqiVnERbSDCeO4zi4wLxG2adPnulcXxMRWqlWzjMavpdffTXqRLb1BdVsoOUDfgPBYFBTzJDz9VWb/xBpG9cLmcOTJ55/EImt3hV4xmkZF/fXbmdUu4jQzYCkrFwp+jOkiziG5ePo22kutq6KtqgNgAb+bV0Mwp+rv4OpyuprS6f+QV92nLhaSbkvhLVfRG5q0SZW9exceSgbFR6n+Y9UgaizfWPvRhpX32zsf7U2p4T9Ss0qqut6bHAZwgd/Xg/gZLxIQuah1ij5dMPZcgVgez4/Ud/TEPh8qoONfQyVyS9ezZKOIvz9Sm+DpmwtUaLk/R6SlO2hQWHZIbw+rhGvcuZN5zDsiEzvGGPEu6QNOjETlI3nwM++iEpzd8cgH9S4gjNhf95MI+BQNK4pZ6SaNQI539OgBVsXMpwDu6aN+N+23ltsvzTY2EYjwzJ9dX27i5SCL2GRSojH3CjzJUpJLJNp0BXquTYoO4Ly832mG8h5r0Cgd5SzKcetnOtzy/8UabQCOjonodPCskFYwUQ7B/4Wb6Og1ZtJ5UxrhHJpoKmLlZsSCNydz1TIePj8UFnabRjk88eGulhirPCYxnNrLIeKHRgWIWUbAQ3BOVBvWJ0r9Aai+nLOnT/PoCg4Tnw+H1+ONu6EhY2E1dFxycTSA2bH1xcBK9eaN11r7Z4dnd30s+O/+A5XHj36dVakgsB3jQrO1rOov+fa6Fj+qYtVeEzjHTeWQ8Uq7MFRhLIkLKaOi6w2ldSbxsyJRFRFkBXMciLYkQJ1ZeXm2K1dEwnLFlcF5TC/mJueY7/J+rF3jFnpGy1kHvzqZYMdrWHLhChoVvQcgJUQAt0jHATDr9OYQzfQMIom+mYJQT/e6vFLJ9hA6zwDWzt2Ion3U/1q7bpbIxqe7i7DsulljFaB8Ld4XUDGcaKyvSyFpmwXkkZfTUvMAziwj9aWYTK020nicmVgX+Nrkue70e/NdRS6Abkd37NrEi6/eAX58lhvQNxhdmCSww3jVTi8GNEaBNVtxTV/gdTrPmd2wI+onO9a7wfthM/50q7uXWzQEQQnYGUf07vF/SB8/0/rlq0bMKwDG//iVcwsp6q3k13HRNdE07R/emuZWvyZYqXg61jF421U3mEVNyXcMc0E+y2ONHW7dc2uxXJg4eO1BqnYItKQU3YfEs82AKBsvGlstIyonKe7tNCb8Xal47U6N6V3hxOEeAj0B8qLFJUTR8Tc8wH78Zmk4looVQoYYkGDeeuLlgnp3qkegLJEyh5QtHZjNsy4L2QxT/H9/kyfNnNSNPj+Gu+wlu7s2NnYUddxC/bnNHA0IukmZGOqocCpuGNpWOX+ruOEco76qT63PvW/a3MExiso20pjbhWHkUZSzmpjdjFr5Lisf+5fnVPyub3je40pogQhbg74tS8xJ95jIxzA2f66Hft3t43bihdx68ittCT5qU8FyHziMsiwv6YEpzrjN2b82/1lI50jVRN9E7WU6cGdoXP9sQKxfO24LYS9rlyHNYCryhlQ6Xl5EMriZNdIND8vy8/aNubrRMH+yzu7xw7dLV3iBOdhl664xxIgD77PtFapsC4XK/mf7WvoiTiqtbe+96ZSJY8TJ7MXBt8RJ4MnLfVv7roNqdvYcu1iW16fk/6G9mru7CZxKR3uCzHrUUDlFlfN7pawTBDXGwMp2H9pZ8sQR0sKghs42n8YefHdoMuDiprvLw056otQ4XoqZM2fGy6fWAR58bhnJ1u1djHX2N+vfR3YMhyx/XKxkvXbgaZAXEaWle5hPFi8RFNsBk7EpnCD1Rq1lOESIxLoGGCsAM60G293u2BleeWL+rIgOA1neV8NgvU/44PPOyQbwvgX+ZACrKZCMqRAX8+ZlHwQR7qjovhU9KwIKn/wwg9ci/hG3jp3fgCJ5XLrXeiu9m7f8dWjx4/SYHMHPdg+rcZ4LcKFkW2RP33Ikd37WUN5ynpmWSCs/c2sZjYkxOtv5rH4wEWtyObm5lJhwI7gTfhsefIL1aqg7LSYo3YwcJJSJYcTH1t+t7kthF8ocWNSIxTzPx6MB42HnB+/8nPODByRB773bTYUsKaJ91hOQoX5FsSsTHkQK18H0QhW+UrZpTAi9EWff+rtdv1PQbDMPQcOFB7ZvZuNXE584SUcWqS6xTwfaPdHC9/rKBeVlQ/oi1ZZK1ayqNDdZbJ3kp9B7IcYt58KeSw25JR9iPlGwTM1O8sAmd8/rln0Ebn3Xi1AuRP+Zuah6vlFg6O23OvcLqQzno5hE0lYZgjdnlZnqHcStpdZfrexbUK60Cn3+P05483anHNx96RAHrzAZhHXqJw5Q3fSI9ShDEv1OZV/pJcpEups/9j7kMbbv5l+KlZKVqxvPiyL9b6SqH5wQQjl4Jg2eXLcRkSiBeVdaSyp+ZuqnKrP8DySgOXeatwOQjdoQrFVe4QT7g8x61KnUaPmU/EkbVAKjs2KxLShYWL7ILvXWb55kYT7Q6woZ/7Om29YEqemB6dD+2MKQiQc+QJOpLC8kPN7h/duOZyEmeKHW3pszfrN7SAJ84cTtU7VJneM+3MIeSwONrYy7rEVtOlwwuXjpuCYWu031Dw0xUJEQa3PLf0yUidcPjzmlZnRmahxDO4OHGaUwIWQ/VYaCsq+MbSlayoQiK/bjpD2UGmkhEuD5YTQ+HCkYS1WOmu3zCBhN0FLsUmwHcud2DK/f/a2FiRxj+BDHiy8WZ9njVtHtKnaE/pA4VhUkotVahlnYbBixcZtNVOQB6/Lid3R/dusJBm0/LrKgH9DtNFIAX/A9U7vQkpifHHF/ay6KSwfhEqZZX350M5DJUjN3kPX6G1o4cwtll2W2Jbv4gvcN5HwAjnir0IePAFLwbx1PxmVuesWNI5BBblY7Ss38zMTdaq9706kjvjGkc/Ckf1HNh05coT9RMOixyII+4JhHctOt8iTEEHYCJ9nT3ahY5kgfH6pFxYKlTzGuFD29+5nZ4RkY9k4xHY8D17jxDK9PjbfkZqXeUAst2jODsyyrzUbEl1pJES+bIzjg3G5Uin/H0hNa+rbRwOMfOWk1cxPoajHvall8BCSiF8v+E1T0LftnOVXjiCEwmfLM7FrUBZDIdNKpkKjEnylf1P/zUi9Aq+ZHX8zzych8TQ2otYq+WwtdcpS1BSSHvXOElNdg7RUbQUgMRPkZTwgZ26fup3BU0wVM+A2bCx0xJpHPloXurnAnNapPApU4FFrcfzOh575vQwRBKJWKj5OGpyw9hsci89hOOH7RkOIz+jFYqVYs5INPDgpsR3lvNxavsVqe5orOOYDRj68SWZd6zbC4C2saalQY1bS3BfC49P6taPI1N09w5wA05FKgnlAWAY1EAhEm5aHFYKlLxduA1muVQvM5m0UMgM+A4585VkRHIcKeGOsDfbSotCyfK23UeueS7z+fFpSztwGkniXRih33XJrExLHPo+Q13KlWsha3Q7qUHPvXUh5MahgeWGuk5D8b/gNwn0WSpTczyO183Bw22chPK4jDzryYVlOMRA40mjYfsGwrdbaPS2B+zOaSqXgD5G44hLcKDgO3y8qZq8rXSvwHCwZYdwGwvczqdhWEmaCvJYr1EIG27cDy6FW+Eq/hpS1Gy9iNOE2FCpWDnIhdh4gY+TelYkh/2vhzsOuIC/ths5MzNSauTQmW/sOILFdKWIfKv/L+/oD2kS9ECHz4Ki6hPR44nEg0WY9SiXsKudLvZt6b5iFJWEEurXubfS3OloTMz8o6E/xGDZR9b7BmrI2ZN/Yvm2UjesN+dXZX2UsDKtwH0aK0yz1cOWPRZDXsn9r9xE9/4iMbNkxjISfgzG9YNwPslCh5H8aadRjCWlJwrqj4jhUZl70HceKVeXMd+xk9+bu5E6S0V7VPILE0RuOvNhjYrlSzf8iUi+hfmD/HW1IqZidPF/jMyiqsrxtZE9VnVLwMSzGVRlifx6Pbg67Pn4h9XGkl5WZ8BgQvifpZABYVc5L2wobokbdTCS8AXQT2J7VN5ogPyqQC311HUlt9QyBXwk8T0ctD+S3Uu0r+xOkVh5kpxthz+/uH9801y2hR9OdvT1THH7sWBtJNMExlgvXw2tmlHLm7xBWgJ6BN4Ctr45/LjFPCC8KJ39MBupdk/sZklAb/AJx9MFGfjw/KlxTDk/t1cb2h8snVkF+PCe6SdR9Q/tkItk0ZmRbB6051/s34xh8ppM61Npp9vWP0S1qeu2wzUqeovDr1jv01bTMInFt3j/kTSVCJc14yglhpEabEIAPmePWMgV5spZl3qbWxe3rM3C74i9knhBaVE9D0snSEa6H4WUdf342Co7B9zSt6NvUeQcS0zYmbMNz99w7pJYrBfQRu9a5HXlTmVFJX+mpb+VUUBqzo7Ol+mK88KJqMr5lx7uQar5liCufgciX58IXJiIhk7uy1dvNa6spaL0Xiijo9MR1fzPzh6Sbr1kpUbKp26JWbPidbWWWjK1kwELxAXC1dkb+fADoj+aFONdXr9Vq8aAeWe/lQaucn/h8uOIa2GImyPtqeW7hnyONih5Dgwrc9RFdOIZhyb8GEQWdJsz0zRTVKoX/FYuJcGnQ4EhGEHy3Mf1qxe98f0wb9pNGsZL9W0hYwER8PvFi0OLjAzHfU9f57kCH5hsivEBR5WDfVPNYYw9H+NGfzM8R5uOapWwI84csmoUE1WFZqTBdLZMhPA5kudpX9FX92EKK42/3MzohDQ9XK3jkz2dnvr2ifRJpumH61YHfqTtM4+Ikm4QqFAqPBaFypcVLobKlsByG0CIOFf6uWciUcPm6ITjWSoVawoE2ZjdRrVnvTui61bxRcExeFxlRmD6YxmKJV5D/Um9jBwNypRU7OwY5gQX1hZlyXu6s3X479/EyVDqvQKj8Eqb0rAjKQ79QQpVxqOC4rEAsRas6PJy4rk/hBMdlWS/v7t8ddd5EISWIe9b8aMK8Id79pI+D3WNaQDYadxG7CuM3nv/iRNcEQ1p4nzE9rCXEUwo6GYJrYIQitdRtDvAhZ/fBhFvNocLjQ+aHGns4ZDztXrxMYLS5l7P4XJsxxw1B/vykt/pspwz011epBR/GYtSBX/j9apGS+yWkqfOOVChaIKOEBFrxsuAaWFLMxmzbgW7/e5B4omJjGfSyMAqgkGLUqcWfQOK2v3m5TCn6g3ScfadcyWdER7PGwOX26u3v0HZIJarUIp6cq70fvCo4Z1sW86H1CVqPQxLqs7ciKA/v4ZlA9whjqgipA91obro0aDVbctWlKKbB3fA739eUha3Frnfl8ZrgnC1/7ulzpBH6mV3v7RKLoFysaLSYHAf8BwqZCt5Fn9rNbZfG0o66tv3aAdMPuimiGkr8DUIF7iraJ7VLNIy27LgzGAwuQ2hNpjU8RwgVM2+a6SCZ2dnZPF9wgXMGUpFn46b7tB88BsrFSQBYiVz80RP/8kvaSsGz/K9Hv/cvSFx7lvR3efXpk8e+s74mY1kdbhlmA35Kw14cnrUMnRCeG4Q+WkvxQObm5oyXh5+GSW0AtCosJ4T9w2lZSEOhd3E1fjPy5nNgaYLmFMWwnKP11OA1eHV883hyQ4Q6hFqXX/rXSNNKQeN8+HnDGzVvcYBJKHyJUqrhFOVlJcSK9hhEFLQ34ZeYm8qZRki633sz5bxoZ/7TWHHTrRFKcHNF4/1I5/FZtJIObg79HKis2J+06KEfPWR5LsLa3NKvICnBjU6poOQoLy1+hhptqvEVfZmruF7wFG7HSqFyyljw3tMgW/7e04+m39dDd00zZ//Q3ByQlOzNoZd9YWZ0yq61TDhNVsp3NeQ5QCR4v4foqm3mxKluNwbySzFZ4XwTRUTLGeuXOsq3pN2oyI3Q38pPJCo6R4P2uyV6WVnmy501nXuR2rJQ6vLK/gxJ2nQxxHnwRbXUM0VICKwsXW/DwDG0of51Sunv8KA66fQVFTEUMn5bGN/cn5ARtIlya4SjHMLwmKylrvJzwYvuDpZJL9tKha/4L/YP7+kK9AY6O7o7fsSf17eKzr7OIcZmPn9y6cK7cYNzIMm87o6B82BPDvY4me+qb7uVq7heSDyTrQM1SDg3puvPFp9hJMUnlYv3IuVsQT/obehKi+BHwy09Zj0wgo+8/sQb+nL601vfSlcHfbeaooYk3bJkGSC0DFmm+aL1KeZtKZ/ZgVm+MCRlemXEIjg37YuiTMn/PE9WSCx+vz8Hz+fvYjHh4wpwTONrku8vJ29Iabrq2znqL6zbEeupEzw1JVUiUUuVIjaW0SdNxagpakhC3B76sSg87kKJUvQFpFTIhtiiSsn7fSTs95y2ijlUcJ6aH3qqJ/X7f6YSvVt7K5CwgSqpvaFwfN5/Kmlalt/rruseRZpSFCo5H0cS9n3FeuoGToKRsWhKUFeM7FdL5UZlrflqKeEuXKyi52nU/jwO5awemc22QjY4MqV1rdMaPsMdN10F52v4oWOq0ISYoXsh6UYAykDXJJ8Bvk8XapSy37t18BYtcpuDMxi5Rr7i+zSSSMp5uUBRP6htmOFc92L3bulmCymVNRUeb3yoZW1V+OBQuGy4LK4UKfn37+sPGEH7len1eBfxwJlMNBdNuJuc7sLzhlwpX5+NQxR0YmBXTj5zxnuR9EZ2lIHvGd9VVtbH65QKTszh9eeBcW5uUM5Yx3Nxfch2yjOwtWu6RMln8Hp+YlBh0w9Epc2HM5IYVjFlvkQp5P6OcNvIniqmfVWtB5GwLHxB0qJHRqyC89dcQxCxoBNArlLAqduooGkYsNcG3QtUjJoBE+4eJUp4fIhhDF0sV0o+glR7JrwWr6WpbNMtSG7ojoh1LH+6dyGMn0AgkD3ePV4ZaPdXj9kcqTM1NNVAuXXkVkZac0RpVCkF/NS51jVw443NVOG1gPCFfB4iCtplWltb2VtDI9AdKM5bb/Pgc0mLj25BTVFTwt2vRIh+fJaFRsyrPetdUkNDGniBG0ZZ4u+Fie19tdqvQkqgjrb2ziGlAkq6heJF4TXh9fE3dTNetSjoJKA3GL4ICf3STOozy+NCaI3y6+rE3vVZgJL+fPi3T5flKrn/HYu8Rtq1QUpXKK+b4HV6K9s4EoufjnywtIbKjQ+fyPWCa8SvCn5yC0nA3+C/zn3QXKY9w/xMN9pxDF91whW2fmyWgZXH853VrQGkSWV0Wz8tem0wClJWJHQTCR6Ftbp6eGwfGw75mSiWsk3B9eJLyIlHBY8wtHWooaWs5WYsMnokDQ5+0tNqTLi/Wj8en5ErxUrhJ5Em25KmS8iosDK6C51XUSuVgj9CSqVy7aEN93CJmAuuHV++S30NHfuQipvDo5Ss+6upkG6wqinh7q2Toh+TRhArC7pkEspI556qAiXnj7GofR2XKPmf0X4Qko5mJZcrBV9EargutAcz3IMkYk/0a7lYpRRyrjvBw/TUdbD3AruX0Tjhp73hs9beiXD310nBMQzf9HxbeTNnX0lYhT7aOsp+2fyiuDTSNDg7p3iq0TIjCHVX0FIwBr2wwYQPhShkF4TXFcIXPJ0Dt6cj6u4d2lRYtGaN7nqGZe3au8K89WPx/TwxuG1QG9iSIH6mpwkl0z8rOQrxnZAiCAPGMJCPpqwJUsFlGFAKCS0x9igQUohAe6D66PNHv41FKkrG+aZlyaBIfI+0uNLA0UBMeF6oqNl7gpUBFTXHGHCdm/wyhGElEooooPUZSThHns/pB0mwBt437UVrrd526IXTrxxdXyukAjN9M0Wra6vF33v6e9oX0I7aHRPH3n7u8JKy8n/gz+sUNYTa2rF3DM8NrWk+OxTOzjMISRtEOa/Dz7NCUc7JQ3/R6Eoq1lYIKQ/dH1Daj2KRc+3Rqqa+ocJm6phVrT87y4GOse6jzz1KH7GQLnRXbd2NhH5m8S8nUXD9aQHxPlie8kvwNpO9k3RXacqYkq/kfAop3Vi8z9e661HCPRNWRc/jin9791akQjrRv7WNLcEpP31UqgvugWZB72rrv533RUhL1OGW4S3t5dsOY5l9iY0G+Lj6Vuv7ps1IPnFrXA8fFLo36CcTkoT+mcoXlSMKW7hOSGs0PbSvP9D0908c/SkWOUMS3SBG1zW8ktYa6PHs8Lnh7DxuNxK6jvhYr6cMsqQrByHB4LpzSjBaP8anLocc/2eIkN5QkQahmOkvphuksKu2/V1IaVGzu+UylS7Eysz92aVK9te4cK9yb0rrN1HON8IGKVHQLsOXjNdYF84hyc/aS+VK4Wd3tQ/TpcGKknMvcmYKIbMI1jY0/PN423gHlllB0xLO31a+RZu5H88K308+M3yGNLBeAwa276Jy9S4snvvn7u9IFLl0IhAI5HdValPMs9FChmk7LLymEFpDvL4cmks5ObRtaO8ePS62IERjpGmE4X7ZdY/PkCFGACc+X+w7z7/FbZtuHNp5iP2eCW+29OCIU3gNIYZSvlSmlHCyXI2ZvpnaQH+gPBCYky50gmUmt/ZW6Er6GnoAJ07XRcV8qVKtZkwcIU2hD4wNDKKgbQqvGYQKme4KWjZnK9SyDyElYtEIrrG9qmM4d32KtAe6N4+zj7WQjgxv0+YuFAVtUXidIFTKvGbGtD6GMhalLCSE1tbZa7PCpCrysljjbUgFlI90sYtAcL0V3VDO8z2NPe//+Zs//xZ/EwTBPqKcrcOIdUWioK9ng1LmMPhqiCAIcSLK2R4ySCUEKGYqZMqVwW29d//0laf+jpPvHj16lG6NuNg7vrcya/GKb/lqbtbq2qq6srqS9fBzD7+p/0wiPbusKDTG28Y3ZWVlBXN8OWu52bmXHnryIfq+BUFINw74A7QK+YJnfBc7XgMIQzZqzDnY2+LI5GxNnVrCGc05QpBRA/nVwoqRYnS/CxXjN27HoPCcbon+bgq7XL1co1T8zgH/tMRdEIR0xb+lcwYJeyBkZAMhzxvCLnHnuxq72B/cEW4fnd1co5RyZpTrpgPTxbDQrYixT6iw3yvzWw/UvqX30L7+ACdXoPUtX4+CkC5UKXlUIlRQGaOgea4QKrkrOza3aUGJ3jfzPk5SEBPDjT07kfwc8haEFi8VMq8plelauDLEK8jXUN5U1DweK4JX65TS37llcCKRM2sIguAi7Oy+Ek4JpItMT09rKc6TSo0KjS6GmJgdmKxBos7tOrC1Vim+D8uhypiS8IpOP65hVZ/ra+w5gFSzpmdHZzl/nCAkDfmkiw/6O9lAmLYTPxqNfkcCe3seOPoPL6yvjQlOEsqgNtdmx8B180xsl5DGTWParCchdGEJgpBKzM7O5vXXtXBmYnYfS8sGQp4XhFYlG+ZssXvHGCcBVWqUwk8iMaxkz7uBWEaIcd5ne+u73oFUjBgh4chDFwf89H3wRw/SemYMjhy83GljQeuWJBVUUWAkUN+x1nHm/sfup1VpldchhqWckvMz6teA58wGYPrHJyGCIKQQL0HSpgcHzoOW4+XO2taZw4HD5Vi2XInfOngLG9bYwJc2DaY4D8OSZrc8zScNEQQhFbipU5tWiS9wSisklJ+KiF8DyoEDBxhL1xL7OqcYe5k9L1hJpaubR+utAqEVLQiuIhaAc/BasjdDCV7klBxBqH/GL+wd39tUtqXswl//9V/zb6tow9shnmrocxpcIw5XZwXGtgb2QCFU3ILgKDITinPwBWV4wpScRUUvM10RJUt5SxetKuZKJYcxc9ngp8UdSWfFTHh+kFwscqYWWtGc806MHMFx5KFyByqrPLzEKdFAaCjmztrOw+2t7Y/83cN/R6vQCtqXAiQlG/zixbCia9WiP307OP8f1tcKgjOI5ewC/i2dtyGxMhll0jEUDKSwdUvrv1pRzIFubQYKxrIohVJmL5WMfI543pBcKOZfwZ9vTnUO0e8uCIKX2dXadxCJ5xsIUb7lMqXw00gtfUX11bTMIuE0QGk9OtKu4HrQJXQm0Du6GakgxI24NdyFn/20Lj3ZQEh3RlV28Z+fuXr5A/xzfa0pKeWySSS4nkZPF5moVogbcWu4C1/SRf2l9RRUzEiWoZjv5p/ayihUKDkfRsLBNqKYI6BXwozJcb6/oWeXtlIQYkQs58RAN0C+V5SaoZjbq9vf2dXT9cO/Pfq37AZnRtqNgnQLvTLmFwYH8AhCTIjl7DKHdh4q8W/p5ACVq3hpk95AqJdBawBs62x7xEwx99e07kXCykUUs0V0C5p9vs/u6t4lAf6FmBDLOUGUKTmfvaCs/HssJrXbmW7V2fGLpn3kPbfQrzV7tci8ioJtxHJOEFDMv6olipI06xnKgu4MDpygYo5aMc/2jm6uyS35JhYLRDHHhm5B0wfNYe2CYAtRzomFw33ndYsqoRjujAO7pnvX10RvBHzwqR/95NTypXfpCsYz8Dx0WQ0j2m/6pp4A149R+Sqr1aKP8E9tpSBYQJRz4mEj0TKVyfqfCYNKa+HqSrap8uqva96PhOE+k2YxG4o2RKh8GXiIslSg5H6jSMn/apFS8BWkf4q/v4b1bLTkteUQeg4CuqawKfgtWWSfDs7/6kzfFOctFARLSE2eeNRyJfu/n1eu/jaWE9ItjUoKyeJM38z2ssKySw888gCVWDQ4SjAp7gy9rLTqjZSsFSm532xpbP5WUVnlkz/8xQ85q0pE+jf13JKXn132oxefoMKm5UojhM86zycpgZlwXtKDQxBSACoKCpWkq+E1kb+mmPXjWYH+0YSO/sPxWEYqL1rF8wVKwUeREuM6GWKZaf80AxORa/uXKfl/gpQ+dx4n4SM3cUyOInwDIgim2HrgBcc5BmFXK9eiuemWKBUSlZVhiYbl8PDUlr/9yfdZpoTFy9AtSgrdDpwN283hz3zeeQ1OQxirmpZ0wiLp4Vx5jlTQPHbUeyEIQpKZbO9nkCTXYnAw777GDsb5iMpQQ9sUEvZnTkigfByHlQYV1dmpIS1Qf6JR/Q1dvPZanBBIQixpHIcV0aW+Ld0y5ZUQFbGcvcHbkAq8vI72jNCtZnbfs9Kn+RSk3OkybARlMhQzhYrRC32AGQOF1mxCBtroXwtnIdokuIIQjoQ3jAhhqYUs6C+tkzA/U8V8xy3avH+My+zq84Dz42c9lTIbxvKnB6f7uN4DsIKgck5UN0deZ15vMY4EIUWg0nLk85r5QOhrtqIAaMW52giI/Fkeum/4laDce++9TlUEPD9HlNztEzOsJHkt6G5x1c2B/FdqfEVfQioIgpeZCwSKBzdrsZId8T8jj5VKteQLSKMpLv72GmQ5XB5OCfKnNXqls671ANK4CLSObu6q7dpTqPg+hj+pSOm24RDzk+1VLYcnugb5FRCvsj4BSYSC5r1+CiIIgsdRK5V8KtS4rFjsr1nN0/5ps6A7VGK0rl1TQsh7XTGvB1CyC8unjreNb+pZ359Kk32wtcEmEOZtiDY4BcJug/wCeTPQG2DPD01RT/bu56Aay9SqxZ9F4lpDLQV5s9zsoRJvZSIIQoLgCxtzDwLst9zb2H2IGUVjormHluxSuDycEOStVRI9DZ2xKOYXIYyYR0VLZUylS2Vmek24DcRQ1tz3YoVS9CGktqhSCj+JxDUFzXwhVl1PgiB4BCqmmNwN2M9sBKABrVBXus4hXyqexcEt2nRdpsrnHv89HMmnTHfsbETCgRpUipaUsZno+SyVK0Vf2Du8dwuWLVOt5t+HxE0FvVylFn8CqShoQUgR1Im27vcgpQW4Fu7FDifY1rDGIjI9OG0oQFcaAZGvNtiiUi36HFJLSqe/Rps5hKMTWXa3ysVryYrrZGdt5zhSq5yEuOKXR77a/Rps7Noz1z2Xy4MJguB9qNjY2GVZWWHbq+Vqyf3cORKH161H13zNyJdKkI11dkhILwkKjsHysSHREndNav5qzdUULr94hflC3tjbvbcSqSAIKYRl9wO2W+xv6DHz8VLp04J0XBEyTz1vqzwO4fm5ovgiCY8HYQX1M4hV6P923A2EPHnNWFmIa0O4hgxCSQ04YIFhMPkSR0T/feGJt37+D+trwvO+mYMMXelWdDaWgVamKSPNfWyQ7IIwAl5C40brx6MboX1ff8BqKE+Ooox6D+KA5aGiFgQhVQgEAtkdZU03YzGqKwK/LfXUdOzjPiawsdENC3ClKrvE6sCKJyGuWO92BMdnYyHLYcmCrlsfOOK4lY88l2uUwo9rBxEEIbXQu6Qthnu5KfjtCgdpaBuH4X0z7yt679Q+BhlitzRHlSLzg7DyMP00Pzg104yE2yYkyJKZsBwQuixMef/u/ZuQOO6vZ34QxhoRBCHVmOqcaiiJMkgF66k0IjLTN8Hhyex54IblRwV3LjA6axby8xGIK77beATloQ/6ot9atDg20rrx5bHU4Cv78JFxaRgUhFSFjUc3KFisi6qcd+8YYxQ0x8OCIj/N1923uZvDz82w1fskkcJyQTgKMRpqg6+U/ZId71qHPFnBnby1O1DPAwmCkJrcoGTxd1TlrEOr1elP8pUKtfDTSKO5NNRapeCPkLoaxyNeQfkWBja13aqVODqOW8/MD2K3C6IgCF7B7/fndBVt3YPFa13skHLgB/82w1F/KfLicU27zt0+pPm6Ha8YnBaUjwqSijcqu3eM3I7E0YoG+fELhI210qVOEFKVnR072b2OUNlSoayUKcX3BdoDZsHrF8IphlgF+VltCHQ9+p1TwnJCnmeho8DzdbS3CfOCsIIV5SxIP+dU5eHnHjasZLo3GPthubmp+du5+bkRrdi+ei0kqdP33FBmTCNBZcNRdqnyvLGcVmYp4VeD0/DY0a6lkCGIck59anc2D1HpniguLXvkoScfitgl7MkTL/4VEqenYVqb6PD/ir4clolt2ohFTqTq+hRQDsHKJHtmdIpd/iJBBcouiY4pUlwfvo/ZW/Lrfnt9jZDJiHJOAx5++fHvI/ngD576gdnIPEZ+c/qTeTW4cpUBiyLyw1d+/nUkqaKYrynJC2fO9a+vCc8t3cP/DgldEU6iXl1dYZdHQRAyCKcbA6mYIjaeMQzozb0TbLh09LiJEJSXfvwL04NaCNNIsKJztJETefG4Zt35hAxALOfMw0nLOVjjK/kLpGHzfDvr7dIXn332NizSpZFSzxrKS0s/79KFcwPra8JiVFCOuTZ0JHSoIGQKU51D7MrmdE+N5Vt6hu/QDhCZ0xDHR9MlQlBuDko5zpOIgLq5oJouG8fOj3lB2J1OyHDEcs4QqktraQk67W8OXg2umSmShEabcxheryI9DQcDAXK0ppOWM4/l9H0SUhBRzhnCw4898mtInL7fa99/5vF/0pcjkeqKhtcsovLd0T/wXSROd6lTAzKEO+MR5ZwhBJVgPhKxyOxhasVu2bLpKSSO93cuyF11uheIkGKIcs4A9naPV/oAFpOhnNPBco7I4tKi1kUwGAw6qaCzLl1aku50GY4o54ygFDc6i8rDSd+oVZJxTCeJWrlk+XzG+TlaCZVVFp7RF4UMRZRzBnB59fLKWvAq+xo7pihhKaa60rVDRMX7+vHj3Ug45ZejyvnqlTUOGBIyGFHOGcDMczPzbR09f49Fxz69nVZGHiZqJZSTXVCAxPFrsRZcy5TrK0RAlHMG8EHlg2tXF64wQJLT1m7WVOeQWexjxxvLEgivF/sdR0J98onHA0zX/3SO7z7zr6/qi0KGIso5QyiuqXkOyZrD7oisY8ee54Sy0ZQTI+alKmv1atGX9eWwqKqvlMn6X44ilrMgZBC0np2OAxE12NJM366DSCJOSutVQZnZle3KkfXJaCNBBcrYIhLTWXAcsZwzC6f7zlKBRI10V1xW+xMkKw53NUsELO/8A99/6OX1P2/kcGBfExKn42CYuVIEQUhDTkGcnvducaJtaL+We3jU2YHJOaQpMQuKISjvwu3RZxJnhfQmxNHJaplfta/ss3r+giBkAvVqieMTrCK/lbqcsi8gjaZM+JujUzq5KSwnhC4gs3O6YZLdeAX5LU60DNGPLwhCpnBkfP8mJFfCKYVYBflZ8ZHyN8Y9TonodCwnhNH0osFzcjo+Nl0pVuZjFDIA8TlnEA888m1+hrPHhpP9nfkMmc1yQsXD6G2p4nderc0q/ZS+HA2n3x+jshMEUc4ZhvHyM3USn39b1yF9ORy0BDmjyCIqBk8rH5TvapWS/8W31y7+vr4qHGqtWki/sE+vnJxEGgMFIUNxPPg984OYBoh//37NreJZ3zPLBTHzNRs4Oj0VBfnxOnKKKnFrCGI5ZyBUKo5azlAsdGsUQiJ2OyN/9m3NrcIZq73q3litUUvZuBkNKs5XIDk4b6ffn7WtBdVfQ+r0l42QgohyzjA2ZZV+HokbrgUq6BpINKsveGR8/w6knnNv0J2B5OKp4MXf4J/ayvDwN56nmZ/dFji+ZjnfPD75pfU1giBkIhzV53jPCeS5OLS184B2hOhQgbNXgid6b7AcEDZYmqHWq0WOd0ekIE+WgWFCxaUhCJlKnVLwQSRL4ZREPII8qWCiDufWUauUvE8jTbqCxvE5ievF7pr2SaRROTi2uw4Juw26UbEt7Wod5FB3QdCQWjoz4X1nw1c+FIOjri18nVPZsVFrq7YiMsazR2XHcjjqJrCC7sqgD75cW2EOfc0NKKujQ7ZRDvrg2VBawj+5ThDE55y5UDG5oQioZKvXF6OiHXuooeOdSOiDvqorKdfhcSCsRC71NHaYhTwl6u0BbSg3fc1uzCbOa0HlLIpZEDKZ2YFZKpnjEEfjQhjCfCEXhpo6bkFqhmFB0x3C8KKsNFzpasd8ISzbfKVa+hGklqhSCtlISAvfreu1VJ9d+T9mZmaKeDxBEDKUuwN35wc6xm7GIhWOW4pQU9AQy0y1DBxGwjIZSnotXN52BfkYSpnW6Wndd2zHpceKwy3FrPnp94zsqeKBBEEQYBEWfBiJ4w2DhiDvZcjpfUNTDTyeRdQ7A4e3IWWc5GuWtCHhjrNRQreHcH/2raYf3BbdNd0DSN6AuBZRD3kvDG3p2cvjCYIghOKa9UxB3lTQtmeSZrjOXW3Dd2CR5WOvDlq9FOZHhXud0taF62ghUxlzHzb2nfE37bDiVw4HGwDdrLxYXltfF4IgZAC675kxnl35ZDcE+VOhnrVpQYdCF4R6wD+9FYr2NixzqDgVLxWwIfOlSsHXqtTiTx8e20fLW9sHYpuemrZ+JFTMrs7ggvx5XV6a9k+XIRUEQVhndnS2tFYp+3UsOh4nYqMgfyoi0/gbNjCUb6gSjkkZh4GTq7pmMVOQv2Y191S1j8zNzSW8G6EgCCnA9MBOfva7qowoOIbRKHcM4kV+CmEF4vqsLTjGwvTgTkbqEwRBiIqrvmdDeAzI4kRr7xGkoVZvUqnzlTF+MysO10cs4hi8BmzwFARBiMztEzO1Db4yBkRK2Dx/OBZ7YlysVaz3N3aa2YHJmgal/L9gkX53178cDMGxlqvV0o/u791fwXIIgiCY4eg0/2bCY0GopKkcSaKsaPXWkUA9Ujb6JcRaNoTHgjjpexcEId2Z6NAmFnW1h0I4wTE1X3S1UvI5pIarww1FreVbpxZ/Eilji7CR0pGBLlYEx2JltLC7fzcnHRAEQbAF+yS72rUunOCYVFxGg+GFaqX4Y+PNw9NYjkdRa/sOberejZQTAXCkH7vdUSkn7AvBEBxzpUzJ/wxSNyoeQRDSGLWvZjtDZ3JgRNJCefLYEGMwyaVapeS+g6MzzVg2FLUlqVGK2chHFwIVPvNjvglXyhT92BcCvaMMoCQIpvAhFjIEn6LshXn6D/qfZrDvs+MhRe2iR6qj0LKmUNEZspFQ5cxyM4JclkfOgdZ6gd/vz3nsscdYUUQE9+mdONH/qf8pCEIG8DM9NaVKKaTVmbAeDFYE5TEUtCUJl0eiRS8LGz2PB7q1Rkgr/EJPBUHIAOhL5uf9yYHWAQ7bNqVSyf8TJAnrXpdugmunKea+Ta2MWW1KW/G2m5CwxwzdOW9Mtk5auk9CeiJujcyBDWGcwYOf2GchVq04blsCZeNGkPm0Jrg+0wqvH0OUWoGKmbOYE1akpZBw7hshA5CZUDKDkxBO5e+D5GC5vKt2G2Mnm8HKuxJyRVc0gkV4vSqyi/8ci5YUc4mSy26EBfo9YqyN3M7K7bdrPwqCkF4woI4eCY5W8zUfLJchbPCzA626hHexS0XhdYJYDpPaUbGN/csXNuQRyz0SBCGFOA25QalyHYSf3KaERE3TFDQkYQM3UklwXahQV6pyS7+O1A4cEHND10WsYw+P1yd7J2WYdwYiPuf0hveX1lceXvYbXFj49F7uq9t+95MnX/pLfZUV2G+4CPmJDzoEXEsqU7p+eH1quc4iHBhTHO56Iku2D9D3LLNyZyDic05jypWCjyHJDqeYCdbnQjH/GRbfWl9jifIKpeDrUBwruvLIePTrsDLU3P0BpHYUM6fOCquYiX7fcnpqWjkjjCAIacR1vuZwwt8hSzN9UxyBZwcGK2KXr6SNJPSC8Pz168AA/Zbp29RGhWvajxzbiO85QxG3RvrCiUlr8YKbuh90y49Khv5pO0F5+PywAtB6gmhrMghct9WtFTXfefXcKfZ8seN2oCJnLw5eN9N3EMfhvXkbIgGTMghxa6QnfOHLIZbuL/QDt6MS5/T8dirsYLGSw4EqS1QgupJPe3ieusJcunRx8emZiRmrg0V4bSl0fdDdZPVa8/7wftq5N4IgeI2++pZZJLaHXmMffkLzE50R3Cyxb2ifNmlrkZLDfrpGgCFPDJ12Wnhe+vktlCi5nJxAmembseNjfgkSkysI+ywFOsY4ca0gCCkMu7zF5AvGflRACzH4oNWDY7v5qW4ME08rXzTPB0LFenJKn0X8XuVey1+eOxraOWs4Y2zEVHFhPx6fXe4EQUhROHlqXPEwsL9hQb8JsYP22X17YJZhMVlBJCVuslPCskOoFHkeF6Z3Tsc6ISu/RHg94+ofjv1ptbOHh7g3MgDxOacXfGlpvcZ1X6EIuD+HeVfj8/3L2kprUIEo/+/RB1/fNzTVUark0dUxHwwG6ZOmoksZ9PJSGS4WK3n3zfRNtK3krFgatBNKhVp4HxI25Flq/IsGdme7QBm+asS9IQipRFdtM2cOcXSaKeRHq9HyUORwDDf1vgMJA/jzs56WqCetaZZLL59mKe8dntqCVAn4A9VM7TCxvY++aH55OBrVD/mxwmA3RrGeBSGF4Ggzx329yJMK4cLu/vFNOwd3NgYCAdPueRs5HDhcXqGU/AEWaX0a8/d5wi/NckBYcbA/8fkipeAPpzrX/cqx0FnZOoOElZHj4VaRpzFqUJSzIHid8e5xRo57BuJacHzkTQVGpfC6v91v25IkB/wHjHCYSolS8BEkhjVN5c/8XbeqmX+I8Hj0BZ/vqt5+K1KNaf90mb5oi46qjmEkr0HY99u1igd583qxH7soaEFIARjTwVVLFPlTodHite17jUSxUvjfkHD4OPPkObAhUevtoUtcyhr709IMdVcwb1rItN5Pt1a27kXqFBzEw2MkooK5Eugf2xbLV4wgCAmiv6GTCsZRX3M0wbFoudE6ZL9dR5kdmKwZbh6g75y9EqioqUSpUEOta01p6xK6LlS4Pa1y7suynu+tbbkuhjVnGgm15uPgccglSMJCqvJYEFrPgiB4GFd8zdEEx6NipPI7s7Njp9HFzPHPbA7yGGoZuqVUKf4o/qRlSuua7pBQ4ToKrwNTWuGvdte3z7o523VHXcctSNg4pzV0hrtObgmOx+vPLwBxbaQpcmNTmEB7oPro80d/iMUmvLDs+pZw9GHMtOIWCpXcT11Rlj+k/eACge5A8Ur5ippzPieYm50bPJtzNpiTkxNcWVlRKyHLVytUJUfJPvrEUSpoN/n/IP0QDqnOxbVPSlwRXPvlrtqWO3/x9ot/o68SBMFDxDwa0ElhGSDXDVwZ7x9Pp0A96nDLMLvWHYcYPvGkTjqA49N6llGDaYpYzilMd33L7DMnXvxbvKicuNUThFjSVBx0Q9gdBu5FvgvpgrAXBycu8EwjHK43rzX98038k+sEQUg+9Lcm3WoOJywXhD0XLhesd5vT4ICOue45z1QmoXA6LrqK9D+VIqXoD5HwGhvd/Tw3eIZlgojvWRC8Qvl6A5njgxycFpSRyoNKWusxATnW1tA1hdRztFW3sVyMTcIGRSo817vFOSEsZ9eGnihC6iO1bWrC+0ZfszaVvrYmBdDjVbDf8XKRUvDpprot//jMyee/p/2YRLZXbd/90pmXvolFui1o1fP64tKGn97La+C68pqy8uNcg0KaIMo5deFoQE+6B8zQlQmFrgIKXSBU3FdyldxPNFU2PXrs7LFH8bejtFW2jb5x9uWbryhX/0/8yWvHHi70H1NSejYX3ff82kjnyOiPn/1xXLFQBG8gyjk14Wd3aSorEwNdUWuLuvBvKmoq7CtNFS0f8GUFl4sqip5/6oWnXsc6S+zsGGw8fX6+M0sJFjx78tjXsYrK2FDEoRZxyljI0dCvI3uRyEzdaYIo5xQCVlHVs88++ZuXlKX/DIXimR4DbqArG8NnHaq4DcVjrDMwnmXNJQGhwqVwWavE0kEJRwPXbHlHQ8udT78l/Z7TAVHOKcTQ1qGGx199/AUs5qe7oglHiJVtSgZfH1rPxdoKIaUR5Zx6cKAHR6XJvRNuAAqavudTY81jQ4++/OjJ9bVCKpJx1kUq07Gp+QgSnyhmIQp04VRAMb+9/qeQqohyTgHGN48XZCvKbz73xst/jj/lngkR0d052a01m+5YXyOkKmKBpQ4MSZlS/ZqF5KD7njmq0YlwqEKSECssdUha9DMhtdCtZ/bhPrmjeQcn/BVSELGcUwCfon5+VQneI8pZsIpuPXP4eYG2Qkg5xHL2OI0ljQegmH9FFLNgB916lvc7hRHL2fswAE9G9msW4gPWMwfwGKMGhRRDXnjvky2KWYgF/WsrH/99en2NkErIS+9h6gtrZpHIPRLiIQvm8/+uLwsphLz4HqXSVzlz4sopxkiQeyTEjOF7HtzSYUzCK6QI4nP2LvQ1M5JalptujSDQF0nosuAexnvH633dO4h7HfM7GXovjXywir02VvMU3+eWlNVf4zohNRDl7E04u/NNkHCR58LdM6v30Q3lazdPN8oQ6fxjOVa870Qy3ynjfENTQzgLzT2Q7+h/C4IgCIIgCIIgCIIgCIIgCIIgCIIgCIIgCIJwjWR2+/EcHR07SwpWs/KXc6+uPvPMI5zh2hSrIRmffvlpS1MGtVa2ls7nlV0tKrqwmpubq3V5Wl5eVhcXF7NWViqzyq8uZa2UrWS99NJLF7QdTGB+ub7ctXPZ59aQ31pOTo6W58rKirq6uqpJ0VJR9gtnX7io7WBCd0138cW8i6ulpaWrBQUFwccee0yb1y+gBNRT3aey5ufns4quFGU/c+qZy9oOJmzePF6Qn396raysbE3PS8sP8NlU/X5/1unTp31li2W+J08+yb7fprCMxvkWFRWt1TxTY+SpxFLGjqqOkou5F1eR12rZCyinopWT11E1zvvMmeyckxbLZ+RnlK/gmYJgsVIcvKxcVhe6F9SLFy/68q/k51i9J71beysuqlnBnEvza7zXZ7Kyg1lZp4Jra2vq2lqVWrm2qq6s4Zk5Z+2ZaW9or2aa7ctem0eevixfMAv5az/q5PourD1z6pSl69fd3Z3Lc+Ty6abTvuPHjzPW9HX5CTciylmnr66vCC//4/lK7j/jzyxFWb0KPbGKt1B7CbkOKzWFAeE6SJbiw2os4N8atQrXE6bqukZYY/SZ4BqHA+j58DdduB2FmxpCmBp5GfswTkLovsa2xnbRMPI2jkeMfI08N+ZjbEsx9jeOiWujcK46CpeNfY1yGuULzTNSftw2ND8G6yFGXhyIw9jElNDyhpZ543H4G/MxxCgL1zNP9h83ysn8DELzMTC2YR5GfsZ2/I15sWxMuR1TrjckHNzOyIvnbuTJ7Y3yGfmEni8xjh1aBm7DvynGuRrwN0OMfELFwNhvDSuZGuWjbMxTW9ZXMI9rv+v7EuPvNR6YYIWarfiwKuuVJWXlq/pqIQK8sALob+ovf+L4E29ikS9asq6L8WCbYZTP2H5jec3y4e92z3FjnsbfG9dbyddqXoT5GXnaKXNoXqHLoXnYyY+EKx8JVz4reUfKj9gtmxXs5BmtbLFg5MeUkxSXaX8JEXHjAUhJdOV8Aos5bg6XFoRMRh9Ozi+kfG2FEBFRztezCMWcpy8LguACUNCcoUXeMxPEQtQZaeysQqLqNbsgCC6A98tpd0naIspZJ68wX66FICQG+WK3gFyk62EXH5l5RBBcQrec2UOFvXCEKIgSuh6prATBRYw404I5opw3IFazILiOKGgLiCL6N+SBEQTBM4hyFgRB8CCinAVBSAbypWqCKGdBEAQPIspZEATBg4hyFgRB8CCinAVBSAYyjNsEUc46gf6xJn1REAQh6YhyFgQh0YjVbAFRzoIgCB5ElLMgCIIHEeUsCILgQUQ562Rp87QKgiB4A1HOOoucclIQBMEjiHK+hmhnQRC8gyhnQRAEDyLKWRAEwYNI2L7rWVZVNUdfFgTBBYLB4AoSmUPQBLGcBUEQPIgoZ0EQBA8iylkQBMGDiHIWBCFhBAGT9b+EaEiD4PUsQ3yqqqZdpaW/FHaRlygxXHsP8exFfSdD76PZtlZwOj8zcLhVJJQ8bYUQEVHOOt1N3fXPHH/mGBY3PjROXqNoyi7W4ziRpyjh6zGuR6Lfj3DHS/QzY+DksxO6DZfnIVXaX0JEEv3wpQztDe3VWep6vI214JpK4XKhnq4VFqpLK0vZx14/9gb/NmN73fba7KzstSz1ctiHeS1YrGZfXcp+5tTxE/qqqFjJb2V1xffy2y+f1FdFZUdtc91ilg/5RY4xYqd8zcjPp+U3H6F8RTjf5exnT7/6lr7KlM7qrQ3LvuzVLPWKlmeWql7Ley0YxD0qVK+uXvW9ajHPrcgvW89Py+uSolzW8yxmfsVBXMM833GL5/xv+WUhvxvPm+e8jHO2Wr5/O1/jnlzWzpnnyr94vjlXV7KfO/Pam9rPJmzMzyjj5ctq0Djf1bWCLKvPTFNNU32OLyckv8vBjTFqrq4WZj3/1vOn9T8FQRAEQRAEQRAEQRAEQRAEQRAEQRAEQRAEQRAEQRAEQRAEQRAEQRAEQRAEQRAEQRAEQRAEQRAEQRAEQbCAovz/cUYwTHUxfZcAAAAASUVORK5CYII=;gliffyId=132;" parent="2" vertex="1">
          <mxGeometry x="370.2415466308594" y="481" width="164.75845336914062" height="190" as="geometry" />
        </mxCell>
        <mxCell id="23" style="shape=filledEdge;strokeWidth=2;fillColor=none;startArrow=none;startFill=0;startSize=6;endArrow=none;endFill=0;endSize=6;gliffyId=133;exitX=1.0;exitY=0.5;exitPerimeter=0;edgeStyle=orthogonalEdgeStyle;" parent="2" source="20" target="22" edge="1">
          <mxGeometry width="100" height="100" relative="1" as="geometry">
            <Array as="points">
              <mxPoint x="350" y="558" />
              <mxPoint x="350" y="690" />
              <mxPoint x="453" y="690" />
            </Array>
            <mxPoint x="420" y="723" as="targetPoint" />
          </mxGeometry>
        </mxCell>
        <mxCell id="24" style="shape=image;image=data:image/png,iVBORw0KGgoAAAANSUhEUgAAATQAAAE0CAYAAACigc+fAAAACXBIWXMAAA7EAAAOxAGVKw4bAACzNElEQVR4Xu29B2Bb2XUmjN4buyhRXZqmMursVdJoZtx7dxI72cRxkt0km91skn832ey/m+TfNCe7cRzHsSfujj3xONMlSqJYJaqNNF0adXai9/p/5wGHeuKQBECAAEg92BxAwHv33Xvuvd89/chk0kuigEQBiQISBSQKSBSQKCBRQKKARAGJAhIFJApIFJAoIFFAooBEAYkCEgUkCkgUkCggUUCigEQBiQISBSQKSBSQKCBRQKKARAGJAhIFJApIFJAoIFFAooBEAYkCEgUkCkgUkCggUUCigEQBiQISBSQKSBSQKCBRQKKARAGJAhIFJAqkoYBcopBEgVwp8ODWh1RyuQxrSa6RyeJxWUKWkCsURrSbwEuewL/xMY73OC6K40r8mz7TTzIl/hXDe/StK29Ec+2LdP/9TQEJ0O7v+c9o9Dse3qGTK+Q2hVxegT8LkMkSj8VMACt9LBaxAKAMWEi6eDxuVCgVCplcro5GoxaFQiHHdwA5QjZZDG8xAF8EQBbFNVF8GcM1Ablc7lfIFR45/vBv+vPT97iH/qbwHH88nnBefO1iIKMOSxfdtxSQAO2+nfp7B/7oI7u0ABsTMMiC97JQKLQmEomsxvtmgFQ5AKZMqVKatDqtQavVGtRqtUGpVOrxb2CTXA8wUkdjUTV+U6iUKnk4ElFpNAKWgQ0Di5Z80Xuc8A0Lj7gz4F2cuLYovg7HorFIDAgJMAzEYlF/JBzx+H0+VywW9+A+Fzg5B545imffUKvUEwBWfBd3492PxnwXX7tEbUuv+5gCEqDdp5O/a9uecqVCXh6PR1aD21oVjoQ2xOOxdRAVq/VGY41Op6/Q6LRWAJQJIKJRKJVagJqyGOQC5kUT6GgsHgtHIxFfOBRyBAMBO8BuQimX3wAIusAY3tRodVcgwY6Go/GJV1676ClGX6VnFpcCEqAVl/4Fe/reXfsrVUplNQChNhgMbI1GI5sUSvlqo8m4VmfQrwLXY9NotHo1/qNSqTQAERmAQgYQK1gfs30QuDYwctEggDgIkHO5nc5xn88/Am7tGobwOnFyWp1+AtfZwcWNDJ87Tbo76bWCKSAB2gqd3Ka99VUAo6pAwLcpFA7tiMSiDxuMxjqrzVYFbqsMG9yI3/UGg0EryIWk1U/9kWhIYAbRT5YSG0uWSuFwWAbgEvpJ/YaIHMV3fnCdTvzZ3W7XhN/rG8fQrhoNxnN6vfF6NBa/PXBm0FGyg5I6tmgKSIC2aNKV3o31u/dD1yVfFQ4Ft0L/dUCuVDxUXlmxBWzWKpVabTYajTpwX3ICAXoRCBBoERAQR0Z/9JmAjTgzeqd/l/qL+w7RWAA3emH8MhpncgxxAjhP0B8Yc7tc1/D5NTCiQ+BGr0P3dzOekLtOnx0q/YGW+kSUQP8kQCuBScilCw17GsoUctmqgN+zJxwN1+sMhs0AsY0QtWqwQy0AJBWBE/0x58WiJMBNFgwGhd/oM4OYuD+lDmjU75SxQeAqCdwYkAngdDqdLBAICAAniM+JRBhjdvt93lGfx3M9GPDf1OsMPXqj+bVYPHHz9NnT7lzmQ7q3uBSQAK249F/U0xv3NRnlCtnqoN//QCQabjSaTQ9by2w7YYWsAkNlxqbG3k2CGHEsYiCjf9MfbX6IZwKXJhY1xdwada6UdWjUP7/fL4AxjYP6ytwai9EMZEwP+p65UCx+GGPDbujeRlxO59uRSBR6N22f0WS6olRppvoHe52LmiDppqJRQAK0opE+uwc372uCBCmvi0SCmwOhYJtSrdpltlof0uh0q8CJWAl7GICIM6E/2sROp1MGUVMGa6UgXhJHRpueQI2AgICNQYy5Md78y0HkJA6MxkXAReMSc6M0HhI7CezEwM4cHYMe0Qov2EoCbo/LNQLu7TW4iJxTKpQXDCbzm2h2pG+oT3IJyW7JFuVqCdCKQvbMH9q8r9GqVMrXYJPtjyZijSaLZRfcKjaq1CqbGkogBh0GI/43cyp6vV7Y7LTp6cWipXhT88aebRSgNlKbPfMOF/hKAmSxQYM+Mxcm1gfSdUQHehG4E/DxvQzqNFa6PxIOB0PBwFTA57sC7u1Vg9H0rE5vuAqRdLR/aEByBynwHGfzOAnQsqFWAa9tO9C8NhwObPMFfEdMFvMjRovlISiyK5UqlaGA3bjvH4WDxB4JhW64HPY34Oj7psFgOqbU6N4aGh6auO+JU4IEkACthCalaV+LRqVSrA8FfXuh4O+w2Ky7dUbDFnBiZeAcVtRciTmpEpqCd3WFxFUyKsDfLQDfvWnH1ORbwUDwnNFkfV6rN1zv7T/1Tin3/37r24raJMt18pr2NKk0asUD/qC/KxKPHKqqqdmm1elqfH4/uVos12HNiH4s0vJAxNi8HKyopHekPpO+jkK1nA7HtM/reScUCL6iVqpOGk2W4Wgs8Xb/aUnPVuzFKgFaEWegZX+rVq1SbA4EvC2+oO/9ZVWVO21l5dXQ9QjOrmazWeAOlvOL3SjmArPlYHQgMIPzsQBo7NdGeknSu9nt065ENHYT4uhFlUL1ot5kORNPyK70D/VRIL70KgIFJEArAtFbD7Qj3juxMRj0HQpGQ++1VVQ8ihCk1XDyhF46aaEkJT67VRShi3l7JAHaXGC20Hd5e3ieGmLXFTauELiRYYEsp3TgqFUqj3166pZjauqCXmv4kUZvPAer6M08PV5qJgsKSICWBbHycWlHY8eGUMjXBh3ZYZPVQlbLtdgwGnaz4E1D/6ZNw179+Xh2MdpIJ1KWumqQDxeiHVmI6d8E0jRPbDWdCb2Kx11TExNXnHb7kE5v/CF0bFegY7tTDLrfr8+UAK1AM99+oK0iFg83uHzuny+rKH/UWlZWB7EF0otecA4ljoydXjkwnLpW6m4T6cg3l75MDHKlDmgkcpLujLg0OlwIxBjAqO80P16vV/DvIwOCxWKRIfTMDmB73efxDpmM5u+qNNorPf2nXOloJf2eOwUkQMudhgu2AI5MHYuGd4WjwQ9pDPqDFqt1OxT+Bp/PJ+hmaJPQyU8v0suIQUwsri1xNxfVPCU4Q5+DyGMWwnsIMZLJd6S/wHdh+h2bngZFke/I9CNXAxgouy15siJXpAJeKEo1kkci+48CIVqIdVApdQCJZEBmCbyYQyMQFseJso8eARwZbgjcSEVALwZpuHuMusCtwa/tBY3e8HL/0KBkEV3iOZUAbYkI3NnchThx2VaXa+oTBou5CaLlPuzeCrEDbD6U4tweB5YTJ8HiKw1NrIejzccbk0WnuUKdeEOCaySQCgguC5EoGEm/F5vTh9B1P0DYjvB1J0BoGl71LrxPArWIC3EToEE57qWc2/gNH4FrMjm8VmVKvKuw6AjB6V2Naw343YjLbPiuDO8VuK86Fo+WA+w1ZovZrEFONiSSNMOP2KTWqAU/PHEgPR0ILAISl0R/Yi6Xp5idiTnWk2NX6VCh61mkpIOF/3LPNpIIuByO647pqX6NSvu0zmg63zfYP7JEy+6+b1YCtCVYAl3NXTUIUdrvC3o/V72qtkGj1azGsa0Sb0KxV34uXSA9G6f6oQ3LCmz2jOcNOTsKQCz20UamuEb4Vzn8Xu84cqaNAZJuA3ymAFrjYJ7GlUrVKL6zxxIxBx4TBAiFuRYAMWB4hcFxxYYuDGSdtWLf9npwa+DgFHIVPhC3psFnLfJkUPbbOrRuQyLbughyuMUS8fX4rValUVWrtZoKnV5fpjfodTxuojGBOI2fxsXhUBwFwKA2O1KCBiAGPBb/meta7Bzx4RCCGOqann7N7/OfRNq5n2gNpmt9/T1SCqPFEnae+yRAyyNB2+vbIUHJH/EG3J9GXunOmtWrt6H5OR3J8qU7og3HnAVvSnpnayltbNLv0IvAj0UoxC16ouGIi9yqAj7/beSCvQ7Xg9cBgK9BEhwBi+UCaPn6z/Y780iinJpq3teKhLpyC2IsqyG/Vsdj0dUen2cv8nlvRvKjtXqjocpkNlko0y4AjsTbd6U/EgMad4Y5WvHBwOJ+rhwacX/UD6I9+bBNjI+PeJ3O8wa96YfIUT7Uf3rg7ZyIIt18DwUkQMvTguhs7FwF6+Uhf9j/qcqamr3QlVUDbGboKwYwsaiZK7Cx2MRtsqjFYhUbG3BdxOt2T09NTN5GMutbeo3unFate1Wl1owivfUUpMSRE8O9/jyRo6DNdNV3mjHeVeCxVgcC/oeC4eAeaOu2mCymdcjGWwNR38wcKYMXc3R0IIjTJonFTgKjXI0yxOmJRVpqn9KIO+z2a/aJySG9wfgDBMBf6OnrmSwo0VbowyRAy8PEth1ofcjnd39BbzEeKauoeAAnvY5Oe7KOsaJ/NnAxp5Breh7aMLQpCbg4rxmLl6T/wsaZBCc2hkJxV8CBDUOPMwwd1Q08f/rkmVO+PAy/5JroajxogNJuLYB6QzDkb9boNQ9qDbrtEGZrAW5lYnGTM91yMD/RThDBU8ktczXM0LMIFOmd5ojbp38jH9u0fXLyojwhe9Fgtv5r72DfWyVHzGXWIQnQcpiw1vouayjoflypUR7ChnkC1ss17HBJG4EzXMz1CLFxIIcuCM/gTK0EaAC3uMftngp6fW+DE7tsMVm6lQrVdYiQI/FE3HF88OSKBLH5aNh5oAsSqrwO+LQlFA7WI7RsF+pWPYxEmOtgYLBwskvmxIieYuDJ9cBhlQAdPJzhQ3z4kMEFIVS3Rm/fGkCK9H/Q6AzDp/p7k+ZS6ZU1BSRAy5pkyRu6GjuRl8z7MYVG9UGdUb9dq9UZiSOjF+msWCkt3hBzOZnmKnKyhQ8VkBzQhd2JheNvqJXqU6ja1Hes79jZQ80H5Uf7jmWtqF8kWUr+to7GznIYHnYEg/7OaCLaYCu3bZYrlasQumEi0JntSLvQoZTJYOmAYw6a/dbEhxmDG/xfJiZGR8/JYvGfmGxlz57o7ZEsoZkQeNY1EqBlSbT2+g5dIh7dFYz4f15rMpBf2RaxhY0tjeLv+BGcn4v+nSuQURsQKSNup2s0EoxcVss1x/V6w+lYPP4G0Guyu/+oBGILzG1HfSdyycFgk4g3I2FmYyQRbjNbLQ8iw0kVi59i3VqWy2TmctKfkfM0tUWuJcwR0vzTZ67rIByASqXX7/G87pycekFnNn6zb+i05LeWJeElQMuCYO0H2lHHMnwoEA1+0VZRvh+pmsty1bGwvxOLJHxi8wagBc9B0azv8Xm9bhT8uBkJRN4yGSw/hQ/YBbhUvHps4KgUFJ3FfPKl7QA3GBQehkHhcCQWOqg3Gx4sryhfg8IyQjk/mhPWq9G/ieuil9vtFjg6th6Ls+bS75mUAWSHXJrvVGr0KEDtetgfeDoajz6r0ZkGTvWfSla1kV5pKSABWloSJS+Ab9kD8HT4uNao/2B5VeU2LHIdiZa8uDNs5l2X0Uah0CeKGqDPLlcyQob+zRlVWb+DvPcO++T0mzqVvtdqsb0ADm0wkVCEj/a/lEzFKr1ypkDb/o46xD8cCIT970Uhv/qK6qpNVC2LuGsGLHoI6y25MAsbf+ZyoVmoUwRk4mzCBJh0gEUj4dGIP9gf8PteMpdVPtN9snss58HdBw1IgJbBJLfubzngD3p+2VRmPWi2WNbTwuYFnSuHRouX0gR5PB5B91ZZWSmc1PRvetEJ7rQ7YKmMwkqpeRZWyhewuS4dHzgmndoZzN1iL2na27oGXmzbwJ89ptAojhgt5s2YJz2FrNGL9KUcv0n/ZvFUnOo7E5cPml9eQ+z8y1w73DsggnrfCPl8R03Wiq8f7z1+dbHjuV/ukwBtgZlua+gyxqPBtnAs9AVwZu0VlZVVXEWIODNKHZOrFYwVxLRBaHETt0YvAjWvx+P0urxnNXLNM1SNKBaLXzkx1C0FORdwdzbtaYEjr7ze7XN9WG/SN6zdsO4BHEJCLC4dRDRf7MRM3WJwYj/AuQxBc3Vf7MbDpflSueQi0VD41tjtO0eNZstf9gz0vlHA4S+7R0mANs+UQflvjUYC7/EEvV/c/MDWA3BRN9Ei5pCYXK1f/FhatKQbI30MvWiTTE9NuYO+wBWd2vCsVq39XjyWuNM9eEyqF1nE7VW/q1EBoOny+Vyf15l0+1evrduILBtak8kk+JhxLCmBEa0RDsHKJNKADkXW1XFMKX9HYElWUrVCeXvs9u2jGo3ub/rPnj5XRFKU9KMlQJtjejqbDtaEQ94PhOLhz9XW1e0jfRmduKnwlZnivBwEncsMswMntY1NEbRPTr0pj8r/VaPWPguse7V74Niy9N7PhSalfG/jrmYDqnB1hGPBT5ps5laUE9xAc8cGG64gxZZSzqQy35joeo5e4HvoWl4X7LtG/1YrlSMj12+eRBrQv9ebrb3He7olI9AswkqANosgh5sPrgmEPJ/yhvwfW7Nu/V4sViVxT6Skp5OXP5OIODU1JXyfy4sWLESY6PTk1C1FQnHGpDM9FYslTh4f7Pbm0q5079JSoGFXU40sEXsSwPZhc5l1D0KsVs+2VNMaSRfcziIqrQNWX7CYmnKUllVUVAg51xwOh8xqNk9Oj42fgEPuU3qT9ejx3hPJQF3pJVBAAjTRQjjSemiTy2v/UkKleGx13drtABqsqeRC40wZfGKy+Z6tW4tdT/Dqnwi4fQN6tfHbqIZ+Ap78U4ttS7qv8BRo2t28BVmWDgVjwU9UVFfuLSsvN3OQO4c8LdQrAkGxfxpdy/6KnOKJsxaTeEttw23HEfL5TwV9vp8YreU/OX7quFQrNEVkCdBShDjc3LXJ43f+pkqvexxVl7BIk7GR6ayY4qBnjtfjYr5sQKC22L2DDAmCeIJsFndu3rxiMVh/gNCkn3UPHJeUvYXHo7w9EcC2E5Ejv2S0mo5Yyqyb6STkau1cvZ3WExe9yVVdEYtGPD6X+6zP7f2JxVbx3e7e49N5G8wybkgCNEzeoaaOrb6g58tak/F95ZWVm8TOrumU/7QwOf8Wm935PWWlEvzLyA2DFjiJIdeuvnNLFpN1W022f4I+GS4Y3fZlvIakrqcoAP1aNYI3HoskQp+pWVN7AOFU5bwW2IeNjQS0NjLh4BYiLtYpfLxDZ912x/cMJusPJFCTRE7Zocb2hwJh35eRrfCJ2jVrNrP5nEAok/Qx7NFPC49TNBMIMpjR99SOzWYjUcEzPjp+VacxfVWlUH6/Z+iE5IKxAuGwdX/7zmDQ+/Mao+a9lTXVW+DaIWfHaeLQKGU3ra+JiYmcdbDIIBz0u93nQ/7gdwxGy/eP95+8rzm1+5pDO9JycIfTa/+POrOpq7K6uo7Ayel0CqImLTpy00hndheHxbD+g/VqDHDU3sjtO6OJcPwFo8H8jVhCdrpn8LjkGLsCwYyH1Lqv3Qq9wmO+iOdXq2tX7UKWXRtxZLSeSMFPHFt5eXnOVb2E2GG5POicnr4Q9Pi/DU7thycGTt63udXuW0ADmD0CMPs9c0XZYa1OX83Kfw5loX/TKZpO6U8LigOMaZGy/oz9icCdxabGxi8iePy7apXm6eODJ6SA4xUMZLOH1lHf1eALuD+bUCWO1NSu2oR1IRiaONIgV8dsDnJHYHtg9Nati7JoAqBm+f6JgZ77klO7LwHtsZauh9w+539QGfTvg1VqNYEQp/xhR0n6dzofIlq8rPDnAiS0UOkzeZDDtO4O+YJ9Bo3hr+MJeR90ZZIrxn0EZne5tY7acDjweCgW+Ez16poGq81mpDXCudJyIQknEhWqiOn1ganx8UvEqRkttu+c6D953+lm7ztAe6zl4FacmF8OxiMf2LRl6wYKBifxkjgt0nWxL5E4bfJCC44tWMSRccYEAsNwMHQzHAj9TK3UfR3F3C53970czWXhSvcufwq0729vdXvtX9ZZjF1VNdVVnJwzl5HRmqP1RhEmyaD2SNA5NX0e4VLfgvj5o/sN1O4rQOtq6lzv9Tl+R2M0PL5uw4bN09PTApiRopZYdzals7tFKp3LguuNFhTpRphDAzDGpycmLqlkqm+rNfqnj/d1SwHFuezYFXZv+/7Oh73e6V+Qa1UfXLdpw1auvr7YYbLIyX6RKYt7QBGP902Njv/YYC77ds9gz30jGdw3gIYiJqsDQfeX4TT7UVgzHyCOLJ2PGS0yAiv2HSMRlItqcPEL8i+j6AECQ4BbAKfjObVC8xcJueKFE33HpbClxe7UFXxf296OGpQ3/Yg35Pn8A9se3h2JRjXsPEsHrFg6yDS4fTa5oO7wwp1jIODxfs9kLf/ByYGe+2It3heA1tl8qCoW9X8inIj+krWsbCeZ0GmhZKLDoMVFejUCP9KLMUdGC0icFQELyOFxuE5qVbq/jsnkg8d7j0khKSsYlHIdWtu+jvJYJNQ64Rz/jc0PPXBApVaZOIML6WHZZSiTQ3e+vkD8dHvsjpNIFvlNg7XiWRywK75WwYoHtPaGLj1q4n7YHXB/qW79+mYOXaL3THQYnFGUAJCAkNIp02IjcGM2H5WxRyKB8Asmk/VvXzrx0vlcF7t0//1Dgba9rS0Oz/R/rF6zqsNWXmalQ5YU/KtXr5ZNTk7mnEA0FAg4HRMTJ9RK7V/pjJbe7t5jKzqgXbXSl04sGjwcU8R+DrUy9xEgkQKV9BYkImaSgI9OTbqHjQV2u13g7jgo/faNm28o4vKflJVVfvvFEy++vtLpKY0vvxToOXuqt21vm2/s1kgQ67LLZDFX4SUbGxuTWa1WYa3m8kIxY9vaTZuabl59xyfzuyk75XAu7ZX6vSuWQzvU/Jg8EvE3+MK+362oqT4E8DKIsxgQhyYu+DvfRHH1Jta50X2p/FfR6fGJ1wxa41c1Wt0/H+05et8oXkt9US/H/jXvaX7E5bH/Zk1d7RPI3LGGDkxWceQyHk7jjqpSI6M3bj5vtpT/Rc9Q72u5tFnK9ypKuXO59C0RD20LRoO/bLZZm6FoNbCoyY6vHHye7hkcCUCiAImYdGriu/DE6NgFpUz192qt/jsSmKWjovR7Ogr0net7zWIq/6Oxm3eenp6YvE6GqFz0Z/w8UpGQhIFSfatXr1/f6nbZf7mzqX1duv4s199XJKAdbOjY6PY6f8VgNh7UGwwVxFGRyMjxdJxILxMLEtfa5FJkt2/fDoyPjA4bdaa/Nppt3zrW87KUSXa5rv4S63f/+b7bZnPFn3gdnqduXrv+Flk8c32RWoUPcYVatdlosxx0Oqc+3VrfUpFr26V4/4oDtI79bVZ/0PshjcnQYbHZ6gjIiLviYq+ccI/DldJNCnF25HwriKfxuN8+MXkWSRj/P43W8NPuUy/fV1XI09FK+j13Cgxe6L9jNpd/QxZJ/PPYyOjbubZIvpbkdJsK6VPW1NZuVKrV7/V5nE/k2nYp3r+iAK3jQIcyFgvXhxAFUFVd/RCx2pymRZzah+Pn2NLJ4idn2CArJtdh5ILAqEzuG7szct5qKvtbiJnPAcykpHqluKJXQJ8GzvfdMBit/+AYn/4XZDK+yrVZORMMDZH0a+kSJ9B1JJVQ6iqOHw1HImjaskNnNDyxf+eu5hVArnuGsKIALR6P7PSHA19avW7tvngiocxkwkmU5LAl9v2hVD90opEeg76D3sw3fmf0vEFj/IpGpwdndlTKlLHSdkKJjWfwfP+4razqa36n53vQ175tsViEHpLVndYmpeXmGq4LdZ1FTg7tE0DOaLTozcaOWCz6kdb9jQ+U2NBz6s6KAbTO+vZ1/qDvl8wVtha2aGaiIyMujkCNTjy6npxoKb0L+QLRIoLDbODVVy5dtlnK/1pnNP0MOjPJYTanJSfdnCkF+oZPXTeZy74ecPu/dfvmrZskLQgKfrxzBbJ0bbH0wSFSXOzHYDSt1pkMTwYD/k8fbOlcla6d5fL7igC09voulc/n+aDeauyorKqqpBOM3SvSTQRbMemdODrOlCH4AIXDkfGRsUvl5rK/U2u0Lx89+VIgXXvS7xIF8kmB3jOnbuj15u+7p13/5rDbx+jQ5YgCOojTvcRxyQRmnHyUVCqV1TUwEpjf6/c439Pe1K5J19Zy+H1FABqcZxuiith7yioqHiA2nGsBZJL+hxM5cjgUxWWSEhWLJvTOlatvaNU6VNex/Ohoz8tSdtnlsKJXYB9Pnem5Csftr3qmXc/CMDVJIFVWVpa2ohSRgpOMCokgUzUyyDBGqhSUw1PpTaaHkF/5Q/FIaP9KIN2yB7Suxo4HgpHgF6traw9AF6akU4tOoXS1AMSTRxwdcWfEznM+tFfOX7ylV+m+ZzCY/w06s/sisHclLOiVOgZwapfMJtvfjd8ePQlOzcdSSLrxciYYAcAAaLQ/uHiLII4qlcaKmpoDwVDgFw63Hdyarr1S/31ZA1pHfXuFz+/5RHlNZQcKUtiI2Gyi5hJg6SaAQExcP5E4NafDOSaPy44i8ycKTxy9ka4N6XeJAoWgQO9w71mVQvPNSCDUB0kknonRi51z2ULKOfvYii8UOVapqhBN0+5xO97b0dxZVoixLNUzljWgoR7ibrVBe1CpUq5nHdj4+LgAUJlMNhGVU20TG07i5+jIqNNjdx2rqlz1tZMDUrrspVp4UruLowBchl5KRGRPBX3+y+mKGNMTCMgIvDi3H1nuOeqFfxdimhWKdcFI+H3RcGjH4npWGnctW0DrrG/dFAgHPoVg3l2YMDkpSkm3wG4YHNTLfmQ8eWJfHgY0tnSiQErAMTV9prys8u/kCuWl0pgiqRcSBe5SoO9MT0RvMB2N+sM/cNkd78xezwRWvAe4YLGYOyNwY59MapWAjkDOZDZrqlfX7nI57T/f2dyxfrnSfFkCWuv+Vgtk/vdYK8rb1RqNdSHic8Xz2S4csycZABj3ur1voFbm17r78L9eKWX2cl3UK73fJ4dOjBtNtu/BR+3fAj7/FBu/6PAmKYMql7FDeTpa0GFO2T2EJKVabVlN3eoWv9t5pLW+Nb0JNV3jRfh9WQIairnuiskTH9AbDRvT0Wz2CUaTLv7josLhYPi6LCb/oVKj+1m6NqXfJQoUmwInBo9fQ+aMrzun7CcAYEHitEjtQpIJcWDsgJuun6RyIZ82vl6j166Fc/oHZYnYznT3luLvyw7Q2va3rA2GA59dVbd6Fwiatv8EXpwqiN95IpglD/gDUx6n53k4UP/z8VMvr/isnqW4EKU+ZU+BE4MnLmk1xn8Yvz1yFgdznDg1AjTi0lgySdcqARm5OhEgJiu5y3QbtmzZ4/G6vtDZ3L423f2l9ntaQCi1Dgf8voPmMmtzQiaryKSm4Xw6NObcKE2xy+7ssyBzxvHel++U2nil/kgUWIgC/Wf7XtJrjd8aGxm5RvuBrPTEqVG0SyaGMZJQKCKGuDQCREF8VShq9GZTs8/jamxpaFtWGLGsOtt2oOUBpU71PqQq3kQTJgarhSadwUucNkjQqSVksfGR8deQCujvjva8dEbaOhIFliMF4F70TMAdOGqfnnZS/zk1fCb51MSRBJyUgQwLtatr1wZCwQ8r5IkHlxNNlg2gtext1oVCgQ9Xr15Vj1NFl8npI54IsVGAXTVwKt1SKdQ/hSPOieU0aVJfJQqIKdA7dHLcaiv/DjJsD2FNJzizBnFf6V50LdeW5YOfxFCZXGGpXFWzP+T3tcPqaU7XTqn8vmwADSfFIxqj7lAwFFpDhCcH2kxOoNlGANITCN7T4cjU9PjUGb3B/NOegW5Jb1YqK1Lqx6IocGqo5xSMWt+B29FVjkfOJPSPAI10bmTlZN0biazkymE0m9dEkIpLnogvm4wcywLQWve1lPv83k9abNZHeZKILc4kmwYHqdOpw4rScCgUuXb12htltsq/PNl/TCpssqgtJN1UahTQGYz/EglGfubzeB2sS2MRlNY+ARVxbWQA4ASn9D37rvGeYl0amAFteVXVow7H1Mc6mjuqSm28c/VnWVR9kssTW5Q6daNcoahUpsrP0WCSVhnowhZ4ca4zOrVoMukUQiqWWxaD5XvxhPzVYk9SU1O7Dso8HarVaJATl+YDbttJzxK8K8RVbMQjFT5j7OJ34RbBK0UuV+D/CfxFI9EQrhJ+wA1yQXWYollKxJDPtEHtpdpM6hjp36RqTD45dZ/wj9SzqOGE8MQkIemOuNAFdIDe6ee40EDy/8K9qd4k+3TvK9mXWV8mL7v7LX0Svks+AU9Spp6X6gMGmnpxX5Md5I7Ofk92StQbGhM/k3pPT2TKCf9OjSaOr2P4B/4S4Xgi7j8z1J9bmaZ3USTzL3pP9wRaDrR+dezO6K6qmuo2iJ9KiprhimW0F2gPcIRBJlXPdAZDjVqnbYpGQs+jJycz701xriz5qk8t+5or/AHP71bUVv8CAmkraII45U8mIicDGtfg9Pv8084px0/N5rL/ebK/+2oxyN7ZdnB1OOTfAJDdCL3gI9hNVmwIEwGbQqFUK4HaWGxKARcA4KKXeL6Sn2fAga/iS5LgFQwEaYPRbkVDwi4VkG2ecd+zpwmqUheieww1qQ+McsLeJqwTwDCGLscFQEUmBwJQ4owF2Lnb8ix4eveJxM+co5fvwnTMLzUAqQg4mhxXCp+BtUgwMbNGUpgrIhd3616a4vRM0eYeIOO2U/hOGB0joxKGFo7i1ABQBDFXUxqN9nWj0fS6XKm63dt3croY66thd/1nUbrxj9asrdvEfml8iHEKIfp3Jr5qdF0oGJiauDX63fKq6j863nvCXowxZfrMkufQkFVzO5ZqY1l5eQVZNjlhHW10nqyFBsu+ZkLFc4UiMjk2/mqFtfKpE0UAs4MtB2GddTZ7XNMtqEb1AHixurLKMhvgSwvkUqOPhGOEYAr0W56pL9FC4093CmdqKZ7vGXw/K5QJ2VK+fwIbRArnpX6J+sDAO8OL5TL+mcaSA5gFpkkMx3qk8cYwdxEkAw0GAwEX/m6Eg/6ze3ftOQsx8HRf/6kbS00DcfsqjfYnXud0F/Rg1RAtcVDKZuaBQIzjOjNhCGiPWWBx8Dhce2Ph8ENoqr+QY8n2WSXNobUcaFkT8Hv+S+WaVZ+FqGjlzcGK/kwqnxNBaFETq+2Ytt+IBaJIo21E4Hl3wepotjd0mCMhf4vL6/pcWVXljorKijoc6TYxmMz2l2PxQLA45fDKxNKVQ/PCrbNBjdujQyQTX8Fcnk90SgHoPeoHXiO5FupN1zcxYFJfWLURj8ec6NAoQpOOxaKxn6q0+rP9A72OdO3l6/fWhrYWu2PyzzZu3dxIOjFCX2YGOBNNJvuHxFNKqRX0+yfGb935prWs8s+6e48XhfPMhDYlzaGh/OUug8XUjOyx1qmpKcFpUBziQYrNdKcMTSRdg1PT63G4L5WXVb1wvL9wYNbZ3LUeoPwxmVL+oa3bHn4E/bERMNOG483A3A2DA31PY8sHh5OOQ8lkkSx0DQPKbEDmsaTTceb6fC6kKwZu5srFNM71OfPdT6DAz6E5YzEOdLHhHptKrV4Fy+OuoNf9QmtL23dP9fZcW6q+iNs9NdjTu3fb7h/CN2291WZbTaoa6hvFbhJ9uLRdur5wnkCcTJV6k3FfJBignGklC2gla+Vsr29dHYmE3o9sGlvm2jTpJoJ/p8mjxY7A85tGvfEH0XjijUzvzfW6gy2HHnK6pv6b2qj7lZo1tQ04vW10gvOJSQuM3UhoU9A4Cexo0ZHZnP5Eotycn9P1Md397Gy82Hc+MMROy9wncWKA+fqRrv/pfqcNR4ccW+Y4VQ5v2KUeP80hVw/jeaM5pDWX1FPpyurWr2+yVZT/otsx/Z+b65u2pRtTvn43Waw/DXkDfQDdGHFatMZ4P2TKPYsycyhsFWUPB4KBJ7qaO5IVW0rwVbKAhgD0hzUG3X7MgkmQ4xGeQRPCIgSLkeloStchvMkb9PouqDS6/lODx2GZWvoX9GUP2p0T/w0VqJ5Qa9SbsYAUtPhpQQn6PPSLdIJcL5R6RJuQrmE9RyZ+REs/koWfwOloxFflqpfLZkwsmnOSAQZRBths2lrMtbQe+cDlCkvi9DzULwCKAjViN8AF4v3BoP/ftzQ0b1/Ms7K9B/n8rikVmueioYjgm0YvsQogk6zOdA0dGLQmw9FYtd6kb4LisGQrr5ckoCF1SbU/4H+fraxsM20Y9qFhUYImhnUkrD/hBc0iDk1cajHJpsYnXjebrN+B4r0gytn2xo46p3v6N2yVFZRJdxW5inAmBB4P9Xt2bqq5uAnxOOf6nO0in319uvbT/c4AwtdR+2KLWrr7c+0/rwXmOBhMeV2kaz9d/zL5XcztiMfOhxS1QVXFLFZrLbic93o8zl9raWzdnK5v+fhdq9f/0DFlH8ZaC1N9TrFEMN+BKV6HTF96J4sV6nk+5A94uw62HRSMDaX2KklAw5bYqtKp98bi8bSsrZiFZr2TeJMFfL4RqKaPyVXqC3DTSB8LkuMMAYxVwYD3Iwaz6bDJbFox5cFyJMt9eztXWWL9lclsqS2rrDzo87g/0LC/sWypCXNq8KQfDgLfDgUC1zkSgPYHAWwmGW9J90bcHYnTguSg0VYpVMrOeDSyeqn7vpj2Sw7QWva3GvwB3yFrWdkWmoB0Lzr9WDE8h2I65na6XjPojf96sv/4SLq28vF7Ih5rDMciH0JUw5ZCil756LvUxtJQgFUMLIoiO+xGp8v+JBYufBAL8ZKfQ3qs0zCMhbmWAAEVGdnSvWhvsfgu1B9QKrVUeR31PA8cbD1YcvhRch1SKuUb4Ca5n6ICMjH5z9YJsAWH3v0+37hKruxNKFQFiQhoa2xb6wt4f3H1urrdiDWVF8JlIt2ClH4vLgVY9CVuiLkdrE3lQ9u27fT7vB+p31tfs9Q97O7tHtfp9E87HY53aL8wZ5YJh0aGKQ6VYpcUg8lUhT16SBaP1i1137Ntv6QArWl/i9zrcXdYy8sewUJQZUJwjgRgFwfWeYSCoahr2vG2yWR5saf/eEF8zuAxvrO8qnIf+mTJtpRethMnXb88KMAqEeotq0IIGFbV1laGouHGeCT8aEFGIlc+Hw/HjkF0DBBAsSEj3bPF3CW7qCA2w6I1GvZirxbEuJGuj+LfSwrQ1Crlxmgi2g7l6epMqkLTQMTiJhOfJsvrdt9CKbruWFxesGInPq+3VW/QC3ozOtmW2gcsm4mWri0OBdgdh8Q7cucgMKHvHA6HfM26tZt8/kBXIXp2auBkQK/T/5vb4bzBRbUzcdomEVWc2pv2pZAV12yuRdjeY51NbSUVtF5SgAaT9g6T1bwNBNQu1uwusNTBYCQSDF2yWGzPIcTJV4gF07inoQ7ByVsDwaCVla8SoBWC8qX9DNZZsehJ72S8Ipcd+ItbED31UOO+xg2FGIVCqRqCC0c/xfeS9EOHbiYv9jVkdQ6BMv6sRuzVWCRSUmJnyQBaw55GYyDo74QxoJbdNDJJ4siKVrFjp9fjnY5HY+djMsWFTCYsH9eoVeoaFG1ZDz2Jkn2TloMfWT7GLrWxMAUIxMhlgkvG0bogfZo/ENDpDPpqtVJVEGs4QpYcKpX6eY/bfZ3yCWZy4Cadg5POw+z0TePBwa0yWW1b3W7nY+0NrbnF5+VxAZUMoClkibUAhIdAZMGUTUTMxPGPdWd0D7HDZI6GNeeazVZxrGfgeDSPtFqwqXAkvBaWTRtdRIDGIVqFer70nNKkAIfmcf4xfmdODa49ZbAYFozLUak1xwJubx8ANsqRA7MpJ/YppM/EzRGgcU5Bup7GAfcNCofamYhHS6aYSskAGpIu7lFrNeRsiLQ3CcHvJZMXXUunHYeaJGLx8Vg4chYhy29mcn++roG4CTBLILfZ3WDtfLUttbNyKQDHaz3F9+7b1ViQvXii74QDB/+/+Tyem7nG2YLbMyo1qh3RSLggTsKZrIKCEDFdR5r3t6zzB32H9QbDGg4foZMtE5FtdlAyTNNwIDQ/c6L/+ES65+br9/27DijRXyMqiakZ0CQftHxRd2W3g3WigR7NrFDICya2KVTq00Ff4FUAmpDqab5XJmtYpzeshuH0YGdzW3UpzFRJABpSrayTq5UPgaXVExE5PCMTPzS6nkU8iJsuxGxeRT6oc4UkLvkVgUPTI4mhcq4QoEL2RXrW8qIA1rgKSxjrXlawzDexWGJEIVeeCPoD42JqcchTNhQ0UZC1UrEjHo0WRA+Yrm8lAWh+v6+5oqpqLSdtZFeMTHRogvcy5HtB8epyT2p1ur6TfScKmt6EUlwTqCWzQScrsy9mcaSbLOn3lUcBrF9aMLQPC5abEKmFYtgnJz0u1ztMUbH4mY0oir2nNlktW3w+765SmJ2iA1rz/tY10Vhkf1mZrUwMBJlm02DRFPnTw+FA8KbVajtdaMJy0DyiGwRAy2ZBFLqv0vNKjwJYMyT9FbRjiJN+NRIMDyPLrj8XkZMsn2artSIaizZ0NbcXXewsOqAlYtE6vVFfBzAwcGodsdiWbpbZE9vtdI5oVOpemVx5Pd09S/X7bHEzEx3EUvVFand5UADSCBVjgPM9ahQU8NV/uj9oMOhPwBl8VMylZQusdD3qKJh1Rv2D2MsSoEHcrC+rKF8rrhdABM5UZOM0QfA7uw1r5/GjJ49OFXBd8KO4+Mg9/ZYArQgzscweKYRDiYq7FLL7MA6cczmcORUKEiIhEgkVIgc2QOwseihUUTk0xG5Wx+KRA2qNppJ8yDjXOQNaJo5/KX2bFznPR5EiqCg1NiFphkiHxmIyGzayPe0KuZilZ5UGBXAgc6WqgunQeOSnBvtuoBhYbyQcnuKwQZYyOG4zHZVo/wk6bIXCBuPe9q7mNlu6e5by96ICGuob1SJv2EYAgWaxgyQHVsRtunRa7TC4X/di28nTfYVVhOSp01IzRadA0daNXmcYcNodI8QpcjIIAihOE5+OMuRgS6BGPmkanfZBaAPL092zlL8XFdAgbu5AdEBtLgMk4jun7XdMRvMArJuZBafl8sA5750pSpv3lqUG7xcKFNgqkCIrkPSM1+m5CGkizJl32csgE8oLKe6RplupUmk1ev2mgN+3PpP7luqaogHa/p37tUi3s1er0+aE6AG/3wMfmBvgea8vFZHStTt84cxMgdt010q/SxSYTQEch0Xj0AaGB1xajWYQ0epTXGGd09lnMlMEZmzMM5iM1eDy9nbUtxTMSXh2H4sGaDqNpk6lUT2o0WqtmRBuvmvsU9OjGrV68Hh/z61c2snDvULp8Dy0IzVx/1GgqAciMuiedbvcY5xbkMVNjkNdaDoI/IhLEzJxqDVWuUq5E0JT0aydRQM0KCI3wBiQc1Br0Oe7bTSaektgDxSkmlQJjFPqQj4pkDIFFNwiIBoD0PQqnNKvINImmnTDQOA5UCmT85n1bQL4yeVmjV63CXu7Ip8kyqatogEa4r/2gkXNKVwCIU8+LISbOCJuZzPoJbq2qKfsEo1JanaJKYAwgeQT4Fy7xI+at/l4QmZXK9WXAUQuTvJAF2caekjXMvhB4loFNdBDxRpLweLHxANs3NtU6fO4thmMxrRVnRYiDOR+byIev9kz0FeQAihpJinvHBq8uAPhcMgZj8VDGCc8MAVdS9IRU1hFgguTaCOIznmKw6KYGoUC8aXIYHLX10m4S7g7/UvMOPDnmT0463Zqj8IkhE7FUVg11bNkWE/yLiE6LPme/EdqP8/s6nm6lOqrMIrkZ+HOGWOMQAf6CkU81DTeWeNbeKxJYs5cI6JzMnUK6I03pLxTG/FnoUIh6UmX+RXCIzK/PO9X9g71xuv37L+McU4B0Co45JAtmAs9kICMRVUSPSF1mRHX/EDr/mbDqTN980Yh5H0QqQaLAmhItV2j0WvXgxiadM6n9PvdKtRa4TP9UVbY8ZGRSaQTLmgg+nwTkVLsZr0uKXSEUiLTOBG+JeRRczmdEz63+zK8ey6h7NmwQq7wqJSqMIXIpNY+fBlpC5KDOV6AtySMzOwL4Qva2PFIDNkcCNCSlxLeJD+zP+fMiMQsQhJgEgQMiFNNfaYmGU5m0I36RNteIafOINBajuIwcex5pZdqKuN6Fe5Xogn6TODGADeDSCmQowfOACjuZVBKgTj8N5MPZxrToyhbBIEN3RhDRGQsGgxZkacrTv9OjQyZpFINC3G2yYBbAWGTn1PtJcEx5dCdIpUAzORfGII7gibs969xhQLblVr1XnOZbSfAzZBu/abbuKn7hR4V84WxvOJ2uG6WVVQ8yBlsyI0jXcYbwbEW4ia901oGh6ZHW+vhm0li5/0BaIgjW60z6moznUS+TlwVG8ROBHx+e2VZWbGNAbwOF8Wh0SlISSnpdKPEBfDcnoz6/d8vs1h/DIXGq3Kl0t3dcyJZ9noRr8cPHoLnJuJqYnHZ0RPHswbcdI9srG8UpkcACKRwwH9kKgRc9/T33tPnpgPNKW5sZtYFJOGdLN7OwvdJfCYMS4JxKniE+jN4tn/ecRxs7dQmOR6Bq8Ld8riCAA06oRePvZzT+I+0dOEsVhrQ3h7PtOM3ylZVP47uCDnwcn0VF84E/nQCJ80b6EcL6KbnWgLpxsXcGYMa1oBBpVGvBfmtuLfge7MoHFowFHjUZrZZMwE0Wsp8HcvptPlRos6DXXob+3QsHdEL9PuiAI0zgdJpSH9T4+MXbGbTD+JyxfDJ3pPhXPv+wrGji+pXps8dGBoQg8S8GYL7T/fxdTmBSrp+HTt1PJTumsX+/mJvN4G06z1tXX36uFo7fvvOxlVr6x5dbHt8n8AvFlGHRv1AbKfnwM7dF5Ht2anSaCjp5My+W2h8BGQc0ZPap0qFRrU64PWvwX2Xc6VNtvcX3ChwYFeDMRKNbEPcpSkTK8rsBI5sVUEupymVQvlKNBZ3ZTvopbl+cUpdYtPpNCRREyDtx1F5KRSLXz5+KncwW5pxSq0+29Mdhk7zpDIuO0sCfx4oQgL2kgJ9Jn1Exui3PW6PkHqL9GiZGAUY+MTvEDvLUKhoW8OuAwXHl4I/ECy7FUrDWigPDZn4uRBxUyfYTOA3/RubfwI5nc71Dw8WpKpTJgtiMdcQmBGoJZNaqvxqteZa39BgsUO4FjOU++oe2FoiWo3qGhlu8jDwpJqzyC+5QnnH7/XdoTXJomS6LgnivcgulXT70BqhUN2sVChI7Czoq+CABifYMp1eV5WpFpSTNxJV2KJCXFs4GJwCa1wK7hqy+r0NUKss7sVOjLQwoEiFkluRs5i5uJ5Id2VDgZcHe6NqlcaBjZ9rIR4CM+Lyig5osXhiEhb1q9FIRADpTBgO2p/i62iPgtPTq3XaOqVCvvIBLRIJV4EltWRTuXn2CQB/GV8sEh2NxGIloT+DBiRpxVtE1lHSm/EpR9k/cbJV7du1r+AHTTabWbpWJutqaJIjxcsDOJD0udMjaavOvZ3cWoDc60OQ+WswUrkzrVrGgJY8kJPLFtyrxmAyrIrHovcFoNVpNGpzpixtyowucGcseuLeANyy7pw+N+zIbQrzc3cKkBRJV4jsXhw/R3URYIkzoRzePnB7D2fXinR1oSkQjca3R+LxXfBPWXSmGO4z1k9JcGiDZ/pjKEb8DgoRT1MltUxeYrcNPphpr2r1ugroygseAlVwTgDKxnUGg9FAxMrUyslWFGHT4ySAJcal1+lezYTghbhmYLg/gtMJ6zsmVNERT3K655PylcEdorSqorpyL0qbfbRhb8O2+r2Ni5Vk0z1W+j0HCrTsqV8VkyU+arRaHsmhmRQ3Awe+eJycgYvicTC7/9B/3URFqFFKuJpJPkIxY8Lp8GlN6/UGVEGLbsiVPtneX1AiNu5rtoQC3lpYdDKD/9RomDvjKumwoExh08+kDs520EtxPfqoXExourjISwoI15qspl+IR+Oroc/oO9R5aJD8Y+EsGgNoCr5c5FWLxSO8yKuW3uBnBt/POG0OSlBPTqz0WYVDgPQ8gsqSXAOSLvrsOpb0HhMdLkkn+xkYnfHExyWCV9iMA++MXy4qXQm+YuySiiupsgLluCPRA/+EjkmgzN0/4Vp68VsqvoAnJuk/K/yIHvChm/rnjLKJOkd/xN1Q+UAFEQM0w8ESjyQdZ+Xk6EsOyTz+1EeIR3e/Sx5Cyevv0ijpCUcvLZxrHWiZghurcN+6cDT0PmR7fb/Faq3Mx1oSOLRFcPf5ePbsNkB0ZzgYHqO1kqLvgo8Rq4P4MKcbMBd6NFDduq/ZdGq4z7sUfZ2rzYICmkqpsIUUcqoSLdSvzMRtQyAOBb7Sik1Vd0JA+qhOoy1Gqu355yXpBZ81R0UGDj7ZSPxMGT7WQ5T5JTT2oXAkMorNFJYnFMLGE7ZYUt9CnvnYCKkwqCRAkGEhBRNAGTIyKNRBtB9LARkbLwQwIOjCohN/x+NLjWPGF0kUFwTsEp6QBAEh4yquTqkGqI8Ub0UDUaNr8KwRyHJPuJXgK5t8sfP/XKK64MpPwMNhTuy/O4vORAHhAbgwhv9E8O8wgTxdR5B/r76doh2SKy8VYJEczl3HXQHIksoDIVhBHkUVH+qKWq0yQf9bYzRb18Eb3iTOsLzYDSs8QQj5SEazlcBrAjMM40DMj/EZM+kPq4UEit2VUHQgXw2OWmJeViagYeAWWECEhI6ZimUslzOYwSDgjUVj43GNzJkJsQt4TdZgJqYDidNk8aS/lHKVoKFKE4uRRXhe8TzTQ2Gp6CB+/uy+LNTvTPsj8JIZvubqSzb3z/UYjuSgdugzH670b/YhzLB7C10mnGN5aCfnJgaG+yKPbt12JxwK+5C00ZiOfuI5ZvrTdxTvioiBWkQMCOqlQr0KyqFB4b1Ka0Bwb4rTYlEym8FC3PTgSBtBsZyCoX6G/RP4lAyvnbmMNgnpHIhTYx0h/Sim0Wy2nn4XL56FnpmJc2S2fRZfz3PIC59Pa17ouQJuOtcBfg4/n64X9yndhkw3duagaZ6oLZoj4sxQFFu4NV3/0rXP3O3pc4NZr520bS/yAnCht8E4eJBNOq1SXzzP7LnAqYc0Ol1NxB/KiMtbZFffdVuBAS1SZ1Ib0qL+QoNDMRSHUqG8efbShZJyqF3sauTMBpwkjzckB+Hz90wT8QaljZsOsMSRFnPRNd2GTwdIDLzidtK1mc3iTdeW+FAUgxt/zqRY9UL9YY45pQqYEamIrsFgUODa8vBa7PLJw6Pf3YTOoAPDEM94f4kPM2pN4NDAtAAYy/0ubxW+KljxooICWjQcXgs2VjAIZMqd8Ybi65FOxwNdRimkC7p3JWTPnAn304nPFXc4pzvTZy4wmb140nEImViqctkVswFzrsWdS/uZABpzBrPXCt2b6/jJ2ke6TXZjIIBkkCQuLR3g5zL2Yt2r1eunPT6PP5M9KuaGxbo06jv0p0b4neacxDUbOhQU0GLxWBU2rTZTH7S5gA/6M79GpbJnM8hSvpbTs9Bi4DRJ4k3MHBgvnNl6onQcWjrAywQw0nEwzFXy6SwWQ5Z6w4vHT88Vb8LZG2wx68BkMgmHjsfjEQ4eAjcCMhozH0aLaVd0D1t/c2wmj7fL5SG4RrmpCLJgWV/gNZ/KIUl7mT4SieZUBCnbURXMD233jv1m8GUWnJgqWhiZBr+yBXDGVysaDYLL82Q70KW+nhRo6cBhrj7Q5qDNQhwA3U+glvTj0c+IN8zB8YZlkGI3lrlErUy/400/33u6dhiEuSYpAxiJY4V48YbidDesuM+UO5s9PuaS+Z1y1NEcsWhN46TojkAgMMO15TrORTL3uT523vthGUYuu4QDiJQ2rEu8JmfrLjEnatDNun/bboqkKcirYBwaNjwlc6RdO/NMJsZCI2UFI12DjUw5z/1oo+CJ45ZqNmhzEBdAog0rmgnM3G43ORCHAHR+0I6y1Qq+SgwYcMlIvpKJXzlfIXJCCmbBpANZ0kmN/bnYVMon7uyTN3NzYpIYIm8xdE6pTCBQmxwykE8G/4GTMGICqb8pl7MZi8ksN4okX8f0TX2aqy+i7+66ywmcLRqIwm8Kljk5AqIh5YSV+DeBUIpEmc/e3UMpSVOtRpvAHCkxnjgyLKtw2AguRzabTeZwOGbmLPMnzHllSenQQNIIJRUFLShdkjDexbwE9x2ZzIJZoPCwghjxCgdocoUBC0yPZS08M1Nu5l2AFo8HsUULc/xnMYvJ3Z196BNxOJSxlgAsBdoyL1g2r9P1ZiQUGXRPu66DViFs1BjeBcdYLJCUb6zwTPLBSn5NMaXk6IoMseSbBf8pOTZiFPQSssWSSomuE5zIkt5j5Mw2w6Wn2hGm5+7Q35UF4q4PWcpZFqBCqb6FAhtwpoWrIayBsShlc0VyRQU51pKTVeo+IevuPS/B4WwuCBNtc3YWu0vhuz/iucIYogBRtVLlpXcaJ601XCV8TgJ/yn82+XThscmlmHw49TfFsc0420IaAEcWNOp0eudkZKIC+ZIfsNgsW8G5bQSoqdMZXdIuIYb7tBcW7gJ0KYT5pAWZlkNbqFc4dFXwsCavhpUHaNiQBo1WY8KqEdjPTAGNCSaIY9ih8AQP47BcURkpSBdDIqfguhEK2SdHxp7TaXT/BH3NmxqVZrx3eCCjhdV1oCkZJZBKdx3HZjx5dlBIeNi0Y/8MZ0aAlmScZrz/maMTyJ0EvNROm2Gwkj/MdofGjVTuh54ZB2wozr1xQejrvod3aYmrpP4IbqpJsBfyfiXdbBlPUuCSyvSd9GW9u03uZgpPZQIX/GSTDaQya9PVSmpNpVApLrx1Kbh90zYCd8JV9EuOgyD1tNQ5MMPapg6GlDiZBDG6U550YkYDpENSn740HGjd06JRK9Rk0iyLeEJN4UDoE1jTj4Fry9UtgfpfEj5oM1RPyIKYSjc5ZOcCo6AjhE4V1EyKrCKDcnlmwTg0cP965MVHfFeyjl8m4qZ4+9CiA5IRgYNYzhlt8FwIU8h7CdBSUQJxv9s7oNdo/06t05/uGerNapzdp4XU1ESjdy3E/ktCMeQUXuV9dLwhZzbm8OsXlixz7BzjuAcQLr/zqhBJkadRCnNw6lwvHaL05+3a2/bjQNDrc087KwBobbk8JzUpJSVynug9Ft23c28A6zIK14tFDw97XAmdJjnW5iEjSWbdKJhRAMeqFeEiAnVYEZvOAicGNOIo6MQA2ntwhma10TMjRW5XLcqrFo8UKuXAckZK9Hg0Zg/4fL1gBF7JFsxy6710dzYU6D7bE1VrtC/FAuEzEOlzVX+UHoeW3KMB6Atz2mdoQ4Fi4gbs3ZUHaAAjk0qlFBSMLG5mY9IXroXVBbXEHLg/J1Y4m8WbxbXZKtWFpsVWNYqCgA7qSt/wYEEUqFmMTbp0FgV6zg+Ekaz0zWgkmutcMVddUjSGUpSSPC66OA8PBk4NOuzdvHgfZ0KgwnFoQGnKwCDuVKaAluLOCAmjMAV7h84N53RyZEKYrK9ZFJxBNqTsu0jBTZbNUDgUAovuzPrZ0g1FoYDJZBzD/OUoWifj5IsygAUeCqaB9Gg5Mw7QSWooSUGhxlcwQIP7AAaWQNbsZOwicyfpBiooZ6E/oz8YBWjic1xA6Z64uN8FZTzVus3yxT55BNqwdsIRMUKhItJrGVAAmVDW4oDNySiQSrJRcoCGmh9OqEFyBjQwMci6kli060e2y6BggIaOqWb7oGXbWVxPrgulx50lB5I1mPH42Sk0FA7bvH7fgX2P7jUtgjbSLQWkQPvexjJf0N+F7DG2HB9bkhxa0r0vd86RDAMp15kcyZTZ7QUDNAwKWTmFhHszOrRMXDdm6dvisJbmLNdnRprsrprXlypNM8yBkoHEVlZm1hn1+5Vyecv+XQcKdqplN1LpaqIA3BE6DTbzrlypQZrhpOtLib2gp4YeLWfrKxkGBGamQK+CARrmjTboPT5o2QCawAKh6nwJc2iLSvDIIWAEaBDHFWs3bHg0FAn+GnIzvrf5QDMlw5ReJUSBrsb2je0HGr805bb/ltlm25yXrhW5yPA8Y4jnA2jhYoU9n3SmL8SrYA+CJyQZBIQEpJkaA5gAM+E+8ActUQtn0gd9ES82eJAuzeVykXHAVFO35jDcN9YhFfLpPTt23aZTHJkLENaT9N/DHxemnXFYTfqtCk7vRGPBuRZOyGR0iOA3ISU3JZhNubMmnW9T3vMpF9p7+j8TsSQEGc8c1IJzbCqWSlAY4lnJAh840fE8+JoqkN1VjpTgUSMstohASlqkU075QkzAXW5W6G+y40ny3aWiEMkgPEw4dAVP3JnXXcaBxor4LmEd43CAIV3l5vAkRH0poZSmkDGxHy+52Yp6gSsEqgiUTT1K4Jho4JAIEAERj+so8gLSgSqcCG8wWE3bN9RWr83Rq0G8WnLmhBax9NLdQg7T+egXpTguGM4U7EFYHULe93RUnP37HOCXDyJn241Mrk+G1mT5IiMJxXFaLBbhTgqGhvM5vtbsQATUdmuFLZB0i08BWXJz30UYcWRz0ihBKbBn+pECnJkgn1QfU+ghPPIel/056S887R6y8z8o5ImmCM+UJxC7KUOoEHnXJ2DcUGo1mjgsuEJy/kzIkgpPEl8q7puYtjPjSRmZ4JKuStCz4NOHbkSopgGBOV/Hbd7ThjD4WWLCTOxpqs9UjwGHDNVtEOo1UCKBGLhpiuyguVqxL2HSMpq2NCQQDteVF5wO0twjkmXLpQnrLmu4KOhyW3TviDsjkZNiOunU57Q0ZWVlcmzKOStkzXCtqTjE2fTkfZprrGE6tQDzNTwGsV8dxUGmUwSmaz/dOmF6AcCYoxMeKU7LtNAqmP18EcAJ7QkRKgBKmhNyramoqBDmB7Urhfc8JXgs6ELN8GEUHrfoNX33GUINh6wZmQz7+K7LCsah0dpIcQcznUge7QvTTHxNKoxvsWNd4vsWh7i0MaxWq8zpdAoRAxQaSJuUTn+z2Sz4qc2wFyJxnTe6OIGhGOTSAUGmxMhkfsRtsQjNGXcziQbJBnBmX8sAmuJgBXmYUxplQoN011BblAWF2qc5IVCjF2VJIa6a3nN+5YMRyrkTsxoQ1BN5YSGEQjz57t587RUM0GhBwLdFcCLlTSjOpDFfB+k+WlR04qY2RylOP089iSX3WHHTbRgSXYgmdNITXeiP89ZTW/NlXBXruGbTTvzMdIBEc7DQK13/eQ5pjgSFWEoE5srbubafbiMI6woHAT2fn0W0JBpSX3LNWEttUTvUNh02nK+O2qWcaOnGl67/1Lag4yy1F7z7KVQ/126ROhdjXHkiJ2Uw4A3LefLFG2A+womvJS4Pm7xgxMlmMqFZRkowxUzVpkxFPbZyEi04cSBxAcSdEdCJAWUucEm3YdP1Ix1gpfudAXx2fVHmmHJVnKcDZKIRXZPKmCFMGf2bDkB6p99zefFhQ+Ok+aFxUv46eh79Ox190j0b7ZGhq+QOaRhB1NB85SxyCsaWdJOYjkhZ/F4wDo0MddCsUpJ3oXvCyZRBqk5O75wSPaGBjqdTy2Qx/PxdSqcsj4nfM0k1LkRAgLug05/+yEBAG4VTPHMu+/l6mk6kSwd4uVKAuCOxvk6cc5/Gluvz060Rej5zSSxuMk3y8XxOt0104qzCND8sUnNSzsXSEe3QuingPsy0pwmcCbl3C9ZuYkJybyjDbhfsQQJjnQIxMZilA+9ZIpwSpviC5VbKkIZ8mYC5c41xoXZYxCTrGW9OEnNoM6aycIg9yTln7cypTie8qH0+UVPuHIjmhzMFJVikMyRltJp9jMx1Cs98twCgCM8VOKO7jQtWVriXoCwjTK34kSyDc/Rv5qv55n9mIHcV00mVTvKHmTZJtKSRCdIuHFTxQwx9Jn9FSjJLKXsFVxORyW7+/tzTdlK5GwwEyWisgIGDLKl0GmtoTdLckBEnVw6QrLNkFc5yrS355cgcpJORn1COr0KPr2CABpGTwpaSqzHpgnCPzmU+uvHpm7peiRPN3NHcqjjRd6qkvKvRP3hWC35ywiZPcZRpuVC2ntGpz0HqVLXaOT19A99dCfgD01ThG20igECgH/lVUfFJbFxkHIpEhGywKaElaTdBmiU8n/6gSJIFkGVRCGOhDT/LFk87iRatAET3/CVdNciHCN/PGPCT4JD0bBdAksZNMayk+E1OKeVUFIybVBJJm/q34PeGhjhFuOAUIDxwRtwSxpYCm7v7G2NgYxI1TK5i3E/hA4AlAv+3OKW6AdBARkfldOC4UIocL7QPP7wZ/wO65R4fPOGZM20KHwihWU4CmCkxTmSLwFhUSK5gKbPUlVeWb8d81BE3nauVE32nQ7Bg+zBTfErEY0iZL5S9z+mVLGC/Eo0CKX8n2ugsRmZCKRbb7oqcCSMWHG3CkgI0YaPTxhaNLx33KezgFMiTuEmf/T6fe/zOnZeRG+1fNVrdBYPBaAcXFgfLk/RKJufi5AYVHiXUDOB/CV/S98SjCP+N9Z8byDW9TSbTdM81Ox/eTfUjNOivSlAsCziR7DxDFrNJyZ/mfgThkQCrd3nK1NCF6zHqpBcxrQWMVwBxfAidf/18rjnKZjrUsKdJPXiuXwi3a9nTiIgn1YPTIxNPyrWqj9fWrd4FLM0JjCLRCO2HnIEj60lKcwNoqcW6y5lDg8hJEzjPDOe71wWMsRJOWvb6TomemWx4sXhKXAD2qZ6MTvknRW4t0u4S/lJjYz1OujHSCU+uGyTC0GtybPwCoOsbar2ub2B4yJVbr4pz9yuvn+fsrsXpQB6fymBGTfaeE1Khv9qxt3kkHA3bx+6M/k5Vbc2DuTwO8x+DWJYH349cevHue1FpxgrtzuLT1aaapPEFVarcLDNZDK1gwEDnKHEZbOlk/6F0fWXrWQoooEOLG3Gql5xhAHqWGEQS0qTOpDtKB2Y0dtbHkMIZbgC+UCA4pNBozi5XMEs3nyvh9xNn+xwQRbsjgfCQIObm8EKFKhgYSotDa9zXTBpQ1BvW58R9EllCoXBBjQIFAzTmXngTZyp2cg2ClPuGCqKFCWBYsAyYma9VoWIQYhhRF0jkDJvufhanyCiAVeRBRt7XB84Mjae7T/q9uBToPT94TR5PvBGLRHMqqSjIzQXUMWVENbmMDG967LOcAS21bwvGgBQM0DIM53sXvYnLYc9vsK9UpJiUsyVn6UwT8DDvOkpl2RA80FEVPgTRc8VUhc9o8yzji6D3vAKjTM46yhJUoVAyVipDmLMOjawrhYwUKBygLdIwzX5atO4J0JQqpRZsUAlyaIvbmWTlpD8SVVH/UQlLp3VxLUl3FZoCUOhXwxCYI/dBR2HhlOYZ0kgHi3059l6OYxOeRvlUCoYzBXtQhoSc8zIWy6gSM/RwxmgkXLAqMpn2OyU6ZHr5zHUUD0gVn8htQ4tqtuDYNmTdiHRDwSnQvKdBEwgFd6LwZE7ZhVOJUQpmBcyEUIBYnVKtqsB+y1nkTPExBRtfwQAt6daUfT4SAjP2RSMnTfhsGmGBKctkYgp8zaImjYCM4wWNJpMlJos3Hti1t6HAfZcelwUFmvc1wdFW2WCwGB+EH0dONQUEDiY/QeBZjGDhS+EHaYBjNPLZpQn0zfiJheNACwZoSSjLXu4U+SAlnVVRsBg+WhVdzR2LApCM5yD7CxeVsZYyOFBsII0NYqfaaDHvDwT9XwKotex9dHfOLH9rS7uiuamtoLRqbGgp6POyn6rF39G6v9mMeIEjwUjwS3KVatfiW5q5k0SykqIXGIbyXIu/iOmyWOllMbTNmaXM4qGLnjQGNdIzIQTFFAsH6+B2bsaz3Vk8f2kvXaSegILQOW6TQmnq1q6tsBsM77dPTa8BQp5vaWh6nUJjKJYIYJ50UMUWoNCepOvbzCGR2hgCGyy42sK9hbzidPhXrLOtM0Y+t6kwIaJFcj6EjLH3pNudLSWk/p1s9e7iFP4hZM6F5Zkyw1LrMNogT3osrjrU0eWFz6CWHGuTkUkpBTM/Ndk/6gGFQNNn+qf4xEtemXwMfZ90FRZewmc6BMi5Oij0gDoml0Xg6GpEdAJFCwgv0Il8x4QIDh4mZ8xNufSSb67AJQkPhA5bzDLR/TDW4MShMC+5JhAMbA9HYwcqV1U/AhWBKdfg+9Q0LHpvLMWijoRC1UazgfZXvl4FG1/BAC173ixJS1pr4owOaq3WGvH564glLiVAo007AxJZLAPaEJSGhoKcSfwU8qBZLDaL1XrQ5/PWh0NhH4VUIaxOaF/YyMkNLsQvIlAgBRGpbSmABKMAPJmTwZa85QUMEnJOp15iDlh84yxuWoSa9/r6p6zQpAoggKF4R9IJKlRaHfZFSA3RjL5PxrmJdi81KCAzx3qmesS+e0K/hH9Q+EXyR/SbQ7tE3U/GSgjWYoRB4dkolagCriF0gBy8EE6aZjpmlPLJQQqAmfxE8WWRmEyj1ZD/IzS4KpXNUmGGKwJVA58px5jFdL/rUg7m2rOzXn7ulaHFbpNcuvCue7EmazCfOekG72m0gKMqGKAJjrWpzKzsVDtrM805KalUysLaTirO9WVemaMOS63UDAMz6aIzcajlwdK1HA9I9CAujf3YtFqdif7yuloL0Bg4F+EplP+u0C9dKgHjUj83mzleqC8E9vhTnrtUGmC2Z1e9LuhxrsIc6ni/5kRLUhPdy3nn1Fy6mwsGaOk6Mt/v4mwbQmiZRmOEqbwcRYdLbaMXjK1eLC2l+0qRAiwAl0bfAGJW/FWp1GpdutRUpdHje3tROKMAc/FZUoG4Fs5eIUhPgHu1Rlvt8/lrsmxqSS9PiSkSqC0plVde44LImVLflcToEgmbSqNeB9UBuRCVRJey6UThAG0RLhs8EHE6HgI0KElsSKuzNpuBStdKFChRCixK97pUYwkG/Wu0el0VMxJ5ek7BDvrCAdpifDZS1GRA4/hPjVZrjkai69oaWpO130riVUDNZ0mMV+pEPihABzT9f9+j9QXb9Av1OxQMbNQb9LZMsi3nY/z5bqOQgCYkIlzMANh4wCwwAM0AE/pqNeT9xbS3JPckOdBFjW9J+iM1upwoUBJc2q4de1QwDW/S6rRm2nP5MnwUciIKCWiL2uzMlQkm/pSiigBNo9NWRcLBkuHQhMHdTURYyDmUnrW8KcA+cEXn0FQKZTVcVOogERnZuyAvpC2glbNggAYwolTNWYNayoHyntMCxFZrjfo6BHNvzAvBpUYkChSXAkUHMxp+PBatMlvNaxHDSb52efGzE6SWHPTn2U5LwQANHQvCgZQcPYU+ZmpB4TJ2dE9S3wB3cGSnMJhMtT6vt7Wrqa0kUglRnCllSqH+sZ9d7l7k2U6ndP1yo4Ag2qHTZy4O3a0oXaRBhEOhBwxG42pKNko+n5xFOZfuJJ2b5QXLyFtAQJOHU2EoM/RZBMM2c69aq7EoNZo6tVpZlwvB83UvxiYU46AxkWMsAXYeUrLnq3tSOyVKAXKsRVCDcv/O+qL6hO7f3WhCvMV2RHZUUORKNkxHGtLSSU/hZwV5FQzQyNGf4g/zpWhUqTVmvcm4HmxfVUEolfYhmLRkbOEMoOUtWUHaZ0sXLFcKJEvYCZWtck6mmAsNlCpFrUqreRT6acHCmQ/uLClVyajaW05pyrMZV+EATSYMiirzZNO/Ba/VGfRVKDCyKW8N5tZQOBpF/LfolS/wzq1b0t2lTIEkoKEUYJFTCIVDwc0ms2k9VRemuOJ8rV0kKohBpF55gAZFAWVAmHE9Zn1YLosNsYJWFER98FD7QVsu7eTl3kQigLQrQu1REjXFVtm8tC81siIpQPVEseGD0A4X1S0fks4Og8lYQfppkixI/5upnnuhiQGeRZD9ZAUCWhKlo8yh5eMEAKCZAZSbkbKh6P5oWAQOnEaC8pNDtPKxIFbkLpYGNUMBKN+DUJq7wKAJtT+L8Wra3wK1TeIRuGzYuH4Hr+Nc+0P1UlekyAmWhYwCebXkIDeaQWcybAn6fZtzJXyu9yM34xTAeqZgRj4AO9c+SfeXPgVwCPqRGmry9CsD+dPFZDnsRCxaYzQbN+MgNpO4yTUu8rGGkWwuCsAuGFgXTIeG2QphwxOoCeTOly7NarOtg/vGoSOdh8qynMe8Xo5xTSMR4DT7zVHj+VgQee2k1FjJUQDprp20dorZsaDf/7BOr1uDAj1CXj6x2JlzvwBoEKdXHqDhFPJCgQ95OulLlq/QCqVabUPivUdwylTmTPwcGojGYrcc0/YRLIowi5qSyJkDQVfIrRwTSTop9qmkzwQc0FsFx0ZGpyC2vF2s4TbsaSmH7vcADGyVlIsPe1RICe92u4U+5voK+gMBFGVeeX5oJEcDygTlIIcz5YNLg9ipM1mtG/w+3wO5Ej+n++UKD8TO1/Q6nYOyttKiJQdF6XV/U4DWAnE+BGb0mdd8ipN3mAymi/CSKBgH8+7ZiK1H1M1euGlYWH9GDAcX7sll9sgpE4WzoYaR51SMOZs+FEzkBFsWAcGizLWwN302nZ3rWloYRpOxCqmrG48cPFw0sfPM+YG4TmcYtE/ZR3hhSJECuc7u8r+fU3Wz5ZBGRD5eJNa5HM4bZpP51OmLp5OerEV4+byeRqPFtGl2dloCtJzXL7waME4f9nzBxlc4QEskQkj542dRM19Op4IIq1DYUEdwcxyFX4uwJmYeqVCqL9unHH3BQNCTlwVRzMFIz84LBehwIwCjdUoe+MypQaSb9nu8g/BcfDUvD1pEIy0HmusQ19Jstlqq2DLPMZzU31xVJgjhRPy2zIWaDysP0DCxbqC1gy2dBGx0SuX6Ek4WlK23lNm2+z2e+iMHD+Uu+C+yU0Nn+8bMFtsPPS7PZTrd8uVtvcjuSLeVAAVofYp1UQQY0FPFfW7Pa0a98ZkzF8+MF6ub0VDoIUuZdQf6ZxBLTmLRM5e+URRgIOCnAjYrzw8NoONBzJofgxPiuvJlAeR2ENe5JhgOd8hi0TW5TEKu9w4O950K+ILPTk5M3uJiJ7m2Kd2/fClAgEbrgA441q1OT05dCwfDz8iUmsvFGlnbgTa91+PuMlnMq8ROtGylz0eCRyBZFJW67GjLU6hxFkzkPPfKmTCI5cfkRrjwST7ETlosdOohBq3MaLXs8no82wpFvPmeYzKafxILx571+/yOYvdFen5xKcA1VzlZAYxXk/FI7Fm93vT86fODk8XqHfwMtqp1mt3gzmDljAhgy2Imfc7HizgzqNHcg5fO5i6KZdihggEa9QeBTw4aJJ8I+bBysjmc2HqUMFvj9fnaO1pbyzMc/5Jc1j/c+7pCpv7W1PjkSSyWGWfbJXmY1GhJU4B1xqR+gA55anpi6pRSof7+4NmBounOiGAup7PJXGZ7AAWsqeaoYNUkxoCBNx86NPjYIQpCMVLICSoooMGl4W2woT6a3HywtEQomghm6VGEuFyj1+2MR2NFT/x45uLgoEFr/rORm3dedNgddrbqkgmfxWQ6CcUnI+sx2E8vZysTHSLJCuPz/qVbbOnun+1IzOPkMbLf4XzvdD/RgPJv0Ys2FX3mmNh0/cv1d6I5/dGByOuI1lSmCnEGAOo3j53boe9mjAAu1+j4yNjzOq3prxRq7dlc+53L/QebOteFIsFOncFQzWBGNBeLxdmkv+LxinMd0rjD4ZBLp9XezKWv2d5bUEBTKlXjyPcWyEdgOg+UiEkbgt7RrqqsouIhv9d7sLOl3ZYtMfJ9/cC5vgGDzvw/fW7fd+BA+Q4tGKPRKGwWqpBOi4gAjr4Xc6tEHwJ9PYrm8oZb7HumgDTfdbxJ53tnmtH91EcaC/+xcnmhPpC4w1w2AQmNm97Fbg75nhdxe7TxqA/0R89mcKU+ZUJ/7idZMFG1XZhHTk5A9MAcR+7cuvXG9PjUt9VK7V/JlaqBwTOnCqYkn4t2CBXcXl5T+bBao85LbVuxszxzpPQeDobs2PP2pZy/2W3nR1jOsMdYqOORcMSbrygB8WYiogrAptasgsNblzwRfwG/OzPs2pJdNniu/9yB3Q3OaCjy9uT45IdNZuMuk9lsI2DjBJDMzdAGIBBg628+uJR0xpd0Yn86TmW2HnQ2MKcjLAM3jdnr9QoATw7JnDU1X/qc+fpBz2fA5ZAfliDo0Emn5yX6sssDc5ipAyoWCgTGnXbneUVM+SOT0XJi4OzAjXT0WOrfuxq6Vk1O3Hnv2trNVHszY050vn6J3bDEEgZ9RiTEtF5j8C31mMTtFxTQYOV0RgLB8XjckrdsruyJzSc7/HvUtXVrtjrHJ5s6WzvePH7qRMHCLuabOCh/39m/u+Fv1XLVkGva/aTX7WvSaNWbUAG+CuEmeoxBzRtDvDmovXSAk26xpAOkdO2nA0TavLOvEZ/Y6fpHz5+cnBQOI5vNJoyXOB36Swcm6drO5HfirOjZ7GLD4MaOpunowwCc8t+KQOnvDvj9Y7Bivo6/IbhmvBzXyK72DfeVhC41EPTvtlSW18sVcqqQnhdAY+6dDwT6dyQcRuagOBiKwkUJ0HwXFNAgbk5FQpHb2ARxLIC8iLvizcO+X+B+aibujLQb5bJujPGtTBb2Ul9z5vwgZVM4vffR+leQt7cu4o9sQ+aYnR65a4NaqybHRisWmQ7vSmQnELqD1CsyWhX3FJmYVUEnWXg7eXnyv6m35DfJoo9gIvAv/OEJ4krdwk8zDQi/JFvBNhYKWySSGYZJBfeuCn3Ji3FI4UUVCoUYXbpbqGKEDwr8IAdY0N2U64t6liqYMdPHhFKuwLRFkHdeoUGQNADeWGmE+zxxqgRqJH4u5YvaJ1CiGEYCJQBbHGKiJxoO+5CwE3oMgRhCv4V3mpXkZ0pWGsPGpQiYIMQrSB6yKY1S/apOqz+tVmuvKLSqW6fO9BVVvBTTrrOhs3Jqavx9mx7ZuiEYCs7U6MgHfQnExOAPmoTgsjGJlVGwsKeCA9rp8wOuPdt3k38W6dGM7L6RC0FZh0anA+mkzGYzBdYabVWVu30ud8fhzoO3Xj5+rGCeyunGcvbiUBDXXEn9/bR+V32tUiE3AsQMWAA6oIFCKLVCyENJmZXqeApyqFCigDYCxNwFMQEdhH8mA//pBeCSA1DQllxB+ago4yTBJAFNChLv3sa3i95FMYdJZBRwMoVyqboewj/xfwLce25N9iQhpGLFZ6r2RYgnQJ/Q2Awo02WEIypK/qkPuYMPe+yuHQajYafeYtpjNJmM6TikdPRO97vT6ZRVVlbKKDB7YmzszSmP93WNSnNBrzdcgZof/lNyABeDMaO9MGKAdCKuVmsiCVUCaSoSAfTViUN7uu9saXBjs8ceDgW2G6ym/Tgky8kIwrrLdDRa6Hdap7P3Mc0ZvguRhTOekK9ckZMIg2DV61gePgK0XAjJ9zIx2TCQIqbMYrXWTU9MPI7Mj324tqgm8oXGOXRhaDQfdFgJbRx4tOGUVmNcFQ2GD467R37xkV07WyASLmmu/aqqKoE7mxgdu6JMyH5o0Bp/CuR9pbv3RMF8pwoxd12NB6sd9vEnVm1cu5EOfzJ4iIPlF9sHBrTkeXo3kw4YDb9Crhw5fWGwoHTMi9iXDTHAKECHlnDlSz9CRCTOjE4c+iPFMulisCiN1vLyXR63q+Nw12NS2otsJqlI156+OJgYujg0Gpepnlcr1c/dun7j1lJ3hbgUKP+jqBg+iHKvPz51GvzVmf6CbsKlHiO17/N5m5AO9YhKrapgMTsfe5D2H+sd71H/RKIefF9wx+GCAxoCuG9MTUxO0amYTuHME81cF7susBjC99M76VvoRSeP3W4XTh8zuDSk9+hKxKOlUkilEGt32T9j+PKZaaVK0w291PWlHoywGePxSY1a29c3PHhxqZ9XjPY7G7s2eHzuj1TXVm8SFxAWi5zEFBDAsXMt0SXT0D0O7yLDCrVDFmqn3TGFymxjhR5vwQENdPKCSyNHU9KpZD1ePgXYskJtkAsEKXbZ7YES1KUsLmqT1XIg4PUefvzg47asHybdUDQKYGVMQYBZ8g1BGzAUDN6GLqxk1RK5TgJSBLVUra7eQzU4yKpLkgxb09lKnfL9Q7x6aMbZO9PkCmIuLelQGw5Ca3oLfwUP/SsCoCXsCrnqNsIiMrJ+iLkxBrMUASN+j/t6PBT8GSYpxBkN2OubJwre0HXRRPyD0XDwkVwXhnR/ISkg9wDQltzVgSyU8BF8HVaLkrCG55vC7fUdm6YdUx+12qwbxA7cDGjs84iq6Z6o3/fNeDQ6Ic6sm64/tD9Zj0afqV34n/lgjXqTvBrS3Z/v3wsOaIPnegNIx30F1u6cFivM6gGkYBmL+ALfcU5NXeacU0QgZpWJwDQ5lFrI6bB/7D1HnixqvrR8T97Kbg+JDOJxecoyumRDjUWjJG4O4lEF9WhfsgGJGm490K5xuV1PgjvbDWcgA4EXWXM5tIz2B4mHghOsz3s55A38WzQSmWaQy0SCYkATMx5gMLzY428OXy5cUDoPu+CARg/WqDVvgnDuTHRozJVxh1mfhqPACPOzEvqPhFGj/al9enqUgIxOCBI/2YJD96vU6kqlVtPgd7v3FWIhSc/InQKUHBDzq0ZL2eslsni8x+W+hU19vu90z4ozBCTisR3RRPgj1atq6ti9iUhDe4IPfdonjump24pI7KloLFKNQ8RI+4f2UaYp5MV7VDDSBYJTGo32WhbTkLdLiwJoWq3+RjQSm8zkBOCRisEvdSootXpDDZyE9sWiie94na6LnEqI7mELTirGU1a1quZhu9PxmfcdeXJr3qgnNbSEFEg62i3lC06xPhge3oxEY28s5XOK0Xbr/jab2+X4QG1d7cPgmMjJWXBSJmMcARUf/h6PJ+F3uc+E/MGnkQZnOzLWVLALVLooE/G4WI8GsRZx76Gr8C0suIVT2PfFIDYIdTsUCF0HUbOq0ynWodFno9lc6wuGHoBDd8SoN/w0EgrPnApiVlhQeCqVVqRLqXfa7Z1PHn5CX4xxS8/MigLwN1ZQMtAl49B8Xt84QpO64zEZCv2urFckEmrVmHTvQ5nHGubKxAwEMwhuh+NNnVLzQ5T7kIcikQ16hGpwjDFnQFmIMgxkrEeDCO+DR/UNuFsXpTRfUQCtZ7DbHg3HbkIRmdaLePYkEOHYwomKT2q90VgF/dlOZC9/IeDznaVThcVSBkDCTfreWmbb4PZ5Px4OBvesrOW78kZDcRKpEq5LwqphTYRRdvAqsl/A7+zUkoFmMWYG2Wg3OF32T5ZXVmylcnRlZWWCmMlxpxwnC11ZMBoMnob652cqjXaHzmjcxtlfyMjGwJYO0Ph32ndkXIAa6Hr/uf6iHBJFATQigMloOhMMhCbYKU8sItLvREwWF8UE4+sZ6FRaDQo9yHZiA0yZDaYfIL3xq8xei4NlU+KosnJV9Z6xsdFffrzrsXXFWGzSMzOjANaDUQjZ4kjVzG5711XsuyhOfyRkNAmHx1QKZXckGl9R4mbLvja11+18T9XqmgY40RoJmAik2Pmca4ISPRxTU1f1Gv0zZ9541ReTy9rgt1nJ1s8ZXXUaunPKKLqMngUJaNxoNJ9b5HTlfFvRAE2t0V5FBk+hQAQThU4R9n0hMMrEaKDRamzBSHgvLi6LhKKn1XLlixBSgrRoqS3BjAynW26rvKKizFpZvt85Pd1+uOMxUjpLrxKkADHi8URch3nLiUNjn0ReT0KGCSyOyfGJK0aT5fjQ2f4VxZ0hqeJBpV7zWVt52SZ2dGUFv9jKCXHbKQtHnwl4/cf3PrTNHIiEd4IQiBRMltnLNNsJJ7EUEkRGIgGVQnUNklPRCr8UDdDgVTsWDUfhqxLzcRoTjsuk0yHTwFk4C1qUWvXDKGMHP5vYnURM/tTo7dtnWLanSSQlKE8uEb6qpnrj+NTEx2Ph8KMluJelLhEF4H2N9ZBzvC85kvL802c66BDqNKGQKY6DOzu/kojdtr/toWDY/3lruW0H7yFa9zRuetF3JIIimibhnJ66EItEvz385mU7xO7tGr3+QbZq0t6hfZNJphM2xNHexXPciVgcxrn4RLHoWjRAOzV0fAJK39NQ5AuVxjl8grOcMvKnI0wyUsBQifddsKxYEtH4W2WWshdQxHWadQBcI5Mml6w8eNeu37ypYdo+9XNH2g8XPV13ujHej78j+4gO9VYNuY6dPeNFzqJhn9v7ml5vPHb63EDJpPbJdZx0v90+9Qlbpa3ZYrUYuZgxJ6sUA499cuqKVqn50elXX3lt99ZtaiR3OWCxmC28B7NNv03PppBD5IJzYi9fOjXcn1Y3no/xztVG0QCNOoNK4+fdLjeC1eMzoRj8OdNsmgLxVapqfyjQghRr5ZBUQoqY4qmAx3cKIBcnuZ4WNekRCNjoFCJQq6iqrNQadU9MjI+9r6u5KyexZqkm535uF46ZNiTBtORKAwqLo/mm+afPOOhGFTL5z8CdrahQpwM79n/AYDW8X2fQryNxUaiElqp+TmDDkrvRYHDZJyb7kZfw+wIjrFJZY4n4XgNyCMKFQyA3R9sQzdK9WNeN/RoP+QM31FpdUbPyFhXQkG/wNmpYXoEYSMnyBGfYpLSRtGRmUoiYrhW4ObVqO27cSJnAyMfNarB+dfTWnTMkutLpRIuZJpodbukzMttuiiRiH0cs3+F0Eyf9XmgKJGq0Or0516dy0ZWUSBSwT029ptHojoI7c+fadqnc376veasv4PkMfC0f5BDAlCQyA1ApMTI+dnvkjFFr/NqZVy8IkREIIH8I5ez24qOC9gbnSZvt0D7fWOke2kvgzrwoTvQmZdMpJl2KCmjxhGJcpzX0xaIxIdyCAY2rHWXieJvKMiozmoxrIrFoK1LL6U6c7QlFwrGXDRr9vwZ8/kkufkHAxrq5lFVVvnHrpp12x+SvPNZ6aGcxJ0J69r0UiIRDtSjikbPIydY9Wlvgzm4YdKZ/6R8ubgm5fM51y54mo9vt/Hj1mlWNSJwpWDWJI6Nxs/MsrXnaX36P99V4OPa9/otn+qkPOx/aqQpGwx1mq2Ur7SM69MX+m9mkF4IxwqnVaE+rVNqi+J8xTYsKaH1Dx2IGuG/Ab2WUvZKZ+NTBTPxgaAKomIVOr7PGZLGD8F4SdGLdp4/HVUrNdzxO9zG0GSRlqNVqFbg/TnEiVOmRycyr16+tn5oc+8KRjseKWnU9nwt9ubcVjUVrAUJ5cYAWdKco8OtzeU6oVJqjy5024v57fe5P6mymTyFteR0BEImN7G9Ge4OlE5/X67RPTB2LxuI/4Puxv9Zq9dr9yPKs5n1He4lEVdonnJIrHb1IjQO3qVGEO73e3Xs0K2f5dG1n+3tRAU0ALYV6xOPy3gSgwck4KrC8FEBLr0w4NJowLnum0WlQeET+yMHmdiHLKTLi37EYbH/vmLQPoc341NTUTCJIjlej62DiXm0ssx6ZHB/5VLYElK7PPwVa65uVqLewHjG4aRNziou0iLkLVmwTZ4ZNHnfZHRdNBvO3h84PFrROZP6pc7fF+p17H1cbtP+urLJiG+0bGj+BdyqFj/CeKikYtI9P9iG1+LfOv35xRmEPo1y90WTYy3pr2kscFkXfZWLlFKQpZKCeHp94pxj5z2bTt6BFUuaaXOQcH5XHFcNajWY/OKdVrMwUB5gvtChoImeSOxr0NdPj04f0Gt1x3DN5bOBovKvh0LBOpf9H++R0VVll+SNkIKBJINBkHzXi2IxW8xYsiCfb9ze9cvJM/0tLuRAL2fbRF5+FVV6lYodJSjAKCwjqFMgTLW0HS9IHC2rQagSnl2OedOm4dOYmaF5pE5K4xc6k9B392+fxXEMkyb9EFLLhQtJ+KZ/Vtr9lv8M19Rt1mzfuIRCiTM00xyQ2spsG65dvX7/xisVg+kr/heEL3KdHtmzXwJD2eK25dnUu/RRqeaBcnU6j7YcfdNHcNXgMRQe0E33PRzqaDh0N+oLv15n0q7IM75yJJkiZpRXhaLge2Tw2E6DRILsHj3q76g8+G4/ENnk93l+FI241FVJxOBxCSAhXL8f9qrA+vH/i9sgXDrd0jr3ce/yVXCa6FO49cewFFayFn9UajJtVSpUBQAZxIBHBOzyNE4GLZweRwkmo74DMJ7JpiA038T61bVd9RrnqlmqMSpWyDDGFFoBVRuuTDijazARuBIDsb0aHFrkShPyhExqtoXvo7EDRSxrmg2YdDW2r3R7Hl2vXr23GuIXDisCcg8rpGbTG6aB3O13X4UD7vahcdU+1dp1W16gxKvfk6riMwyPhmpy6bjZbTx/tPVb0jCUZLZh8TMJCbSgVqqsuh/2S3mx4BItST5NDrDMv1IXuFcen0XUVlRVrvQ5fY2t9y5lTQ72CPN89dMx+qPHgP9rHp3au27LxCdyD/ZLMC0UvjlRAzihT3cb1XWM373je03nkz549/uLbSz32pWyfXB9s5VWHLFbbYQTn2/Asmm8qKUel2kPwavHRH2RzN/7sqMr2ZjwWOfr6peHuh3fsS9rwi/CCw+dqJOaszeTRtGnFcYdiNQU810PY0GcNOuNTfcP9y3oumRbgzGrGx+/8/rqtm7vAXltY10WcKIE56cDoM/2Nj405XVP25w0aw9OnL5+bUdZvf3CnIRQJHa6tWrc+ExovdA1CyNxICvkG6jHczrWtfNxfdB0aDeJY7wvjGpX2JdQagGJRk1Xx05lAdUym4GRrMpbBlvkhgNM9aYKODhy7XV1R879vXbtxjoCSK3OzUYFYZyGIF8V/a9aufgIp0X/uPV2PZbSp8jERS9EGAC0IIFuPhV8NDlSDPwVxovjTIe+VFVlaV6Pq58ZYXL41Gpdvi8ZlDWB1WkDTsqXoT6ZthoKhdYhDFMJw0r1o/rn6ObkqsDoB6yh+6+bNy6iB+tWEQjGUrp3l8HtHfasKRoDP2aorn4Df2FoCLVb8s76M/Tenp6ejYX+w16gz/jPA7B7fMFy7XmfQ7Aetcvbzczud4/AmeBmMYklULysJQKPFZDCYzzkmp6+SMyxNEgFMOv0J3UcLmkQM9pshjg2e0ptQn/ddGTVe6HlpAB7SXw8HQm+QzoFDYmhh0IvAlE58OCeuUei0H5kYH//UE+2HMtpYJbkhEgkdQM1NG36uPyz+kEqlRESFfAx/N1VK+Rso3HkRsY5FyZRANOyob9cjHdRGzIUpkzBOPpi4NBvd43K5SG/2KtTjT8HXsbv/dO+yFzU7G9qVHrfzi2q95nOrVq/eSODNfpoEYiRt0Nql2FUC9bGR0VcB5v+EA+uMeG0++vAehJPFu8oqyx5lN6nFrl1INlGP0/mORqd76/njz5eEPrZkAC0WT1w1Gy2nISJA9Emmzs40wRynB+J7bOW2mkg08p6Opo53sdQ6nenpqD/0T4g5GxebpqkNMnmTKEoAuW7j+q1hWewzLpfz8SNtXTn7Qy120eR0HwrSQOwS0s7N/kO1clQHD96IhAJvhoO+syG/51jA6/tJwBc4iprgRXM6RbRHJeZuK04oUyb6VI47pHf2iHc5nVeDXv+3Ed70o/4z/Ssitbbb4/y0XKf+Ys2a1Ts4yFycSotoRQBFv0EMvK6Rq56Ci3oP0mBTTrmZl0Ipr1ZrVV04CGpyBbRgwG9XK5SvoKrASE7rNI83lwygHR94Oao3mLodSD9C46OTN5PQC7qWdCgc2J7yDFcp1IpG4OLu2bTqHjjm0qiNP4Arx7/BSOAhrowWAVmHWKdGz4aLh3Lj1i2PTLsdvwJu7jGAWloXgjzOS16aQnZyFehC3FZU5PmNGpTRK9GQ/6Wg3/O9oNfz90Gf/y/Btf5dNBR+4ZFd+8ce2X2gaKct5q9KoVbWYU5VmaSAFjhqzBdtTvI19LhcI/JI9Meo6/mvPUO9JSEG5TqZzXvq3x+Tx38B+fx2Y5xyWuvEobFBizgyWse0hkdHRqamRsaegYHn6dOvDN9TpOTRbXsQ9ZVo1xp0LXRvpvtrvv57Xe6bqDD/EgxoBS+GMl+fSgbQqIMqpfq1oC/wGj6C1snYy3QvztvEOgR6p81bVlG+1ul2/FJrU8e7CqO81PviDbPB9pceu/N5SjJJbXCKFc7KQc8Gp6bb+vBD+xwe12+Ae3vySPvBvDh6phtTvn6npCUQvf1JAwBiKOLxcDwavhz0eZ5GgZmvg9bfCIfCP4US/uyOfQ13duxvTKZlKOILRT22w0l0Lc8n64j4wGLvdU7kyVklhDx54Loxpy8b9MZ/PjnUtyKqOAHMPuT2e367orqqyWgyqcSRDxweSGuVODSn0+kN+wPPwW3pa0MXh9+V0x/W7bXg0D5VjVem2TR4H9JzOTxRKBkZi7lDft+bSo22pPLJlRSgnRjsHkNoygtet2eUJisTx9p5kRpaSoieDwLe5iyMcrTv5VfLzBV/OnL99ssI2EWyW5+ge6B3i8UicHwkfkaiUdPmB7fuj8rivw4O4P1H2pYPqKXoh7dEGH8hcGY3wgH/UZQZ+0EsEuvZVd90c3dDs29XQzNZPov+aqtv1QeCgUYAWgV7rtPhxFZM1hMJh18qQwv9RhwaOPtRx8TkMzaL7SvHB3ovF30weehA4679H/GFAr+OpKQHLFarlsbMahXB/wsgQ+AiONRCH+qcnOrTq3X/Z+Di2TkD75UK2WPYE7uFBJe4P5MXexsQnekeupc+T06M22HIO55A+GIm7RTqmpICNBq0yWwd9DhdlCctnolSeCFCmSym9V6/59PtrYfq5rruxVMvnauprPnz0Zt3KLZNcPEg/x2qvE7KVRZBkXPNZLCYDngCvi8hBvfxIx2HloVOjUomYkhUCi6MCkDOSDh4IegPPBuPxl/f3dhUVF+zueZDrVRui8vje7BhjMyd0xog8YrmgnRkND/MmRDo0W9et/tOLBh6xmoyf+Vo38miZUvN56Zt3df04XA88mvVq2saKyordWyNZ70y0YfjNkGD+NidkXNahfrvcA5fmKsfu7ft2SBTJD6i1WmriKacpCFdnwlAmZtjaQiOzxFk1rhmMJrP9wz23KOjS9feUv9ecoCGCbkKBVgfAoknM7FyLkQgcjo0WU1NYI8b5rvupd5jvTql9v+4pxynoYOIkU6GNg6dfHwakZGgqrraULdh3d4pl504tfc91tZlWurJyb19eSyVxhpeGnEXaimcQyKAy6UIZjRW6CrbkAd/rThNNH3PFlraUDQXnIEYHHTC7/VeBWfyDNKv/9VLvSeXPWfW1dChad3b+IlAJPAfyqsrG7RgP2kd0rgJyMVptQjk8V3M63Sel0ViX0fUzYsDF06/K+fPnu374L0jf095VQU50grLivXO6dYYJ0plQx1dD254UqfWvojkEu+ku7/Qv5ccoJ0cPBYyGS3HUBvgRi4iJxMSFaPXh0L+L7S3dD08H3F1euNzJp3xK3eu3zrHIEaAxlYzmlT6N7g20+p1axs8Ae+vY/N98Ej7oYpCT1iWz1Oh7yrBFSYed0fCkdfxuWguGQv1/VBjp9rj9x6E7rOC5oC5Y9rEnJyR5oCzQmBckWtXrr6miMW/azVb/+KlUydKSpeT5TwJlxOYBYP+z3hCvv9YtXpVAyQDHXFkRAsCMi4KTPuCAIloc+va9Vfjwcg/4ez+V4BZcE7OV6V4VKVVfgY6OIE746wzmewv1i/PcGmIubZPTNyAm1Vfz1CPczHjXMp7Sg7QaLDwnXkFPjTnkSEgZ291cibV6NQ7YGJumo+Qzx5/LoRaoc8gcOYfEpHYZTglCguIJp+jFogroD843+prVtfujylkv+50Oj6BMKmSrcYucGfJQiMEaFSN586epubMlCdLuermaBv+cI0Gs3EL6A5pKlk/kkN6OFaXNjRxbygq7Yf/04BerfmWVmv4B4DZlQJ3N++P62poNwSC/p8PJcK/sWb92l0YJ/BMIxyq7DzMQM/rEkVO3lTGEk8BzJ4euHBmTveU/Tv3KZFz4wNIwLBd7NtJhwPX70g3GE7iSP1A7kCnRqE6C91ZSdK8JAGtZ+i4p8xW8Yzf68uZpSVAQjhUXVwW+3h7a9eO+UHteT84tX+OBkL/R61QvckipwCwqYwedFrRaWmz2TSr1tTuDieiv+JyOz//WGvXlnSLohi/w3RPekFywSCR041aiSVjXhfT47GWQwqv33ekrLysWhzuRhtInIGF6D85MTE2PTF5VCVT/ZVBb/rrl3u6bxWDtvl85qGmzgp/wPdrALPfhASAVPJKwWWFxk6iJq05se6M6DA9OXkl5PZ9R65Qfq//wpl5/cBUamW9Rq/5KGL9zOLMJJnq0Pi5nJ4bgegjVkvZT08MnhjLJw3y1VZJAhoNTq5QnYFbwVm4VeTFyVNv0O/1+7wf6Wg7OG+4x/MnXwzqdcYfRf3Bb0TDkXc40SQ7eLKimqIM6ARdt3HDDplG+e8cTvsXDje3l16CSNS6gP7QB87Mi+RMo4C2vNAyX4vvbjuJVf5woF6t1ViJ5uxbxpsp5f2fuHPr1psY0TfKzLY/BBf/s5d6jqXPEZ3/zua1xYONndVOl+O/qk26X127Yf1DBF6sOxasl4jyYIsu0Ya+c6KeqNfuekqp1Hxl8OLZecGsftf+Krki8SkqgELtssWS1SqZ5Dtjp3UhMy2KoCC/4EWFSl2ycbElC2gnB7snLSbbT+DCcYNlfoHlTU04OwWyw+h8FlFaHHSfCa4ASpX8Q/JEfF7Rk1bqs8dfmNbrDP8UdPu+FwoEr7HTIlt7mFWnE5QWxJq1a7cm1IrP2d3OLx1qbt+f19Wea2NIEhQNh+9Ew6HLkWB4EJq0krNs0hAxp7vgqkEJHYXkD7TxOIqDNhLWgH1ydOy4PJr4S/z21Z7T/edP9J8oKevaYqbqUFPXJm/A878q11R/wmAyrhfrb6k95qI4yoPW4PjI6FWfw/1NhUL9jaFLZ+fVhzbsaVCq1cpOrUH/ARi7VOyfyRbOTP3Q2PeM9h2syTfMRvP3cJiURCD6XDQvWUBLcWnng95AHzgLF3v0k28Yh3xksoh4MdC1q2pXbQ0E/D/X3ja/gYCue+7ESwBT699EfMGnUJXqKseKsmKWc7BxLi6AWp3GqP/IlNP+n7oaWru6mtrTewRn0vlcr0mgBlY4Mhzy+p+OBMLH9rY2z6k0zvUxud4fCoV1SPMjbDo+KGjDlZeX+yBaXXJN2//RYjT9/umL5/6+f3ho2YuYRK9DzV2Hp5wTf2+rLv8Iqi7VsPGD89YRd0o0YH/IZApxx/WQN/B9hVLzteHL5+4sSHd5fH1MFv+CyWJZm8v8cLJIcPnOiD9wCtzZpeMDx4ualXah8ZQ0oJ0Y6B4xm23/QvoC9hznXOk0qEyUmhzfRmEh4UhEr1QrW+BFe7ilpXPBIsPPn3xpHKfRVxH3+Q0EbL9NcZ6psCoh5pMyc7ChgEBz9Zo1VdWrVz025bb/XjDg+8jBlvaiGwtajxyMI1lQP7gzxGfGS1LnQfNo0Btu6LWGayj+aw8GgmEk+/R6XO4rb15+7UV5RPbf9Dr9n54c7B/MZWOWyr0HGzsM7QdaPhqMBf5gzcb1nfCnsHI1Mo6CEIWpCVwaHagTo2PX7WNT/4Kc/X9z9tVzCyZSbNx7wAY70KfBnTXnOm4We1Fc5jp0lv9ycvBUSR8oJZEPbSGiIxxqMOwMnQv4/RvAnVWQJz/XGszE7EyLg72rSXysXlVTd+f2nU8q5UL2UqFYxHwv5EMbe6L9sa/7XN5EVJH4PNp5iKxOBGC3b9+WrV69msJNZnQTlJRw3aaNLWN37pQn/L6NB1s7fnKsyO4EB7raSlRvdpfqOGguwKr595MQLIO1oQr4y40p5MpeLeIEe4cHsgLi73/jGxp4zUc+8vnPFy0edb711FnfVhHwez8XU8u/uKp29Xa6jo0gpMpgKyRb2FMZleN+t+eiY2LqOZ3e9CfnXj2PpJzzv5r2NGjl8nhTVC77LBxyTbnGawouS6HQtCwaO6VQq9/MFSCX+v5lUY+yq7Gj0x/2/b9wbD2A1DJKjt/jLJ3piESARlwVRBghVTHu905PTH1bb7L8SU9Pd9o6gkdaD+l8Ae+XwonYz63dsG4buERS9ginJ52uExMTwjt5sRPgCvq8ROLaxJ2RQZu1/OtypfLCyyeOroisD+loncvv+7c3mGCVq0EAqv3MxUHHYtr60Te/Rbo434c++5mSAnKs4V1O1/QXy1dVv8dkMW+kQHqSGrj2AfvdcWr4VLxkBDqzN5DX7J9eeev1v8yEHk376h+RKxN/bCmv+HCu2TToeTi8ExN37gxaDNbf7R7o6cmkD8W8pqRFTiYMsmH2RIORF8ZGR8e4DgDrr9IRjw0JnLmBuCtweCZUu3ksHAg81tralVbf9eKpo0HEmP5fvVL7t++89fawUqEQ8muRrxSl8q6srBR0PwSapF8TrEnI6WWrqnzv+NTYf4N16H0dLe2V6fp6v/9+5vKgd+B839XFgtk/f+0fUPdDvgbJIW3/+t3vloT00XagVdOyt/G9bq/zP5bVVH0c9WM3EldGhysr6umdxU76TOsKayk4PjJyLhoI/51arf2bTNZG0/4GWywe/YTOZDrIRYYzuW+ha6CeGYcx5mQ8lqCkESX/WhaA9nLvyzGrtfxHAbd3yOvxBNgnJpNsHDQDrFgl7oxOQDr9KquqNipU8s9D9Jw3LEo8ey/1Hg2R9bPMVPZnIzdvk6EiQOBFMZ/ElRHXSG2zqwdxa+T7s2Hz5uZQLPw7fq/n1w61d70rnVHJr5Bl1EGK71EoVWXIVlwFYCh6ZhQE29t8fs+Xw4nI75vKbR+Gc2s1hxzRGmT/MjZc0Xe0lsC9eeAgcVIWSfytUqX+6tlXL2Rk0VUp5G0JpfwzRqNJcH/JRMe80PRSAscIwuXMJuvTJ06fKkkfxtn9XxaARp0+1t/9ukal+7HP471C2TC4yk+6/UaKe7qespjSiy2kmCw5wqJ2Tk6O/7vGxrZV6dqh35HxNtY9cPLpcnP5fx+5ees4UkU7OcaOrVJ0HS1M9nSXKxTKyuqqbUqd5pcnpyZ+v6Op5YmDbZ05VwTPpL/32zVgz2QAMy3AzAyyL2j0WWradDa2dyBX6V/rLIZ/X1Vb02Ars+k5QwbHZBI3xn+cSh76qnGfw/k8UiV8ZfjVi98GmGWkC2w50PRIJB799cqq6s3imhy5jBNxsrfioeizEGqWBXdGY102gEadBcNzwu/ydiNX/DRxRmKA4nAQdgTk3zitNp2MpFOgk4v9e/BugXd6czgU+HhjU1vGJzpE0JMAtd9zT9l/CGvcbS65x2Itux9wqApxbjWrVq0qr6p8wh8M/L7P4/7SYx0H9+ay2KR7300BilQTjEDwa0BGiKKInG31bXUHdu79eU/A84dVq2s+bjKb17OFXsw1ifP90aFLgAY/r5v2scmndWr9/zd08exzmc5xy4Hmmlgi+iW92dzCejlxVEAaLkwQd9lplz8DWAMI+j8tV6ifOTl8akFDRKb9LMR1ywrQjvUfG9HpDP8SC0VewwTE2DhAkyHOWMue1pmkcEZY1AZUrfx8IhrtyIbgL/d1XzTqTH8oC0W/Lo8nXoWYECcukJ9NHBptLqEuJMQI+kNhCwNSKDcrtOpfRSLD32pvaP7EwZZObTbPla6dnwJIxwpYQPCqQkH1CAoOaB0NrQfcLvtvxZWJ/1KzprYdGVp0XMiEuSauzsTiJa1dHM6RsZGRN52Tju+gtvL/Hrw4nHH90OZ9zaiUEvuoSqP+ENrWkcTAzrDsBrLQmqH1ypWz6DpSy5Coisy/VwGs3wXPs6yy/i4rQCOCa7TGQSQn7Ebe9HHOBEDf02cWJ7PJo0aTh7ConeFI8FdbmtrnTAY534I42n98VKc1/HnUF/pzWKIGwQV6aOEKkQngIAlQqV8cZMx1I+HsuB751T4Qkyf+MzKx/I/DbV2NElDlTgFwZaA9gubUqEEql6U19uT+RGTIaO5QHmrp3HZg5+5fc3ocf2ypKvtc3fp1DxBQII37TKps4t5J5CTrJnNnxE3BHu5++/U3zyD95v/GYf1npy+euZpNv7DUuhJK2a9YbLY1HNRP0gi9MnHZYEDj5JH0b7fL5SAjHCg53Heuv2SdaOei07IDNIRERW3Wih+iduZpgEWAJ0Kcmpk5s0zyqdGkI9hcDdGz1eWy/4emhvYHsllQADWvSq17yqI1/f702MTLDrtjjFO+cNohFn854J1EULPFYrQgR7zBavnMlH3qDxoe3fdLB9u6Hsrm2dK191JAkDYVCj3WBJBCvuQ6NFRisiED8CcDYf8fqI36365dt/ZwWXl5JWd2tVqtM0YosoDT4UYgxlEvU5OTY+O3R36Gupm/L1Oovjl04bQzmzlt3tewxR/y/qrJat1Oz0pZ8AUOSxwTulCbzAiwiErl/1Ar4DKy0T7df36wZIqfZEqXZeGHNtdgGnYd+JRMLf/dqlXVQlA4e1cTmNDEsuI1ndhJE0+nJ12H/Pq3nXbnN1Ua/VcHBnsWDi2Zo1PwV3vA6XH+UlQWO7K6bs2D0OZqWH8iMkbM9I/N9rFo1D82OnYLhUqGrRbrD5A35nT3qeMlldo40wVVzOt+/K2ntMhS/DELnP8QRP2c3xe4+sHPfjojpXo2/W5vaIM9Vd7kdNs/bykva9GbjFuw7lQcSE4gwdw5AYXAiaVy6gnqkRjy6/r9r6JQzzFYzr8DEfOVbJ5P1zbta7RFo6E/tFVVfEGj1ZrZyZzrC9C6pudmkmqbgZCuhah5PeYP/89EQvnDgQuDJZk7byFaFVzPkO3EzXe90WB52eGaaEb9xVVavb6awIGDmrmABmdrWOiZxJ7TIqP7YfWs83k9n0Iw92RzQ8f3+wZPLBhiMrtdGAveOtxy6E9iscilqbGJz5ps1gNIeWxlcOWFTouOvmORAN8bVq2ufRALa5Vj2r7NNekcbG9s+bFSrT3V3XNs2deUzNecp2sHuQeRkDcWQuk+XyQSjkXC+SVda30LjKiKFrt96qMylbyhbt26B/E8C80nK9NJH0UAQZIDrUf6nrizlBoiDsC4PX77zjmzwfJtrUb3HMAs68I0jfsatVhjv6zUqj8BvayQFoiBk0CJ1pUQ6of3dOoXDm0S/DsDAa9zyj5oMVpfBHe27MBMYGzSLZJS/h0BvrsRQfDHZdWVhzAxQhEJ9lFjD+x04VG04DgjKCnySWk7Pjr2tlqh+UOZUv3cqb7urMQAotfh1sNqJPLf6/A4vmSyWdr0Rn0dAFPFxgsSOQVdBfQpxB3yomMjh9PhnEamj0swNpwsL694AWN664Xul6RIgzSL8Xtf+welRqftgk5UFvQHL3/485/Li0K7s7mjDPLiQwgwPQw/ryPVtau2IfurlRTodCCyKoHWEq1B9iujeSWAgUqD9FI+yi6rUaifVqvUPxm6dG7RVama9jX8XFwR/6+V1dWbOGsGq14IPOlFfpD0ORNfzZSHQMxlt/dF/ZE/Uyg0z/ed6yuJwjnZ4s+yBjQaLCrj/GLZqorfRsYCQf8kDvfgjKcLEYXT1NCJxqZrgA3l3rpo1lt/LyFXHj3Re3RRWV4PNh1c4/W5Pwel7ZOobfAo9CsWAlo6xQnQOIGhOE88LUACNtokcCIecUxNv4ayZAPYFM8l5IpXXjr+ckmmAMp24S3V9d/5+689ArtADPGhd37uy1/Kyd2go7EDdVtk9X6/73AkET1sKyvbAoNO1WzXIHYDYo6bHVoJbAjwkFxh1Ot0DaoV6m8ho9Op4UvnFn04tTa0fDAcC/1J7Zo1D7ILkqAuSaUnp2dz/1j6WIjWvAYnx8beCXsDX4PR7WunXzmzqLCzpZrTbNpd9oAGbqgM6bL+yFJR9mkqf0ZcFsdVTk5OChzXYl5YFOHxkbFhs9H6u3G5oren99iidTGHm7sOOL0uKG/NTVSJKp5IaLj6tThDqzg7KPWZdYEet3vEPjn1BjLQvmo2WY6ZTObX4Dh647mjzy37BIeLmZv57vnHv/hr+Rd/698vep643famToNSIa/3uB3vQRWqpvKqqofhf2ETW9FZV8v+j/ROnD5x3wQk5MKDIHkfqjG9geqoPwFX9tOBC8NzlpfLhAZN+1v1ANfH4orYH8O3bQdx9gxG6QCLAY76xlwbx0HTezgYmoIY/BO91viHqEuQF642kzEtxTXLHtCIKI+3H9k+MTXyX1dvXP8kTigjTRL54zDXtVjCUbZcBLEfNegtf9YzcGJose0IYmjzwY3hSPiQx+/+EDzHdyFAuQagpmDQYk9x4s54s7DLB73jL46cYXaX03U7Hom+ajKYXjQYDRfiCdmVF7tfyloPk8tYVuq9jQfaNsKna2845D+k0WnqkXRxE8BDyHDMc8LzxWoCOjDpECURj+aJ67sG/f4bIZ+/G6nCvxuNxy+g8G9OoUOt9a3vV2pkv1tRXd3IqgvqSzpLPnFuFClD/aLr6TNbYQWHcKXSf+PtK0M2S/nv9Z4dXPYpmlYEoNGCa9vX9Jgn6Pl/Nj34QDNOSjlNGqf6yWUDOh0Op8/te95sKvvvJ/u7c64shKwLj/h8no/6woHDq9eu2Wa12croZKf+cnI/NqXzYuVUyeykCd2bD2Ep1+CP9yaiF8/C560HG+z1oz3HFy3K5EKj5Xxv/d4mHQq0bAc9dyXkiSaLzbLPaDJsgsnSSKIkzQ2noBIr2Nmqzlky2JoOGXUSZd4uh33BH6uVqn/rvzCcNptLOvo11zcfUCgT/0NrMBwmLosdZwmQMnWepfVFQEiARkWAyE+S1tedGzfOJwKR/33m9Utwol3+rxUDaF0NnUaf3/lrcp36l6tXrdpIbD8p3TNRii40jbSoodAdn56YPmm1Vvzxyb7uvNR+BLA1evyeTyjUynaIolvATZqoz7QxGMA4My7pRWjxsYGDuTgs6BgMe6Ojd+5cQXrt1y0m81GIRhfBKIyc6OuRuLZ5JrZ+T5MOYZ+bsfi3TE9PPKnRa7cgRftm+HKtUiKDIvtkzT4QCcSY9tQ0/Zv1ZbCvepCE8Y2gz/+yUW/6CarSnBs8fyZn8bdpf+OOhCz6p5by8scAQkrOnizO85du/ZLxgkOiBBETQEhry+/x3EG1+W+pVfq/HHolNw6yVKBwxQAaERTVczbaXVN/ULO27kPwFi/LhCVPNxHsXoFA9Cn4Nj1vNFr+/ERv98V092XyOwKY1dg8h5FW9r0xefwQRMj1cLjVcMyp2BxP7ZHYQAuS9Cec5JK+p0WOkn9TMLu/Ew4Er0DXdhki0DlkariB/O83ewdP3feGhKb9TQrQrhZZUraCvT0QiUUbkELqwTVrVq9Hlg5BTcE6MuaU6Z0tz8w1E705QoUOGYCFH64YV3xO95DJaPp2XJboHTp/Ni8Wwsa9DdtRVfUPbBUVH8Sz4KohpL4S+km6MBJz0/lZcvYX4uz4oKT77ty+7XFPTf/MoDP/BfRmZzNZr8vhmhUFaERwpDje6/I7/184PHYSOGTii7bQRLElSQge9ngnHVP2Y2Zz2X8Bp3Y9XxPc2di5PhwOHYzJou9F5aPtOqN+LUBNx3nmqQ9i3yZ2BxAXbOFU4zAg4OD1TECHMxrwB0Z0Wv0QUlxfQDzQVeSFv9V/pn9RFtt8jbXQ7bQ1tD0SiUYfQg3VbdFY5GG40GyGtXITsl9U0sFAhwQr2NmHi7kwFu2oz5wVg+ZC0EFFo+5IKHRtcmziPGI+fggtJ/RkZ/OmUK/fU78LJW5+S2s0fqKurk5DefdoLZOoSAcYO2Wnc0ui/hKYsciZMiSEb1+71mfWmf9HJCY/MXz5TF4AuNBzO9fzVhyg0SDb9jd9UmPS/Q48uPfkSmQCEloQlGqbTjaX0zntsruOQvz8XZTVuf3ysecyylWVST86GzrWoSJwYyQeeRKg1giL6DosQOFkphcBGYMbx4eSOMHuKXyC02+0+LFZA9h44xMIsPH7/BMqpeoto8F0Gc6Y1yGWjuFvamC4b1k6UIrp+cTBx5FBOEGZjI3wrDUgb8F2X8C/w+f3PQjRr85sMa+Bb1ql0WSsAG3URBsxHfnfbIQhcYxdZ/g5zK0BTLxIEX4t6PG/JIslekD846dfOZtzQWzxeBrAmaGk6n9S63Ufg7uOjsBLbOTilFh0oKUDNOY2SdeX8plLjN+5c0EZV/x5PKH4/vDls8sqVjPdPlqRgHaw8aAlFPF9QanX/HuEwWxIR4SFfueoA2L16TSn4igT4xMOv8d3gnRqR0+8eD6X9ue6Fxzb2kg00o6030f0Jv0+6HfWUHiL2AGXuQgOdWEugt453EXs34browjod4PLdEA8HcfGvylLyN9BAZI3tTrdDVhLR6CPGxk8O+DL93jy3V5ny0E1AEwnxG6iYhLG9nAoEt7pD/gfRnA6OFvlKr3RUKvRaqpAHwP7JorpQn1iXZnYwswWRI7uIJoLaaCCQTfK6V1Bip9erUp3DEaDcwPnhvJezg3l53bH4qH/hBjf91dXVxuozwRmzJkxx8XO4Oloy2DNKa0mRqkMnutbaq3x/yIQfjrd/cvt9xUJaDQJXQ1dtb6A63etVeWf0Rn0FaxPowVKZnZKgUxGg2zyrqfcJ5L+P5GoE5zP+TJb1e/K5MrXjh5/LicnzrkWDjKeGrBwD4Nra1GoFO0Gs2ETPNQrZnMNszck63s4aoIVyPzv1KaNY7O4oXebRtLMcUQmjMfjidvwl7oOZfgdrVY/gXTWnlgs/gY0276BM305K7gXuzmamzqUyKJQBrCqRl3VNQht2hiJRTaD+1oTjUbWEHiBi6ZcPVaMVcFcC4MRG1Toe/rMhwABBeukxIcFqykE37JAYGpqcuoqrJYDRoPxGchmF3NxjF2IBo17Gx8Nx4L/3WA2PY607ppMrJisEhGvCfY7Y4MFtUPSxeidkTGP3fFjk978p73nBku6etNi18qKBTQiyKGmQw85PVN/WLWm9gmc1hahtiEcHmtra4XULqyHWIh4s1l6sUsFNpZnbHT89XJb1R8nZIqTALW8ih7cr+a9zQi9ie+MxqPtGoO2HQGFW6Brq8HGpOysM6E2zKVxFAL9m10P2C2EFrnY1C8u2AwOLYQN4gMn58X1vmAg5PS4PQ4YGSCuqm9BZBnF35haraHAeQcchAnEqdZnBDqkMCytYYBvbHC4PyPwa2poBUYhbxnqzWAhqvEcyntjAo3LQ+FwNbjIqkDQvxVqeALxKqVKUQHRsQrgVQ6u0oqxGGiMrKRnsVDsoDyLSxVoxbQQJfq8V/mPzDsA+tHpyak3FXHFSZ1WdwKRB6+iFuaSieeIz3xvKBL4napVNfVwrdCSWCk2RMy3Rmk+WT/Gej4+eDkKhjJxILOHa3pk9Dmrpfx/nRoeuLRYwCj1+1Y0oBHxDzZ11bu89j+orlvdhYk2COZqcGikCGbL1kKTNPsa8ekv6K4AAlOT02+jZuGfKlWa56BTWzJfsIbdDVrUaNsCwDmAXMMNRqv5AIBto1qjJs5EACrWp7GOiPVqXBqNFj+LXgxuYv8qFmXvCZ+JRIEvYT8cjf2UdhzPd8SjcTdoQ4DmwzPpj8A8QKIt0CyOhQUpFlVBURgd3xHAITpNWG5IVCFTQiNI6X0gOso0+FlLc0NghnasKCRSAZCjoH4rlPdWpG004l6dGLC5z2L9Iv0u9uDnTCcc1ysGep5HemfxDeDqsE/b77jtrstGnfFF6BxPw6Bw5fSlM0sWkdG0HwkaZfEPxeWx3zRbrftItKRDRhxsvtD6ZCs8u5DQWBnQ2e8MvpT+qZHRE2a96X/1nB3qLXVQyqV/Kx7QBFBr6OgYt4/93vqtm9uxsTUkaogDibMBNOYI+J7UZolNTUxCH2X8G5VG9/2Xjz43mcukZHJv676WGnBt21we9+N6s+ERo9n4AFxVVmHzC/UK+LTm4Huu+cibmh1DWbHMwMCgKLbqzdUfsfgNzioGDg2JJyjZBRxFENUgtK9QJGCUIH+IBC201DMpqSywg/5kJB4qIeriLw6gwx0AZQ60FkQ+kWMrK7hZL0Qblg8m5mbE3Alzr2LRizOrUNvCxk8kPIjAGENCgHfi4dgZg85wEh1/beji6SXPBda0t0mPREM/r9AovoQEjTsoiJ2MTzROAja73S6Mb6EXzRuNmUVnFlM5phO/BUauXR8wag3/My5TnUTCxrwZsTJZp4W+5r4ANCJq856Gj0Tl0f9YCZYeXJqcJz6dlWi+CRFvHNp0xNaPjoxcS8QS/2qylP3jSy8/t+i4vWwXQcOu+jqwio9CMd5sMBsPmG2WzUqVsgoioZHaYpBgHRp7t9O/uRwgO40yh8bGEBZPmQMUO5cy58P3iGkpFmvFh4CYM6LvmXNkgBVzWQxYTGumy2yOkjY16wlZXyZ212FfrJSDcgIcpgfO0pMuh+s2oi0GtCr1aaVacxkJFt/OlvaLvb55f/NmMLxfVGhVn0C9iU3Ub+bMuP5FJjo0BnmiEYc0EQim3HgiV19/47TNYP7ThEL1fP/5oRUNZjQX9w2gdR7o0AVD3i/GVLJftlWU76ATkLNeLLQoeQPP3ky8ycilgzg+Wnz0eXxsbBKgBl8125+jBNGFl15+tmCLqHFXvQZeuQ+Go5F90Vi0Xq5SPADn0dXIyVaBpJEmWEphGUxxJimg46pVYkAR04OzfzDA8W9i0Zu/Y+6On0H3MLCJwW6+z2Kg4jbFADW7D8ICTnnv0zsbeNhXjJ5DHvIA8Ch8xlzBQHAUYUk3YuHoO0a9YQBRAW9EovFbqEaeU5xltqDWvL9xTygc/HdqvfYDKKcoVBxjsZd942isZLgi9Ui69SkYqcCt0njZH5HWo2Ni4qwqrviKUqV9pv/CkDPbfi7H6+8bQKPJOdjQWeP1u37OXGH7pEKt2k2hLekcb8WcC3M7PNF0L1lKa2pqhAVJPmFVVVUy6Czc9qnpc/Dd/AsUijz24tHnCu6p37K3GTooeTVkvi2BYOBR+BzsgpNDHXJ5rUG68XJ4x5ux6OUEwqx3EXNlfPLPzkvPwMfgxSIhfy/m4GZzv2LQ5M+stOccYiw6ssjLxWbEYqiYYxMDGn8vPDeRcOPdheIjkx6X56ZGobpoMVkG8MtbKMZ7+8zlCwV3MG5uaDbASvueYCj4C0i/3oR0UlaiOasDqN8ETMShEX1pPaUL3aPrhcLWqWpm9JkMXwGv91LEE/iqQqX57uDFM/cFmN1XHBqDUFd9hzUQ9n0pqkh8cd2G9VvSFZJgboM3J290ao++49ORFqY4FxWyGIRh7n9drVB93WA0Pf3C0ReyTumdzxOyY39LGUBiUyAU3BYIhfYkFIktCLVC7KKyChZgMzg4CsYWCouIgUHMdYl/E3NlYq6NAUlsoJjrPvGhwNeKrZRi/z/uj5hDE4tayFSLaYx44Svm8vsD45Fw5FYiFr+CjHPX9VrdZYDlDcQqFpX+LfXNm6PR8GfhfvPhssrKh7BWBLcMehGYM4hxLQACcM5xlm4dsOMtpwAfuXXrjUQ49vcqpfZ7AxeG7qtU7vcVh3YX1NrXOL2O3y6vqfowcqgh7CgsKNGZW6ATk1j/THQY6Rbb+Ojo23q19jmr2fpjaMZf+dmLzy2Z6T9dX/j39oYOuEjIahBqXen1eh6AeLoBm2orRNS1ALkKrV5nBtDBfUJmRGU0LVT1ZIUUCuqIOTEWEcWJBlmXxeE54gNgLpGS9V9zifb8XRLokNiHXIMjEUqxHcB9nngs7kZ4F2JYg+/ABHFNpVC+rdXp30ZfpwF+juFXhsmlpKiv5oYWkFXeiJTgn9ca9e9BlEYdi+FikXy+TrKVmt0zSE3CBi1xQknmslF25e2oP/RNlMP7xuDF02NFHXwRHn5fAhrRGZbPVZ6A+z/rLcYP6QyG9VzIgoJ+U3qXewLAFzs3Kb2aPR6NvqZTar6JmMpupNO+ttj2luq+lj1N5RBRy6GKKoOPRl0gGFwPl4W1SOdRC4ArNxj1NozFAm6O3CvAXYQ0+F2NyAk1QAZZc5RyslSyoYFjT9l6OpvLYo6XrXi4Nw6LKKKWYmHYSiMwlJK7RxAOzF5wLQRc0+C8HMC1SQDXTY1afQNuFRNgke2wkkK8lDmHL54pqQwjLQ3Nxlg49Cm1TnMYqX+6IOZXcinDufSBc80t0UkcgM66QrbgcjEUOlSQGfeK1+7+rl5nApgN5Zy2aKnW2lK2e98CGhH1cFPXVnBqv756XV27N+DfyeZy0ttwKp/Z1rpsJ4PaIgsoFl4caX6uGbT6ZxBP+a0Xj7+cl4wd2fYn2+ubdjche6uyQqlUVABxqrBxKuA8awH8UOl6UygSWhvDvxFupALY6OETBz9UnQ5AiDxjELxxIzF22Jjki0Z+aRQ7mPyDYQ5pxv2gcRDg5Ifn2jS+m4b3xhScOpzgutzgTCbxuxtcpBN/jsFzp0s+NKutqUUDZH/I7/P+okqnPaI3GjdiDBiKeuaQFLvJLDQnrMagawjE6MXhWfSZ1ikdwsj48U7I7X9Kpdb+7elXhldcSFOm6/a+BrQUp7bG6bH/gcZkeLKyumodLRASl+gE5SDvTIk513W84Og3IQWyyzXqcbnPIOPsU6jq1P1S94vLMn976+4W+JElBCcpKhCPN3j1yvXI568Bp0ce/waI2OoZUVUAM3mMjKzgMqLku0agBrc1GEwSsATLI3AzCQEsISbKQz1nTi3LDBDtza0wxESeiCUSHzNaLA0Ix6oQ6xXZh04MUAutL3aNoWuYqxX7ntHvLofjbcfE9E+MBvMfDZUYl5rL3lnMvfc9oBHRuho6Nri8ji9X1FQdgSVwB3FUdAqSviKbWM+5JoAXJIkK1KbgyBqP+xKx2KWQL3jcaLH+GC71b7zc/WLJcx6LWWD3yz0dLe16lUKxMxDwoSiO4lB1Tc0miM+IhEgmheSX2LjEee8WohHr0Gjt0B+LrIKLhlIZu33z5quxYOSfoTP7ysD5oSWLaFgu8ygBWmqmOg606lwex+/pLab3I+3Qo5zqeC5FdjaTy0BGC5C99AnkaKEid9kYigtfRoTBt5GK6ET3yaP3pd4jG3qW4rXtTW1V8VjkvYFQ4IvILLsD/mMWOgyJ0ycOXeyUzJzWXH58c42N7iWxkw0AXDYPmV+iXpfroiwS/6papXuq92z/fQ9mgrRQigukmH3a8/Cjv4kIw0/VbVi3G4tJlc5PLV1fxeIGK3gZ3GihYtGHUVz4eiIafwk1Y38EZ9zL3SdfXrJ40HT9lX7PnAKdrZ1apVzW6vd7PxZNxLsqa2q2sLKe3hl8xC4mNPd8oNGhlomfGVvf2b0Fvo+hgMd7Lh4K/yPKzj3VO3x/Je1caIYkQJtFnZY9LXBXiD4ZjAZ/qbK2uhXe9aQPWvSLAXG2/xpbuTjjA1V0gkPuG0q56iWTxfozWO5eOdFzrGBRBose4H1642Mdh5q8XveH4czyGILKN8EQYhQ7I4vLFIqdjYlc7CLE3Hs6EnLImhAeBYvv1Pj4oFap/VuctydOneldkgwv6fpUqr9LgDbHzLTshu+QStE65Zr4vbWbNjRDZjCxLo39pnhhzvaGX8xEs4sDFngCoTmjqF1wyaAzPqM3GPvjCfnl7p6XJGBbDGHzfE9na5dcDR2rFwkBYrL4B+Htvw1Kf6HM3WJformfCV/iLCgcPcEB9QAzh9fh7NapdX8hV6oHjvefyChN02L7thzvkwBtgVnr2t+xz+Gd/p01m9a1YeWsYk92OlnJfyofVaWoTXawpHbpZKfYQyQWvOX3Bi5p1dqjeqOp59jJ5eHmsRw3QSZ97mxB3Ydg4IlgOPAxk9X6SFlF+apMs8Yu1D7P/2ydGltDSUAgzgzB9GPOyamjJoP5r04O9a2YoiaZ0D6bayRAS0Otjn3tW91+x5flGuV7auvWbMICFDzmSembozQqPJkWrtjwwF7gBGyI5UMCjcioc9rxFoDtOaPJ3N196tiKTc6XzcIt1LVdrQcfCfg8bU6P8yMVVVUP1tSuqoXeU0XcE2WB5cwli+0PF7phHzNqh9aDOLbV7XS+A4v4z+Dq839PDJ56a7HPuh/ukwAtg1lu29NqC4Z9n46rEj+/as3qHfCXgqShF8zxnCwxg2bmvIQtYJwhgi6itllvktLBRaenpsbcDhdyrhmOozbxy+jDpWMnj7oX+1zpvoUpcKjt0F6Xy3EYHNmRmtraTah0XwfwEg4zjrvMde6pLRIveR1xezNVqIB2MBi9hjzC31BrdD85NXSqqPGoy2HNSICW4SxBr6aIJ6JPoETebyOn2j4d4h3TWagybHqmYjpnXmA9nTjAm56FxR+Djm0CHNsVtVLdq9cb+pQazWn4sTm7T7xU8OwRmY5vuVzX0dKpA2I94nLY3wMdWWdFddXDCPsS0vuI01uzpz7HreYyPgI05vIIyGjuKbokHAo6Ah7/OYVM+Y/ImPFM3+lTkp9iBoSWAC0DIokv6djfts8b8vyH6jWr2hHLWJcuo2gmzdMi5hhItnyJHXLFriN0LZ3kyHk/EQlFxvxe302z2fJvGq2uF0VD3jpxqlsCtkyILrqmq61rLfKlbUOoUieiG1qs5bbN1rKyGk4MyeFvnHOM/k1GIs60kuXj7rmcuTPi+ogzpzAmJDS4jtafg3/Z9+Jy5XD/6Z6iB9nnMsZC3isB2iKojbxqWxFZ8EWjzfwkRJEHEXQspN1ZzIsT8ol1aWIFMacoorbZeCC2uGIj+JH+e8LtdL2mUalPQc92CpvySvfJ7vsqbUw2tO9sP6QGJ1YXDYfX+ryefagctU+l1TxSUVW5FhXCyunAYO6LaM0FS9hLn732BW99/J7Li4CMI0gCyH0U9PlfVcRkP0Amp5+ePN1bsAy6uYyhlO6VAG2Rs9Gxr60smoge9If9P19RU3kASrWqxTTFZnu2domDltlYMNs1hDk29m9KOe/GkA9swkkZWSOx13Hav6zV619BfvwJ6NumT/YcX5axkYuh6Xz3PNZ5uAZB9Zv9Xm8j6p4eQBj9Q8gDV2lAAWIAi1DQmRMmckpsjumlfxPQiTlnziCSSx/JKCBwZm73hHNqelCn0n9LrlT19J7pLWgW3VzGUEr3SoCW42y0H2h7JBwJfjQqj3+ioqpii8ls1pBOhJP2ca415sDY65s2Tq6ZPObrOuXM93k8t1FQ+BZS8aD0nO4ckkyeR16z2wgGH+3pO3lfiDCHOrqQ1k25Nh6NrQItkPY6dECuUj5otlo2ImVUJehPhVlyXAHJ29lRmjk7PmwICDmrL+nLOEqAw+AQ4R++dePGFSRN6raaLN86PnhqOC8duk8byc9s3qfE42F37G+vCoUDh2PK+OdMVvMes8VSTQuXFjLFhLJYSaILK/o5UeJSk45Kz0GUmcaGHo2Go3fw/Mvo0xlEQLyKaITxk309K0rZfKjzoBEoVREKBh7CmJugDnhIZzQ8gPoBNWqttoJqmbI/Iesuc5kDVgmIuWkx58YcGH/HRgAhMy1K/43cun3ebLB8XS5Xnugb7luRxX9zoW+290qAli3FFri+80DbTl/I90mVTv1kWUXFw0iGKHBrvIFY58IndT4y4qbrvpgLRKbXcDAYcKG25hgqpaNYSGRUpVK/DbHrGjK9voP6c1MoFuyAasjX03+y5EXUDsRSIlVRBbicMojblXBG3hKJhneD+6kzWsybwJGugdhto5xss2tyMsDkyqExKDKd6SATqwTIaERWS9a10aGGAyWGvr555/qt122W8q+gBuD5/rN9UghTusWcwe8SoGVApGwu6TzQXh6OhA4iFvTT5TWVTcStsbWM2hHryDhwPZv2s72W9W/iDcxiEYokI4oHkc6hkCccCruQLhZV0mWjwOGrWo32bYDALURITALgPNDDOU4NnApl+/x8XH+w4yDV8SxHrrVKjKM8GPDXASQ2QA+2Dplt1+K3CqqkbjQabBqdrsxoMlF9hJkK6bMDwsVZX8Vzs9i+isVNboP9C+lAY18zIfe/328fHxm9ZNSav41Elj/rP9cvGW8WS/g57pMALY/EFDeFHGtbfAHPJzVG3QfkSsVW6Naw4YwCoIkLs+TKIaTrPnMQYj8qdv2gd06TxJseim+kvY74oIdD2bfAFEDPhdz9LvzuhA+7A7zOFMS2cXB1k5RdFkDnQ6Za0slRwkY/1Q/GO2qU4B58QCLHGTcS/JAsMixUT5dT+lW8yU2UMoxUWfhJjR+pULINXKQNdYvLwNFsQPtVANUqKMTK4f9XCXEZVasUJiqqDJrq2PrLzsgM3uKiwmKgEdMsV/oTXdmdQ5weSpxlhX4Hrf2OqemrkUD4BBIxfrfn9KnBdHMn/Z49BSRAy55mGd/Rvr/dEI9HmuBt/t6YPNFqKbdtgUXLwp7mmdQFzfhh81zI1lN2BmUfKg6xIr8n8WanTcmbXMR5EDaFEvEYyg3A+w2iK/L/43PYi5z/VC7Oh3vCuNdHxUxwbUStUruwiQFU8jC+oHWGSieU3BbV0mUJAjPhDxyWEeCnA3AaIPIaoVeiRABGJZywqAoV6qcaKDIDzyDXGDlXNmIRj0V6GoPYGsy6ytkxknQdi4VsYc6FxhymRG1w9XIu+JuiYwyhSzf8Ht85ncbwA9QJOzVwtk/iynIh+gL3SoC2RIQVN3uoqasaxYp2BcKBD8SRbsZaZltvsVrVhdChiY0P4jxc3D8O4WKuhjkLMefCvzHA0b3cLl9P76n6kEjIG09AbKUKTTJwe8mMEIAyYbERT0ZcWuoPwKrgfnG7nIZHDBb8PLYeMkBzZgrmMBnY6N+cm2z2FDPY5cMxltoWc8EcVA61HRjM2PjIzVtvGLWm76nUmpPRhOxK/5lTUoaMJdxzEqAtIXFnN324+dA6r8/9RFyR+JitouwRhUq5ClzIks6BOJMHcydi4GD3EbHljy13zAWJuZzZ1jwGGHGqaLqekxuKg67nIjXrFMV9EgPoXK4tYsBjsZLz7IsLF9OzxWOhzyweso4r1+mnZ4gjOaj9gM83Cp3kawgoHzAYzD8Ao3qlb/jUfeEqkys9c71/STdTrp1bqfc/1npoOxzFPhiOhrss5dYdqNVYyaE0zK3wJmERcLb1jGmzVL5sK5X2c42LuUwGJ46lZWU+/c56R7qf54o+cxopuhZuIpP2yam31XLVUaPJ8kI0Fr/Yd6YXRWCkV6EoIAFaoSg96zmPtT6mh8vBdrtz+tNGq/EAFNxbUTWpijYViYEsLrEoJd50zPUwV1KkIayIx3IBXxb/mbYsXpM+jNNpixMvsshLc0DGE4RRvRb2h3q1at0LEC3P9w/3eVcEgZbZICRAK/KEHWo5rFOr5HscLseHlRrVASQOfBCxmJXYMAousCFWdosV2izaFXkIy/rxYtqSGCoGLQIz4sDonUVVBjLBoimTTSGG9ko0GO43GS0/iaCSV8/QKSmlUxFXhARoRSS++NGPtR42KxXyHS6v632haLjRaDFtMRiM1SiuS1XJZ8qXMaCRqMkuAyUyhGXZDdb9EZil3CvuMXiwbpGtw7g+jLCycWQ5eQ1Adh5A9hziZd86PnBCslyWwAqQAK0EJmF2F57sOLLd5/d2+cPBg9W1NdthHqyCaczMYiddz4AmVkiX4FBKvktiKy2BGwejs56Mky4ihMzrcjpHA17/6zqV9phOpz8ejcfe7j3TLyn7S2iWJUArockQd+VI+xEwbLLNXq/nsZgsthfOudv1Rv06g8lkBWemZW4inRWxRIdXMt1iHSVHD4j99sLIsgjXCwcqct2OBMNntCpNN0LFLsKd7vqp071S4ZqSmcW7HZEArQQnZXaXjrQdroY76IMej7sjGA4eUGjUm5G7a43VZjMhv72QFlp6LY4C4urlBGbgyBAP5nHC7eJ2OBC8oJApzht0hoF4In61d3hgenFPke4qFAUkQCsUpfP0nMfbDm1BGpw93oCvKxyNbC2vrEBNSG05QpFyKqeWp+4tu2YE3RlADBwvBe2Pu5yut6OhyEWjwdSjVKre7D/bL2XAWEazKgHaMposcVcPth5EzCMFagfaEUq0HZZRiKXyzUg0WWZAsCA57LKn/VyOsezvRiFQc/m4sXOr2BdLrK9jb3txmmqx0y31lZ1axVEI/JnHIg61Ev/GzrPsE8bt8VjEoU3iqIbZ0Qx0P8ex0nWiaAkkqo1QUP6E2+V+AyD2ikatPa1Sqy8PnR+6vkyXxX3fbQnQVsASONh6yIpAyQ1en68e3BsB21aVWlWr1qorAXBWgJZgKeUNzUDDyQfFoUCzycHpqBlgZodBEeAx2IjfuR0GGzHoiL9jQGSgErtRcHt0PYMSfcfhRbPzmbH3v9jZmJ1l6TkA/yBiP51gx8bi0fh1pBx6U6lQAcjUFyLR2DvDr5yVFPzLfD9IgLbMJ3B29zubugwI8K5FIPnmUCS0MxqL7DWYjQ+A86iFYcGGza4Xb3xxHi82NFCbpFuiv9lAI76XPpND6mwQ4mvona2Ec3Fv/BwxZ8YxmwxmBEjUBrdD/+YAdTFAiy3AIi6M4ia9yP1mh2L/Dt7fUspVlwxa3VkEwl+LxmKTQxfOBFbYErivhyMB2gqf/iMth9cBV+q8Af9e6Ny2qTSqDTqDbrVao65BiLgFm18LgBCyWIgjEDgKgZNRslg6G+DmsrIuxJWJRUdxFIQ4BZA4hlQct8ntcu5/zpaRiieloPgQuK8ALJNOAOBEMBC6E4tE31QrVa9qlKrX4fh6JxKNTw1fOkOpjqTXCqSABGgrcFLnG1LbgXYDfNqs4OBWB8Oh7YGA/0Fcuwqi6WoA3Rq1WlWOLLsmGBgQlqUQZEkCGrHIJwa9uXzgxPoysdgpzpYxu3/ie2ZzcqwD4yD4FPcVxj1+pBzyBwNBN3zEpgK+wAjytk0iCeRNePe/gfRF15CWaAr324cvnS1KYsr7aGmVzFAlQCuZqShOR+p3Ntrg71aGuNJa2Po2x+KxdTAyrFGo5HWIL60sK7dZILeZUC3JSEk0kBYHdUdUyPMoFBhBPjPODiSfKZgsFhsZ9GYbA2aDnZhzwz0x5EmLIn8aSp9GQ/QHC6Q3gFS1yMYGHVhsFI+/jRxEI1q19g2IxpPIWDQJEdJJ6cPPvXpW4sCKs5yK/lQJ0Io+BaXXgd0P7dEAlMwAOT24ttVIYlYBP6xaeMYjc2y8TK6QWcDBgZNTWZB8sRzX6QBrlN8f9yk04OIAevALxv/olRQtAZMoWIAX1SogFIQaSxYHlxhH8aUwxOIAkkV6ISp6oLCnrJNe/O5RyJXguuT4U46gmSm0gOy5cTsacF94/bykxC+95VPUHkmAVlTyL7+H79yyi3JoGwBe9AcDg0yHPy0A0AD4MgLDTBBr9QAcqsCrBhAS2CHJdhLEyE5AablxPVJzJ6KyeILS64QAVH6IiBAj4wF8DgD4vMDA4KW3X5FAa/ktE6nHEgUkCkgUkCggUUCigEQBiQISBSQKSBSQKCBRQKKARAGJAhIFJApIFJAoIFFAooBEAYkCEgUkCkgUkCggUUCigEQBiQISBSQKSBSQKCBRQKKARAGJAhIFJApIFJAoIFFAooBEAYkCEgUkCkgUkCggUUCigEQBiQIrkAL/P4JHqjDtdsZOAAAAAElFTkSuQmCC;gliffyId=134;" parent="2" vertex="1">
          <mxGeometry x="399.30426025390625" y="321" width="100" height="100" as="geometry" />
        </mxCell>
        <mxCell id="25" value="&lt;div style=&#39;width: 142.0px;height:auto;word-break: break-word;&#39;&gt;&lt;div align=&quot;center&quot;&gt;&lt;span style=&quot;font-size:12px;font-family:Arial; line-height: 0;&quot;&gt;&lt;span style=&quot; line-height: 0;&quot;&gt;&lt;span style=&quot;font-size:14px;font-weight:bold; line-height: normal;&quot;&gt;Universal Robot kit&amp;nbsp;&lt;/span&gt;&lt;br /&gt;&lt;/span&gt;&lt;/span&gt;&lt;/div&gt;&lt;/div&gt;" style="text;html=1;nl2Br=0;html=1;nl2Br=0;verticalAlign=middle;align=center;spacingLeft=0.0;spacingRight=0;whiteSpace=wrap;gliffyId=135;" parent="2" vertex="1">
          <mxGeometry x="381.4985205078125" y="663" width="145" height="16" as="geometry" />
        </mxCell>
        <mxCell id="26" value="&lt;div style=&#39;width: 130.3915px;height:auto;word-break: break-word;&#39;&gt;&lt;div align=&quot;center&quot;&gt;&lt;span style=&quot;font-size:12px;font-family:Arial; line-height: 0;&quot;&gt;&lt;span style=&quot; line-height: 0;&quot;&gt;&lt;span style=&quot;font-size:14px;font-weight:bold; line-height: normal;&quot;&gt;ATI Net F/T sensor&amp;nbsp;&lt;/span&gt;&lt;br /&gt;&lt;/span&gt;&lt;/span&gt;&lt;/div&gt;&lt;/div&gt;" style="text;html=1;nl2Br=0;html=1;nl2Br=0;verticalAlign=middle;align=center;spacingLeft=0.0;spacingRight=0;whiteSpace=wrap;gliffyId=136;" parent="2" vertex="1">
          <mxGeometry x="382.6085205078125" y="419" width="133.39149475097656" height="16" as="geometry" />
        </mxCell>
        <mxCell id="27" style="shape=filledEdge;strokeWidth=2;fillColor=none;startArrow=none;startFill=0;startSize=6;endArrow=none;endFill=0;endSize=6;gliffyId=137;exitX=1.0;exitY=0.5;exitPerimeter=0;edgeStyle=orthogonalEdgeStyle;entryX=0;entryY=0.75;entryDx=0;entryDy=0;" parent="2" source="18" target="24" edge="1">
          <mxGeometry width="100" height="100" relative="1" as="geometry">
            <Array as="points">
              <mxPoint x="399" y="396" />
            </Array>
          </mxGeometry>
        </mxCell>
        <mxCell id="28" style="shape=mxgraph.mockup.graphics.lineChart;strokeColor=none;strokeColor2=#666666;strokeColor3=#008cff;strokeColor4=#dddddd;shadow=0;strokeWidth=2;opacity=100.0;gliffyId=141;" parent="2" vertex="1">
          <mxGeometry x="646" y="150.5" width="194" height="100" as="geometry" />
        </mxCell>
        <mxCell id="30" value="&lt;div style=&#39;width: 130.3915px;height:auto;word-break: break-word;&#39;&gt;&lt;div align=&quot;center&quot;&gt;&lt;span style=&quot;font-size:12px;font-family:Arial; line-height: 0;&quot;&gt;&lt;span style=&quot; line-height: 0;&quot;&gt;&lt;span style=&quot;font-size:14px;font-weight:bold; line-height: normal;&quot;&gt;Port&lt;/span&gt;&lt;br /&gt;&lt;/span&gt;&lt;/span&gt;&lt;/div&gt;&lt;/div&gt;" style="text;html=1;nl2Br=0;html=1;nl2Br=0;verticalAlign=middle;align=center;spacingLeft=0.0;spacingRight=0;whiteSpace=wrap;gliffyId=161;" parent="2" vertex="1">
          <mxGeometry x="635.6957397460938" y="419" width="133.39149475097656" height="16" as="geometry" />
        </mxCell>
        <mxCell id="31" style="shape=filledEdge;strokeWidth=2;fillColor=none;startArrow=none;startFill=0;startSize=6;endArrow=none;endFill=0;endSize=6;gliffyId=162;exitX=1.0;exitY=0.7071067690849304;exitPerimeter=0;entryX=0.0;entryY=0.5;entryPerimeter=0;edgeStyle=orthogonalEdgeStyle;" parent="2" source="24" target="35" edge="1">
          <mxGeometry width="100" height="100" relative="1" as="geometry">
            <Array as="points">
              <mxPoint x="499.30426025390625" y="391.710693359375" />
              <mxPoint x="564.652099609375" y="391.710693359375" />
              <mxPoint x="564.652099609375" y="380.5" />
              <mxPoint x="630" y="380.5" />
            </Array>
          </mxGeometry>
        </mxCell>
        <mxCell id="32" value="&lt;div style=&#39;width: 130.3915px;height:auto;word-break: break-word;&#39;&gt;&lt;div align=&quot;center&quot;&gt;&lt;span style=&quot;font-size:12px;font-family:Arial; line-height: 0;&quot;&gt;&lt;span style=&quot; line-height: 0;&quot;&gt;&lt;span style=&quot;font-size:14px;font-weight:bold; line-height: normal;&quot;&gt;Port&lt;/span&gt;&lt;br /&gt;&lt;/span&gt;&lt;/span&gt;&lt;/div&gt;&lt;/div&gt;" style="text;html=1;nl2Br=0;html=1;nl2Br=0;verticalAlign=middle;align=center;spacingLeft=0.0;spacingRight=0;whiteSpace=wrap;gliffyId=166;" parent="2" vertex="1">
          <mxGeometry x="630" y="615" width="133.39149475097656" height="20" as="geometry" />
        </mxCell>
        <mxCell id="33" value="&lt;div style=&#39;width: 102.061226px;height:auto;word-break: break-word;&#39;&gt;&lt;div align=&quot;center&quot;&gt;&lt;span style=&quot;font-size:12px;font-family:Arial;text-decoration:none; line-height: 0;&quot;&gt;&lt;span style=&quot;text-decoration:none; line-height: 0;&quot;&gt;&lt;span style=&quot;font-size:14px; line-height: normal;&quot;&gt;Insertion and Extraction test program&lt;/span&gt;&lt;br /&gt;&lt;/span&gt;&lt;/span&gt;&lt;/div&gt;&lt;/div&gt;" style="shape=rect;shadow=0;strokeWidth=2;opacity=100.0;html=1;nl2Br=0;verticalAlign=middle;align=center;spacingLeft=1.4693878;spacingRight=0;whiteSpace=wrap;gliffyId=167;" parent="2" vertex="1">
          <mxGeometry x="646.3914794921875" y="537" width="108" height="78" as="geometry" />
        </mxCell>
        <mxCell id="34" style="shape=filledEdge;strokeWidth=2;fillColor=none;startArrow=none;startFill=0;startSize=6;endArrow=none;endFill=0;endSize=6;gliffyId=170;exitX=1.0;exitY=0.5;exitPerimeter=0;entryX=0.0;entryY=0.5;entryPerimeter=0;edgeStyle=orthogonalEdgeStyle;" parent="2" source="22" target="33" edge="1">
          <mxGeometry width="100" height="100" relative="1" as="geometry">
            <Array as="points">
              <mxPoint x="535" y="576" />
              <mxPoint x="572.1304931640625" y="576" />
              <mxPoint x="609.260986328125" y="576" />
              <mxPoint x="646.3914794921875" y="576" />
            </Array>
          </mxGeometry>
        </mxCell>
        <mxCell id="35" value="&lt;div style=&#39;width: 138.05443px;height:auto;word-break: break-word;&#39;&gt;&lt;div align=&quot;center&quot;&gt;&lt;span style=&quot;font-size:12px;font-family:Arial; line-height: 0;&quot;&gt;&lt;span style=&quot; line-height: 0;&quot;&gt;&lt;span style=&quot;font-size:14px; line-height: normal;&quot;&gt;TCP data server&lt;/span&gt;&lt;br /&gt;&lt;/span&gt;&lt;/span&gt;&lt;/div&gt;&lt;/div&gt;" style="shape=rect;shadow=0;strokeWidth=2;opacity=100.0;html=1;nl2Br=0;verticalAlign=middle;align=center;spacingLeft=1.9727892;spacingRight=0;whiteSpace=wrap;gliffyId=173;" parent="2" vertex="1">
          <mxGeometry x="630" y="372" width="145" height="17" as="geometry" />
        </mxCell>
        <mxCell id="36" value="&lt;div style=&#39;width: 138.05443px;height:auto;word-break: break-word;&#39;&gt;&lt;div align=&quot;center&quot;&gt;&lt;span style=&quot;font-size:14px;font-family:Arial; line-height: 0;&quot;&gt;&lt;span style=&quot; line-height: normal;&quot;&gt;UDP data server&lt;/span&gt;&lt;/span&gt;&lt;/div&gt;&lt;/div&gt;" style="shape=rect;shadow=0;strokeWidth=2;opacity=100.0;html=1;nl2Br=0;verticalAlign=middle;align=center;spacingLeft=1.9727892;spacingRight=0;whiteSpace=wrap;gliffyId=175;" parent="2" vertex="1">
          <mxGeometry x="630" y="398" width="145" height="17" as="geometry" />
        </mxCell>
        <mxCell id="37" style="shape=filledEdge;strokeWidth=2;fillColor=none;startArrow=none;startFill=0;startSize=6;endArrow=none;endFill=0;endSize=6;gliffyId=177;exitX=1.0;exitY=0.7071067690849304;exitPerimeter=0;entryX=1.1102230246251565E-16;entryY=0.2928932309150696;entryPerimeter=0;edgeStyle=orthogonalEdgeStyle;" parent="2" source="24" target="36" edge="1">
          <mxGeometry width="100" height="100" relative="1" as="geometry">
            <Array as="points">
              <mxPoint x="499.30426025390625" y="391.710693359375" />
              <mxPoint x="564.652099609375" y="391.710693359375" />
              <mxPoint x="564.652099609375" y="402.97918701171875" />
              <mxPoint x="630" y="402.97918701171875" />
            </Array>
          </mxGeometry>
        </mxCell>
        <mxCell id="38" style="shape=filledEdge;strokeWidth=2;fillColor=none;startArrow=open;startFill=0;startSize=10;endArrow=open;endFill=0;endSize=10;dashed=1;fixDash=1;dashPattern=8.0 8.0;gliffyId=181;exitX=1.0;exitY=0.7071067690849304;exitPerimeter=0;entryX=0.5;entryY=1.0;entryPerimeter=0;edgeStyle=orthogonalEdgeStyle;" parent="2" source="35" target="7" edge="1">
          <mxGeometry width="100" height="100" relative="1" as="geometry">
            <Array as="points">
              <mxPoint x="775" y="384.02081298828125" />
              <mxPoint x="830" y="384.02081298828125" />
              <mxPoint x="830" y="268.5" />
            </Array>
          </mxGeometry>
        </mxCell>
        <mxCell id="39" style="shape=filledEdge;strokeWidth=2;fillColor=none;startArrow=open;startFill=0;startSize=10;endArrow=open;endFill=0;endSize=10;dashed=1;fixDash=1;dashPattern=8.0 8.0;gliffyId=182;exitX=1.0;exitY=0.5;exitPerimeter=0;entryX=0.7071067690849304;entryY=1.0;entryPerimeter=0;edgeStyle=orthogonalEdgeStyle;" parent="2" source="33" target="7" edge="1">
          <mxGeometry width="100" height="100" relative="1" as="geometry">
            <Array as="points">
              <mxPoint x="754.3914794921875" y="576" />
              <mxPoint x="912.8427124023438" y="576" />
              <mxPoint x="912.8427124023438" y="268.5" />
            </Array>
          </mxGeometry>
        </mxCell>
        <mxCell id="40" value="&lt;div style=&#39;width: 202.0px;height:auto;word-break: break-word;&#39;&gt;&lt;div align=&quot;center&quot;&gt;&lt;span style=&quot;font-size:14px;color:#1155cc;font-family:Arial; line-height: 0;&quot;&gt;&lt;span style=&quot; line-height: normal;&quot;&gt;socket communication&lt;/span&gt;&lt;/span&gt;&lt;/div&gt;&lt;/div&gt;" style="text;html=1;nl2Br=0;rotation=90.0;html=1;nl2Br=0;verticalAlign=middle;align=center;spacingLeft=0.0;spacingRight=0;whiteSpace=wrap;gliffyId=183;" parent="2" vertex="1">
          <mxGeometry x="826" y="374" width="205" height="31" as="geometry" />
        </mxCell>
        <mxCell id="41" value="&lt;div style=&#39;width: 157.0px;height:auto;word-break: break-word;&#39;&gt;&lt;div align=&quot;left&quot;&gt;&lt;span style=&quot;font-size:14px;color:#1155cc;font-family:Arial; line-height: 0;&quot;&gt;&lt;span style=&quot; line-height: normal;&quot;&gt;socket&lt;/span&gt;&lt;/span&gt;&lt;/div&gt;&lt;div align=&quot;left&quot;&gt;&lt;span style=&quot;font-size:14px;color:#1155cc;font-family:Arial; line-height: 0;&quot;&gt;&lt;span style=&quot; line-height: normal;&quot;&gt;c&lt;/span&gt;&lt;/span&gt;&lt;span style=&quot;font-size:14px;color:#1155cc; line-height: 0;&quot;&gt;&lt;span style=&quot; line-height: normal;&quot;&gt;ommunication&lt;/span&gt;&lt;/span&gt;&lt;/div&gt;&lt;/div&gt;" style="text;html=1;nl2Br=0;rotation=90.0;html=1;nl2Br=0;verticalAlign=middle;align=left;spacingLeft=0.0;spacingRight=0;whiteSpace=wrap;gliffyId=187;" parent="2" vertex="1">
          <mxGeometry x="770" y="350" width="160" height="32" as="geometry" />
        </mxCell>
        <mxCell id="Mmk1gVjBXLRzZorFBJCk-44" value="&lt;div style=&#39;width: 128.74467px;height:auto;word-break: break-word;&#39;&gt;&lt;div align=&quot;center&quot;&gt;&lt;span style=&quot;font-size:12px;font-family:Arial; line-height: 0;&quot;&gt;&lt;span style=&quot; line-height: 0;&quot;&gt;&lt;span style=&quot;font-size:14px;font-weight:bold;color:#1155cc; line-height: normal;&quot;&gt;TCP/IP protocol&lt;/span&gt;&lt;br /&gt;&lt;/span&gt;&lt;/span&gt;&lt;/div&gt;&lt;/div&gt;" style="text;html=1;nl2Br=0;rotation=0;html=1;nl2Br=0;verticalAlign=middle;align=center;spacingLeft=0.0;spacingRight=0;whiteSpace=wrap;gliffyId=143;" vertex="1" parent="2">
          <mxGeometry x="195.63" y="359" width="131.74" height="20" as="geometry" />
        </mxCell>
        <mxCell id="Mmk1gVjBXLRzZorFBJCk-46" value="&lt;div style=&#39;width: 128.74467px;height:auto;word-break: break-word;&#39;&gt;&lt;div align=&quot;center&quot;&gt;&lt;span style=&quot;font-size:12px;font-family:Arial; line-height: 0;&quot;&gt;&lt;span style=&quot; line-height: 0;&quot;&gt;&lt;span style=&quot;font-size:14px;font-weight:bold;color:#1155cc; line-height: normal;&quot;&gt;TCP/IP protocol&lt;/span&gt;&lt;br /&gt;&lt;/span&gt;&lt;/span&gt;&lt;/div&gt;&lt;/div&gt;" style="text;html=1;nl2Br=0;rotation=0;html=1;nl2Br=0;verticalAlign=middle;align=center;spacingLeft=0.0;spacingRight=0;whiteSpace=wrap;gliffyId=143;" vertex="1" parent="2">
          <mxGeometry x="195.63" y="517" width="131.74" height="20" as="geometry" />
        </mxCell>
        <mxCell id="Mmk1gVjBXLRzZorFBJCk-47" value="&lt;div style=&#39;width: 128.74467px;height:auto;word-break: break-word;&#39;&gt;&lt;div align=&quot;center&quot;&gt;&lt;span style=&quot;font-size:12px;font-family:Arial; line-height: 0;&quot;&gt;&lt;span style=&quot; line-height: 0;&quot;&gt;&lt;span style=&quot;font-size:14px;font-weight:bold;color:#1155cc; line-height: normal;&quot;&gt;TCP/IP protocol&lt;/span&gt;&lt;br /&gt;&lt;/span&gt;&lt;/span&gt;&lt;/div&gt;&lt;/div&gt;" style="text;html=1;nl2Br=0;rotation=0;html=1;nl2Br=0;verticalAlign=middle;align=center;spacingLeft=0.0;spacingRight=0;whiteSpace=wrap;gliffyId=143;" vertex="1" parent="2">
          <mxGeometry x="195.63" y="140" width="131.74" height="20" as="geometry" />
        </mxCell>
        <mxCell id="Mmk1gVjBXLRzZorFBJCk-48" value="" style="verticalLabelPosition=bottom;verticalAlign=top;html=1;shape=mxgraph.basic.x;rounded=0;sketch=0;align=center;fillColor=#000000;" vertex="1" parent="2">
          <mxGeometry x="1009" y="97" width="12" height="11" as="geometry" />
        </mxCell>
      </root>
    </mxGraphModel>
  </diagram>
</mxfile>
